G04*
G04 #@! TF.GenerationSoftware,Altium Limited,Altium Designer,24.3.1 (35)*
G04*
G04 Layer_Color=65535*
%FSLAX44Y44*%
%MOMM*%
G71*
G04*
G04 #@! TF.SameCoordinates,61AFF90D-CADD-405B-AF75-0EC62BA5F508*
G04*
G04*
G04 #@! TF.FilePolarity,Positive*
G04*
G01*
G75*
G36*
X446315Y570743D02*
X443865D01*
Y573009D01*
X446315D01*
Y570743D01*
D02*
G37*
G36*
X453055Y569680D02*
X453203Y569671D01*
X453369Y569652D01*
X453554Y569625D01*
X453748Y569597D01*
X453961Y569560D01*
X454174Y569514D01*
X454405Y569449D01*
X454627Y569375D01*
X454849Y569292D01*
X455070Y569190D01*
X455274Y569079D01*
X455468Y568950D01*
X455477Y568941D01*
X455514Y568913D01*
X455561Y568876D01*
X455634Y568811D01*
X455718Y568737D01*
X455810Y568645D01*
X455912Y568524D01*
X456023Y568395D01*
X456143Y568256D01*
X456263Y568090D01*
X456383Y567905D01*
X456494Y567702D01*
X456615Y567489D01*
X456726Y567258D01*
X456818Y566999D01*
X456910Y566731D01*
X454497Y566296D01*
Y566306D01*
X454488Y566324D01*
X454479Y566361D01*
X454470Y566416D01*
X454451Y566472D01*
X454433Y566546D01*
X454377Y566703D01*
X454303Y566879D01*
X454202Y567064D01*
X454081Y567230D01*
X453933Y567387D01*
X453924D01*
X453915Y567406D01*
X453887Y567424D01*
X453859Y567443D01*
X453758Y567507D01*
X453628Y567572D01*
X453471Y567637D01*
X453277Y567702D01*
X453055Y567739D01*
X452815Y567757D01*
X452722D01*
X452657Y567748D01*
X452584Y567739D01*
X452491Y567720D01*
X452389Y567702D01*
X452288Y567674D01*
X452167Y567646D01*
X452047Y567600D01*
X451927Y567554D01*
X451807Y567489D01*
X451687Y567415D01*
X451567Y567332D01*
X451455Y567230D01*
X451345Y567119D01*
X451335Y567110D01*
X451317Y567091D01*
X451298Y567054D01*
X451261Y566999D01*
X451215Y566925D01*
X451169Y566842D01*
X451123Y566740D01*
X451076Y566620D01*
X451021Y566481D01*
X450975Y566324D01*
X450928Y566148D01*
X450882Y565963D01*
X450845Y565751D01*
X450827Y565520D01*
X450808Y565270D01*
X450799Y565002D01*
Y564983D01*
Y564928D01*
Y564845D01*
X450808Y564734D01*
X450818Y564595D01*
X450827Y564447D01*
X450845Y564272D01*
X450873Y564096D01*
X450938Y563708D01*
X450984Y563513D01*
X451030Y563328D01*
X451095Y563144D01*
X451169Y562968D01*
X451252Y562811D01*
X451354Y562672D01*
X451363Y562663D01*
X451381Y562644D01*
X451409Y562607D01*
X451455Y562570D01*
X451511Y562515D01*
X451576Y562459D01*
X451659Y562395D01*
X451751Y562339D01*
X451853Y562274D01*
X451964Y562210D01*
X452084Y562154D01*
X452214Y562099D01*
X452362Y562062D01*
X452509Y562025D01*
X452676Y562006D01*
X452842Y561997D01*
X452907D01*
X452962Y562006D01*
X453018D01*
X453083Y562015D01*
X453249Y562043D01*
X453425Y562099D01*
X453619Y562164D01*
X453804Y562265D01*
X453896Y562321D01*
X453980Y562395D01*
X453989Y562404D01*
X453998Y562413D01*
X454026Y562441D01*
X454053Y562469D01*
X454090Y562515D01*
X454137Y562570D01*
X454183Y562635D01*
X454229Y562718D01*
X454285Y562801D01*
X454331Y562903D01*
X454386Y563014D01*
X454442Y563144D01*
X454488Y563273D01*
X454534Y563430D01*
X454580Y563587D01*
X454618Y563763D01*
X457031Y563356D01*
Y563338D01*
X457012Y563282D01*
X456984Y563199D01*
X456957Y563079D01*
X456910Y562940D01*
X456855Y562783D01*
X456790Y562607D01*
X456707Y562422D01*
X456615Y562219D01*
X456513Y562015D01*
X456393Y561803D01*
X456263Y561590D01*
X456115Y561387D01*
X455958Y561193D01*
X455783Y561008D01*
X455588Y560841D01*
X455579Y560832D01*
X455542Y560804D01*
X455477Y560767D01*
X455394Y560712D01*
X455283Y560647D01*
X455154Y560573D01*
X455006Y560499D01*
X454830Y560425D01*
X454636Y560342D01*
X454423Y560268D01*
X454192Y560194D01*
X453933Y560129D01*
X453665Y560074D01*
X453369Y560037D01*
X453055Y560009D01*
X452731Y560000D01*
X452639D01*
X452593Y560009D01*
X452537D01*
X452399Y560019D01*
X452223Y560037D01*
X452029Y560065D01*
X451807Y560111D01*
X451567Y560157D01*
X451308Y560231D01*
X451049Y560314D01*
X450771Y560416D01*
X450503Y560536D01*
X450235Y560684D01*
X449976Y560851D01*
X449727Y561054D01*
X449486Y561276D01*
X449477Y561294D01*
X449431Y561331D01*
X449375Y561405D01*
X449301Y561516D01*
X449209Y561646D01*
X449107Y561803D01*
X448996Y561988D01*
X448885Y562201D01*
X448774Y562441D01*
X448663Y562709D01*
X448562Y563005D01*
X448469Y563319D01*
X448395Y563661D01*
X448340Y564031D01*
X448293Y564419D01*
X448284Y564835D01*
Y564845D01*
Y564863D01*
Y564891D01*
Y564937D01*
X448293Y564993D01*
Y565057D01*
Y565131D01*
X448303Y565215D01*
X448321Y565409D01*
X448349Y565631D01*
X448386Y565871D01*
X448432Y566139D01*
X448497Y566426D01*
X448580Y566712D01*
X448682Y567008D01*
X448793Y567313D01*
X448932Y567600D01*
X449098Y567887D01*
X449283Y568155D01*
X449495Y568404D01*
X449514Y568423D01*
X449551Y568460D01*
X449625Y568524D01*
X449717Y568608D01*
X449837Y568700D01*
X449986Y568811D01*
X450161Y568931D01*
X450364Y569051D01*
X450586Y569162D01*
X450827Y569283D01*
X451095Y569394D01*
X451391Y569486D01*
X451705Y569569D01*
X452038Y569634D01*
X452399Y569671D01*
X452778Y569689D01*
X452944D01*
X453055Y569680D01*
D02*
G37*
G36*
X438687Y560213D02*
X436478D01*
X432742Y569486D01*
X435313D01*
X437060Y564752D01*
X437569Y563171D01*
Y563181D01*
X437578Y563199D01*
X437587Y563227D01*
X437606Y563273D01*
X437633Y563375D01*
X437680Y563495D01*
X437716Y563633D01*
X437763Y563763D01*
X437790Y563874D01*
X437809Y563929D01*
X437818Y563966D01*
X437827Y563985D01*
X437837Y564031D01*
X437864Y564114D01*
X437901Y564207D01*
X437938Y564327D01*
X437985Y564466D01*
X438031Y564604D01*
X438086Y564752D01*
X439843Y569486D01*
X442367D01*
X438687Y560213D01*
D02*
G37*
G36*
X446315D02*
X443865D01*
Y569486D01*
X446315D01*
Y560213D01*
D02*
G37*
G36*
X416202Y572999D02*
X416359D01*
X416526Y572990D01*
X416711Y572981D01*
X416905Y572962D01*
X417099Y572944D01*
X417506Y572907D01*
X417700Y572879D01*
X417894Y572842D01*
X418070Y572805D01*
X418236Y572759D01*
X418245D01*
X418282Y572740D01*
X418347Y572722D01*
X418421Y572694D01*
X418523Y572657D01*
X418634Y572611D01*
X418763Y572556D01*
X418902Y572491D01*
X419050Y572408D01*
X419207Y572324D01*
X419364Y572223D01*
X419530Y572121D01*
X419688Y572001D01*
X419854Y571871D01*
X420011Y571733D01*
X420168Y571576D01*
X420178Y571566D01*
X420205Y571539D01*
X420242Y571492D01*
X420298Y571428D01*
X420372Y571344D01*
X420446Y571243D01*
X420529Y571132D01*
X420621Y571002D01*
X420723Y570854D01*
X420816Y570697D01*
X420917Y570531D01*
X421019Y570346D01*
X421121Y570152D01*
X421213Y569948D01*
X421306Y569726D01*
X421389Y569505D01*
X421398Y569495D01*
X421407Y569449D01*
X421426Y569384D01*
X421454Y569283D01*
X421491Y569162D01*
X421527Y569024D01*
X421564Y568857D01*
X421601Y568672D01*
X421638Y568460D01*
X421675Y568229D01*
X421712Y567979D01*
X421749Y567711D01*
X421777Y567434D01*
X421796Y567128D01*
X421814Y566814D01*
Y566481D01*
Y566463D01*
Y566407D01*
Y566324D01*
X421805Y566213D01*
Y566084D01*
X421796Y565917D01*
X421777Y565742D01*
X421768Y565547D01*
X421740Y565344D01*
X421722Y565122D01*
X421648Y564669D01*
X421546Y564207D01*
X421491Y563985D01*
X421417Y563763D01*
X421407Y563745D01*
X421398Y563698D01*
X421370Y563624D01*
X421324Y563532D01*
X421278Y563412D01*
X421222Y563273D01*
X421148Y563125D01*
X421065Y562959D01*
X420973Y562783D01*
X420871Y562598D01*
X420760Y562413D01*
X420640Y562219D01*
X420501Y562034D01*
X420363Y561849D01*
X420215Y561664D01*
X420048Y561498D01*
X420039Y561488D01*
X420020Y561470D01*
X419974Y561433D01*
X419928Y561387D01*
X419854Y561331D01*
X419771Y561276D01*
X419678Y561202D01*
X419567Y561128D01*
X419447Y561045D01*
X419309Y560961D01*
X419161Y560878D01*
X419003Y560795D01*
X418828Y560712D01*
X418643Y560629D01*
X418449Y560555D01*
X418236Y560481D01*
X418227D01*
X418199Y560471D01*
X418144Y560453D01*
X418079Y560444D01*
X417996Y560416D01*
X417885Y560398D01*
X417765Y560370D01*
X417626Y560351D01*
X417469Y560324D01*
X417302Y560296D01*
X417108Y560277D01*
X416905Y560259D01*
X416683Y560240D01*
X416452Y560222D01*
X416202Y560213D01*
X411089D01*
Y573009D01*
X416063D01*
X416202Y572999D01*
D02*
G37*
G36*
X462439Y569680D02*
X462495D01*
X462643Y569671D01*
X462818Y569652D01*
X463013Y569615D01*
X463244Y569578D01*
X463484Y569523D01*
X463734Y569449D01*
X464002Y569356D01*
X464270Y569246D01*
X464547Y569116D01*
X464815Y568959D01*
X465074Y568774D01*
X465324Y568561D01*
X465555Y568321D01*
X465564Y568302D01*
X465611Y568256D01*
X465666Y568173D01*
X465740Y568062D01*
X465832Y567914D01*
X465934Y567739D01*
X466036Y567526D01*
X466147Y567285D01*
X466258Y567008D01*
X466369Y566694D01*
X466461Y566352D01*
X466554Y565973D01*
X466618Y565566D01*
X466674Y565122D01*
X466702Y564641D01*
X466711Y564133D01*
X460562D01*
Y564123D01*
Y564087D01*
X460572Y564031D01*
Y563957D01*
X460581Y563865D01*
X460599Y563754D01*
X460618Y563643D01*
X460646Y563513D01*
X460710Y563236D01*
X460757Y563097D01*
X460812Y562959D01*
X460886Y562820D01*
X460960Y562681D01*
X461043Y562552D01*
X461145Y562432D01*
X461154Y562422D01*
X461173Y562404D01*
X461200Y562376D01*
X461247Y562339D01*
X461302Y562293D01*
X461376Y562237D01*
X461450Y562191D01*
X461543Y562136D01*
X461635Y562071D01*
X461746Y562025D01*
X461986Y561923D01*
X462125Y561886D01*
X462264Y561858D01*
X462411Y561840D01*
X462569Y561831D01*
X462624D01*
X462670Y561840D01*
X462772Y561849D01*
X462911Y561868D01*
X463059Y561905D01*
X463225Y561960D01*
X463382Y562034D01*
X463540Y562136D01*
X463549D01*
X463558Y562154D01*
X463604Y562201D01*
X463678Y562274D01*
X463761Y562385D01*
X463863Y562524D01*
X463965Y562700D01*
X464057Y562903D01*
X464141Y563153D01*
X466581Y562746D01*
X466572Y562727D01*
X466563Y562691D01*
X466535Y562617D01*
X466489Y562524D01*
X466443Y562413D01*
X466378Y562284D01*
X466304Y562136D01*
X466212Y561988D01*
X466119Y561821D01*
X466008Y561655D01*
X465879Y561479D01*
X465749Y561313D01*
X465601Y561147D01*
X465444Y560980D01*
X465268Y560832D01*
X465084Y560693D01*
X465074Y560684D01*
X465037Y560666D01*
X464982Y560629D01*
X464899Y560583D01*
X464797Y560536D01*
X464686Y560471D01*
X464538Y560416D01*
X464381Y560351D01*
X464205Y560287D01*
X464020Y560222D01*
X463808Y560157D01*
X463586Y560111D01*
X463345Y560065D01*
X463087Y560028D01*
X462818Y560009D01*
X462541Y560000D01*
X462439D01*
X462375Y560009D01*
X462310D01*
X462236Y560019D01*
X462143Y560028D01*
X461940Y560046D01*
X461718Y560083D01*
X461459Y560129D01*
X461182Y560194D01*
X460895Y560277D01*
X460599Y560388D01*
X460303Y560508D01*
X460008Y560666D01*
X459721Y560841D01*
X459453Y561054D01*
X459194Y561294D01*
X458963Y561572D01*
X458954Y561590D01*
X458926Y561627D01*
X458880Y561701D01*
X458824Y561803D01*
X458750Y561923D01*
X458676Y562071D01*
X458593Y562247D01*
X458510Y562450D01*
X458417Y562672D01*
X458334Y562912D01*
X458260Y563171D01*
X458196Y563458D01*
X458131Y563754D01*
X458085Y564077D01*
X458057Y564419D01*
X458048Y564771D01*
Y564780D01*
Y564799D01*
Y564826D01*
Y564872D01*
X458057Y564928D01*
Y564993D01*
Y565067D01*
X458066Y565150D01*
X458085Y565344D01*
X458112Y565566D01*
X458149Y565816D01*
X458196Y566084D01*
X458260Y566370D01*
X458344Y566666D01*
X458436Y566962D01*
X458556Y567267D01*
X458695Y567563D01*
X458852Y567850D01*
X459037Y568118D01*
X459250Y568377D01*
X459268Y568395D01*
X459305Y568432D01*
X459370Y568497D01*
X459462Y568580D01*
X459582Y568682D01*
X459730Y568793D01*
X459897Y568913D01*
X460082Y569033D01*
X460294Y569153D01*
X460525Y569273D01*
X460775Y569384D01*
X461043Y569486D01*
X461330Y569569D01*
X461635Y569634D01*
X461959Y569671D01*
X462301Y569689D01*
X462393D01*
X462439Y569680D01*
D02*
G37*
G36*
X427657D02*
X427713D01*
X427861Y569671D01*
X428036Y569652D01*
X428231Y569615D01*
X428462Y569578D01*
X428702Y569523D01*
X428952Y569449D01*
X429220Y569356D01*
X429488Y569246D01*
X429765Y569116D01*
X430033Y568959D01*
X430292Y568774D01*
X430542Y568561D01*
X430773Y568321D01*
X430782Y568302D01*
X430829Y568256D01*
X430884Y568173D01*
X430958Y568062D01*
X431050Y567914D01*
X431152Y567739D01*
X431254Y567526D01*
X431365Y567285D01*
X431476Y567008D01*
X431587Y566694D01*
X431679Y566352D01*
X431772Y565973D01*
X431836Y565566D01*
X431892Y565122D01*
X431920Y564641D01*
X431929Y564133D01*
X425780D01*
Y564123D01*
Y564087D01*
X425790Y564031D01*
Y563957D01*
X425799Y563865D01*
X425817Y563754D01*
X425836Y563643D01*
X425864Y563513D01*
X425928Y563236D01*
X425975Y563097D01*
X426030Y562959D01*
X426104Y562820D01*
X426178Y562681D01*
X426261Y562552D01*
X426363Y562432D01*
X426372Y562422D01*
X426391Y562404D01*
X426418Y562376D01*
X426465Y562339D01*
X426520Y562293D01*
X426594Y562237D01*
X426668Y562191D01*
X426760Y562136D01*
X426853Y562071D01*
X426964Y562025D01*
X427204Y561923D01*
X427343Y561886D01*
X427482Y561858D01*
X427630Y561840D01*
X427787Y561831D01*
X427842D01*
X427888Y561840D01*
X427990Y561849D01*
X428129Y561868D01*
X428277Y561905D01*
X428443Y561960D01*
X428600Y562034D01*
X428758Y562136D01*
X428767D01*
X428776Y562154D01*
X428822Y562201D01*
X428896Y562274D01*
X428979Y562385D01*
X429081Y562524D01*
X429183Y562700D01*
X429275Y562903D01*
X429358Y563153D01*
X431799Y562746D01*
X431790Y562727D01*
X431781Y562691D01*
X431753Y562617D01*
X431707Y562524D01*
X431661Y562413D01*
X431596Y562284D01*
X431522Y562136D01*
X431429Y561988D01*
X431337Y561821D01*
X431226Y561655D01*
X431097Y561479D01*
X430967Y561313D01*
X430819Y561147D01*
X430662Y560980D01*
X430486Y560832D01*
X430302Y560693D01*
X430292Y560684D01*
X430255Y560666D01*
X430200Y560629D01*
X430117Y560583D01*
X430015Y560536D01*
X429904Y560471D01*
X429756Y560416D01*
X429599Y560351D01*
X429423Y560287D01*
X429238Y560222D01*
X429026Y560157D01*
X428804Y560111D01*
X428563Y560065D01*
X428304Y560028D01*
X428036Y560009D01*
X427759Y560000D01*
X427657D01*
X427593Y560009D01*
X427528D01*
X427454Y560019D01*
X427361Y560028D01*
X427158Y560046D01*
X426936Y560083D01*
X426677Y560129D01*
X426400Y560194D01*
X426113Y560277D01*
X425817Y560388D01*
X425522Y560508D01*
X425226Y560666D01*
X424939Y560841D01*
X424671Y561054D01*
X424412Y561294D01*
X424181Y561572D01*
X424172Y561590D01*
X424144Y561627D01*
X424098Y561701D01*
X424042Y561803D01*
X423968Y561923D01*
X423894Y562071D01*
X423811Y562247D01*
X423728Y562450D01*
X423635Y562672D01*
X423552Y562912D01*
X423478Y563171D01*
X423414Y563458D01*
X423349Y563754D01*
X423303Y564077D01*
X423275Y564419D01*
X423266Y564771D01*
Y564780D01*
Y564799D01*
Y564826D01*
Y564872D01*
X423275Y564928D01*
Y564993D01*
Y565067D01*
X423284Y565150D01*
X423303Y565344D01*
X423330Y565566D01*
X423367Y565816D01*
X423414Y566084D01*
X423478Y566370D01*
X423562Y566666D01*
X423654Y566962D01*
X423774Y567267D01*
X423913Y567563D01*
X424070Y567850D01*
X424255Y568118D01*
X424468Y568377D01*
X424486Y568395D01*
X424523Y568432D01*
X424588Y568497D01*
X424680Y568580D01*
X424800Y568682D01*
X424948Y568793D01*
X425115Y568913D01*
X425300Y569033D01*
X425512Y569153D01*
X425743Y569273D01*
X425993Y569384D01*
X426261Y569486D01*
X426548Y569569D01*
X426853Y569634D01*
X427177Y569671D01*
X427519Y569689D01*
X427611D01*
X427657Y569680D01*
D02*
G37*
G36*
X221726Y573221D02*
X221791D01*
X221874Y573212D01*
X221957D01*
X222161Y573184D01*
X222383Y573157D01*
X222641Y573110D01*
X222919Y573055D01*
X223215Y572981D01*
X223529Y572888D01*
X223843Y572777D01*
X224167Y572639D01*
X224481Y572482D01*
X224796Y572297D01*
X225091Y572084D01*
X225378Y571834D01*
X225387Y571825D01*
X225415Y571797D01*
X225461Y571751D01*
X225517Y571687D01*
X225591Y571603D01*
X225674Y571492D01*
X225766Y571372D01*
X225868Y571233D01*
X225970Y571076D01*
X226081Y570901D01*
X226192Y570706D01*
X226303Y570503D01*
X226404Y570272D01*
X226506Y570032D01*
X226608Y569763D01*
X226691Y569486D01*
X224130Y568876D01*
Y568885D01*
X224121Y568922D01*
X224102Y568968D01*
X224084Y569042D01*
X224056Y569125D01*
X224019Y569218D01*
X223973Y569329D01*
X223927Y569440D01*
X223797Y569689D01*
X223714Y569819D01*
X223631Y569948D01*
X223538Y570078D01*
X223427Y570207D01*
X223307Y570327D01*
X223178Y570438D01*
X223168Y570448D01*
X223150Y570466D01*
X223104Y570494D01*
X223048Y570531D01*
X222983Y570577D01*
X222900Y570623D01*
X222799Y570679D01*
X222697Y570734D01*
X222567Y570780D01*
X222438Y570836D01*
X222290Y570882D01*
X222142Y570928D01*
X221976Y570965D01*
X221800Y570993D01*
X221624Y571012D01*
X221430Y571021D01*
X221366D01*
X221292Y571012D01*
X221199Y571002D01*
X221079Y570993D01*
X220940Y570965D01*
X220783Y570938D01*
X220617Y570891D01*
X220432Y570836D01*
X220247Y570771D01*
X220053Y570688D01*
X219858Y570586D01*
X219674Y570466D01*
X219479Y570337D01*
X219304Y570179D01*
X219128Y569995D01*
X219119Y569985D01*
X219091Y569948D01*
X219045Y569884D01*
X218989Y569800D01*
X218925Y569689D01*
X218851Y569551D01*
X218768Y569394D01*
X218694Y569199D01*
X218610Y568987D01*
X218527Y568737D01*
X218453Y568469D01*
X218388Y568173D01*
X218333Y567840D01*
X218287Y567489D01*
X218259Y567101D01*
X218250Y566685D01*
Y566675D01*
Y566657D01*
Y566620D01*
Y566583D01*
Y566518D01*
X218259Y566454D01*
Y566380D01*
X218268Y566287D01*
X218277Y566093D01*
X218296Y565862D01*
X218324Y565612D01*
X218361Y565344D01*
X218407Y565067D01*
X218462Y564780D01*
X218536Y564493D01*
X218619Y564207D01*
X218712Y563939D01*
X218832Y563680D01*
X218962Y563449D01*
X219119Y563236D01*
X219128Y563227D01*
X219156Y563190D01*
X219211Y563144D01*
X219276Y563079D01*
X219359Y562996D01*
X219470Y562912D01*
X219590Y562820D01*
X219729Y562728D01*
X219886Y562626D01*
X220053Y562533D01*
X220238Y562450D01*
X220441Y562367D01*
X220654Y562302D01*
X220885Y562256D01*
X221125Y562219D01*
X221384Y562210D01*
X221486D01*
X221560Y562219D01*
X221643Y562228D01*
X221744Y562247D01*
X221865Y562265D01*
X221994Y562293D01*
X222124Y562321D01*
X222262Y562367D01*
X222410Y562422D01*
X222558Y562487D01*
X222715Y562561D01*
X222863Y562644D01*
X223011Y562746D01*
X223150Y562857D01*
X223159Y562866D01*
X223187Y562885D01*
X223224Y562931D01*
X223270Y562986D01*
X223335Y563051D01*
X223409Y563144D01*
X223483Y563245D01*
X223566Y563365D01*
X223649Y563495D01*
X223742Y563652D01*
X223834Y563819D01*
X223917Y564003D01*
X224000Y564216D01*
X224084Y564429D01*
X224158Y564669D01*
X224222Y564928D01*
X226728Y564133D01*
Y564124D01*
X226719Y564105D01*
X226709Y564077D01*
X226700Y564040D01*
X226682Y563994D01*
X226663Y563929D01*
X226617Y563791D01*
X226552Y563615D01*
X226469Y563412D01*
X226377Y563190D01*
X226266Y562959D01*
X226145Y562709D01*
X226007Y562450D01*
X225850Y562191D01*
X225674Y561932D01*
X225480Y561683D01*
X225276Y561442D01*
X225045Y561220D01*
X224805Y561017D01*
X224786Y561008D01*
X224740Y560971D01*
X224666Y560925D01*
X224564Y560860D01*
X224435Y560786D01*
X224278Y560693D01*
X224093Y560601D01*
X223880Y560508D01*
X223649Y560416D01*
X223390Y560324D01*
X223113Y560240D01*
X222808Y560157D01*
X222493Y560093D01*
X222151Y560046D01*
X221791Y560009D01*
X221412Y560000D01*
X221301D01*
X221236Y560009D01*
X221162D01*
X221079Y560019D01*
X220986Y560028D01*
X220885Y560037D01*
X220774Y560056D01*
X220515Y560093D01*
X220238Y560148D01*
X219932Y560222D01*
X219609Y560305D01*
X219267Y560425D01*
X218925Y560564D01*
X218564Y560730D01*
X218222Y560934D01*
X217871Y561165D01*
X217704Y561294D01*
X217538Y561433D01*
X217381Y561581D01*
X217223Y561738D01*
Y561747D01*
X217205Y561757D01*
X217187Y561784D01*
X217150Y561821D01*
X217113Y561868D01*
X217076Y561923D01*
X217020Y561988D01*
X216965Y562062D01*
X216909Y562145D01*
X216844Y562238D01*
X216780Y562339D01*
X216706Y562450D01*
X216558Y562700D01*
X216410Y562986D01*
X216253Y563310D01*
X216105Y563661D01*
X215966Y564059D01*
X215846Y564484D01*
X215735Y564937D01*
X215661Y565427D01*
X215606Y565945D01*
X215596Y566222D01*
X215587Y566500D01*
Y566509D01*
Y566537D01*
Y566583D01*
Y566638D01*
X215596Y566712D01*
Y566805D01*
X215606Y566907D01*
X215615Y567027D01*
X215624Y567156D01*
X215633Y567295D01*
X215652Y567443D01*
X215670Y567600D01*
X215726Y567942D01*
X215790Y568312D01*
X215883Y568709D01*
X215984Y569116D01*
X216123Y569523D01*
X216280Y569939D01*
X216474Y570346D01*
X216687Y570734D01*
X216946Y571113D01*
X217085Y571289D01*
X217233Y571455D01*
X217242Y571465D01*
X217251Y571474D01*
X217279Y571502D01*
X217307Y571529D01*
X217399Y571622D01*
X217528Y571733D01*
X217695Y571871D01*
X217898Y572019D01*
X218130Y572177D01*
X218388Y572343D01*
X218684Y572509D01*
X219017Y572667D01*
X219368Y572824D01*
X219757Y572953D01*
X220173Y573064D01*
X220607Y573157D01*
X221079Y573212D01*
X221319Y573221D01*
X221569Y573231D01*
X221671D01*
X221726Y573221D01*
D02*
G37*
G36*
X154880Y560222D02*
X152486D01*
X152477Y570290D01*
X149943Y560222D01*
X147456D01*
X144932Y570290D01*
Y560222D01*
X142537D01*
Y573018D01*
X146402D01*
X148714Y564281D01*
X150997Y573018D01*
X154880D01*
Y560222D01*
D02*
G37*
G36*
X234050Y573009D02*
X234208D01*
X234374Y572999D01*
X234559Y572990D01*
X234753Y572972D01*
X234947Y572953D01*
X235354Y572916D01*
X235548Y572888D01*
X235742Y572851D01*
X235918Y572814D01*
X236084Y572768D01*
X236094D01*
X236131Y572750D01*
X236195Y572731D01*
X236269Y572704D01*
X236371Y572667D01*
X236482Y572620D01*
X236611Y572565D01*
X236750Y572500D01*
X236898Y572417D01*
X237055Y572334D01*
X237212Y572232D01*
X237379Y572130D01*
X237536Y572010D01*
X237702Y571881D01*
X237860Y571742D01*
X238017Y571585D01*
X238026Y571576D01*
X238054Y571548D01*
X238091Y571502D01*
X238146Y571437D01*
X238220Y571354D01*
X238294Y571252D01*
X238377Y571141D01*
X238470Y571012D01*
X238571Y570864D01*
X238664Y570706D01*
X238766Y570540D01*
X238867Y570355D01*
X238969Y570161D01*
X239062Y569958D01*
X239154Y569736D01*
X239237Y569514D01*
X239247Y569505D01*
X239256Y569458D01*
X239274Y569394D01*
X239302Y569292D01*
X239339Y569172D01*
X239376Y569033D01*
X239413Y568867D01*
X239450Y568682D01*
X239487Y568469D01*
X239524Y568238D01*
X239561Y567988D01*
X239598Y567720D01*
X239625Y567443D01*
X239644Y567138D01*
X239662Y566823D01*
Y566490D01*
Y566472D01*
Y566417D01*
Y566333D01*
X239653Y566222D01*
Y566093D01*
X239644Y565927D01*
X239625Y565751D01*
X239616Y565557D01*
X239589Y565353D01*
X239570Y565131D01*
X239496Y564678D01*
X239394Y564216D01*
X239339Y563994D01*
X239265Y563772D01*
X239256Y563754D01*
X239247Y563708D01*
X239219Y563633D01*
X239172Y563541D01*
X239126Y563421D01*
X239071Y563282D01*
X238997Y563134D01*
X238914Y562968D01*
X238821Y562792D01*
X238720Y562607D01*
X238608Y562422D01*
X238488Y562228D01*
X238350Y562043D01*
X238211Y561858D01*
X238063Y561674D01*
X237897Y561507D01*
X237887Y561498D01*
X237869Y561479D01*
X237823Y561442D01*
X237776Y561396D01*
X237702Y561341D01*
X237619Y561285D01*
X237527Y561211D01*
X237416Y561137D01*
X237296Y561054D01*
X237157Y560971D01*
X237009Y560888D01*
X236852Y560804D01*
X236676Y560721D01*
X236491Y560638D01*
X236297Y560564D01*
X236084Y560490D01*
X236075D01*
X236047Y560481D01*
X235992Y560462D01*
X235927Y560453D01*
X235844Y560425D01*
X235733Y560407D01*
X235613Y560379D01*
X235474Y560361D01*
X235317Y560333D01*
X235151Y560305D01*
X234956Y560287D01*
X234753Y560268D01*
X234531Y560250D01*
X234300Y560231D01*
X234050Y560222D01*
X228938D01*
Y573018D01*
X233912D01*
X234050Y573009D01*
D02*
G37*
G36*
X213571Y560222D02*
X210992D01*
Y573018D01*
X213571D01*
Y560222D01*
D02*
G37*
G36*
X198843Y573009D02*
X199000D01*
X199176Y572999D01*
X199546Y572990D01*
X199916Y572962D01*
X200101Y572953D01*
X200276Y572935D01*
X200433Y572907D01*
X200581Y572888D01*
X200591D01*
X200618Y572879D01*
X200655Y572870D01*
X200711Y572861D01*
X200776Y572842D01*
X200849Y572824D01*
X200933Y572805D01*
X201034Y572777D01*
X201238Y572704D01*
X201460Y572611D01*
X201691Y572491D01*
X201922Y572352D01*
X201931D01*
X201950Y572334D01*
X201977Y572315D01*
X202024Y572278D01*
X202125Y572195D01*
X202264Y572075D01*
X202421Y571918D01*
X202588Y571733D01*
X202745Y571529D01*
X202902Y571289D01*
X202911Y571280D01*
X202920Y571261D01*
X202939Y571224D01*
X202967Y571169D01*
X202994Y571113D01*
X203031Y571039D01*
X203068Y570947D01*
X203105Y570854D01*
X203142Y570743D01*
X203170Y570632D01*
X203235Y570374D01*
X203281Y570096D01*
X203300Y569948D01*
Y569791D01*
Y569782D01*
Y569754D01*
Y569708D01*
X203290Y569643D01*
X203281Y569560D01*
X203272Y569468D01*
X203263Y569366D01*
X203235Y569246D01*
X203179Y568996D01*
X203096Y568719D01*
X203041Y568580D01*
X202976Y568432D01*
X202893Y568284D01*
X202810Y568145D01*
X202800Y568136D01*
X202791Y568108D01*
X202763Y568071D01*
X202726Y568025D01*
X202671Y567961D01*
X202615Y567887D01*
X202541Y567812D01*
X202467Y567720D01*
X202375Y567637D01*
X202283Y567544D01*
X202061Y567350D01*
X201802Y567175D01*
X201506Y567017D01*
X201515D01*
X201561Y566999D01*
X201617Y566980D01*
X201700Y566953D01*
X201793Y566916D01*
X201903Y566870D01*
X202033Y566814D01*
X202172Y566749D01*
X202310Y566675D01*
X202458Y566592D01*
X202606Y566490D01*
X202754Y566389D01*
X202902Y566278D01*
X203041Y566148D01*
X203179Y566010D01*
X203300Y565862D01*
X203309Y565853D01*
X203327Y565825D01*
X203355Y565779D01*
X203401Y565714D01*
X203447Y565640D01*
X203503Y565547D01*
X203558Y565436D01*
X203614Y565316D01*
X203669Y565177D01*
X203734Y565030D01*
X203780Y564872D01*
X203827Y564697D01*
X203873Y564521D01*
X203901Y564327D01*
X203919Y564133D01*
X203928Y563929D01*
Y563920D01*
Y563892D01*
Y563846D01*
X203919Y563781D01*
Y563698D01*
X203910Y563615D01*
X203891Y563504D01*
X203882Y563393D01*
X203854Y563264D01*
X203827Y563134D01*
X203753Y562848D01*
X203660Y562542D01*
X203595Y562385D01*
X203521Y562228D01*
Y562219D01*
X203503Y562191D01*
X203475Y562145D01*
X203447Y562090D01*
X203410Y562025D01*
X203355Y561942D01*
X203235Y561757D01*
X203068Y561544D01*
X202883Y561322D01*
X202662Y561110D01*
X202412Y560906D01*
X202403Y560897D01*
X202384Y560888D01*
X202338Y560860D01*
X202283Y560832D01*
X202218Y560786D01*
X202135Y560749D01*
X202042Y560693D01*
X201931Y560647D01*
X201811Y560592D01*
X201682Y560546D01*
X201534Y560490D01*
X201386Y560444D01*
X201219Y560398D01*
X201044Y560361D01*
X200674Y560305D01*
X200646D01*
X200600Y560296D01*
X200535D01*
X200452Y560287D01*
X200341Y560277D01*
X200212D01*
X200045Y560268D01*
X199851Y560259D01*
X199629Y560250D01*
X199379D01*
X199093Y560240D01*
X198936D01*
X198769Y560231D01*
X198399D01*
X198205Y560222D01*
X193213D01*
Y573018D01*
X198704D01*
X198843Y573009D01*
D02*
G37*
G36*
X191826Y560222D02*
X189015D01*
X187906Y563125D01*
X182784D01*
X181730Y560222D01*
X178993D01*
X183958Y573018D01*
X186704D01*
X191826Y560222D01*
D02*
G37*
G36*
X172022Y562385D02*
X178447D01*
Y560222D01*
X169442D01*
Y572907D01*
X172022D01*
Y562385D01*
D02*
G37*
G36*
X162166Y573009D02*
X162379D01*
X162610Y572999D01*
X162859Y572990D01*
X163377Y572972D01*
X163636Y572953D01*
X163886Y572935D01*
X164117Y572916D01*
X164329Y572888D01*
X164514Y572861D01*
X164588Y572842D01*
X164662Y572824D01*
X164671D01*
X164708Y572805D01*
X164773Y572787D01*
X164847Y572768D01*
X164940Y572731D01*
X165051Y572685D01*
X165171Y572630D01*
X165309Y572556D01*
X165448Y572482D01*
X165596Y572389D01*
X165744Y572287D01*
X165901Y572177D01*
X166058Y572047D01*
X166215Y571899D01*
X166363Y571742D01*
X166502Y571566D01*
X166511Y571557D01*
X166539Y571520D01*
X166576Y571465D01*
X166622Y571391D01*
X166678Y571298D01*
X166742Y571178D01*
X166807Y571049D01*
X166881Y570891D01*
X166946Y570725D01*
X167011Y570540D01*
X167075Y570337D01*
X167131Y570115D01*
X167186Y569874D01*
X167223Y569625D01*
X167242Y569356D01*
X167251Y569079D01*
Y569070D01*
Y569024D01*
Y568968D01*
X167242Y568885D01*
Y568783D01*
X167232Y568663D01*
X167214Y568534D01*
X167195Y568386D01*
X167177Y568238D01*
X167149Y568071D01*
X167066Y567739D01*
X166964Y567406D01*
X166890Y567248D01*
X166816Y567091D01*
X166807Y567082D01*
X166798Y567054D01*
X166770Y567017D01*
X166742Y566962D01*
X166696Y566897D01*
X166650Y566814D01*
X166521Y566638D01*
X166363Y566435D01*
X166178Y566222D01*
X165966Y566019D01*
X165735Y565834D01*
X165725Y565825D01*
X165707Y565816D01*
X165670Y565788D01*
X165624Y565760D01*
X165559Y565723D01*
X165494Y565677D01*
X165411Y565631D01*
X165319Y565584D01*
X165115Y565483D01*
X164893Y565381D01*
X164653Y565289D01*
X164394Y565224D01*
X164385D01*
X164348Y565215D01*
X164302Y565205D01*
X164218Y565196D01*
X164126Y565187D01*
X164006Y565168D01*
X163876Y565150D01*
X163710Y565141D01*
X163534Y565122D01*
X163340Y565104D01*
X163118Y565085D01*
X162878Y565076D01*
X162619Y565067D01*
X162342Y565057D01*
X162036Y565048D01*
X160039D01*
Y560222D01*
X157460D01*
Y573018D01*
X161972D01*
X162166Y573009D01*
D02*
G37*
G36*
X130398Y386485D02*
X130527D01*
X130693Y386476D01*
X130869Y386457D01*
X131063Y386448D01*
X131267Y386421D01*
X131489Y386402D01*
X131941Y386328D01*
X132404Y386226D01*
X132626Y386171D01*
X132848Y386097D01*
X132866Y386088D01*
X132912Y386078D01*
X132986Y386051D01*
X133079Y386004D01*
X133199Y385958D01*
X133338Y385903D01*
X133486Y385829D01*
X133652Y385746D01*
X133828Y385653D01*
X134013Y385551D01*
X134198Y385440D01*
X134392Y385320D01*
X134577Y385182D01*
X134761Y385043D01*
X134946Y384895D01*
X135113Y384729D01*
X135122Y384719D01*
X135140Y384701D01*
X135177Y384655D01*
X135224Y384608D01*
X135279Y384534D01*
X135335Y384451D01*
X135409Y384359D01*
X135483Y384248D01*
X135566Y384128D01*
X135649Y383989D01*
X135732Y383841D01*
X135815Y383684D01*
X135899Y383508D01*
X135982Y383323D01*
X136056Y383129D01*
X136130Y382916D01*
Y382907D01*
X136139Y382879D01*
X136158Y382824D01*
X136167Y382759D01*
X136194Y382676D01*
X136213Y382565D01*
X136241Y382445D01*
X136259Y382306D01*
X136287Y382149D01*
X136315Y381983D01*
X136333Y381788D01*
X136352Y381585D01*
X136370Y381363D01*
X136389Y381132D01*
X136398Y380882D01*
Y375770D01*
X123602D01*
Y380744D01*
X123611Y380882D01*
Y381040D01*
X123621Y381206D01*
X123630Y381391D01*
X123648Y381585D01*
X123667Y381779D01*
X123704Y382186D01*
X123731Y382380D01*
X123768Y382574D01*
X123805Y382750D01*
X123852Y382916D01*
Y382926D01*
X123870Y382963D01*
X123889Y383027D01*
X123916Y383101D01*
X123953Y383203D01*
X124000Y383314D01*
X124055Y383443D01*
X124120Y383582D01*
X124203Y383730D01*
X124286Y383887D01*
X124388Y384044D01*
X124490Y384211D01*
X124610Y384368D01*
X124739Y384534D01*
X124878Y384692D01*
X125035Y384849D01*
X125044Y384858D01*
X125072Y384886D01*
X125118Y384923D01*
X125183Y384978D01*
X125266Y385052D01*
X125368Y385126D01*
X125479Y385209D01*
X125608Y385302D01*
X125756Y385403D01*
X125913Y385496D01*
X126080Y385598D01*
X126265Y385699D01*
X126459Y385801D01*
X126662Y385894D01*
X126884Y385986D01*
X127106Y386069D01*
X127115Y386078D01*
X127162Y386088D01*
X127226Y386106D01*
X127328Y386134D01*
X127448Y386171D01*
X127587Y386208D01*
X127753Y386245D01*
X127938Y386282D01*
X128151Y386319D01*
X128382Y386356D01*
X128632Y386393D01*
X128900Y386430D01*
X129177Y386457D01*
X129482Y386476D01*
X129797Y386494D01*
X130129D01*
X130148D01*
X130203D01*
X130287D01*
X130398Y386485D01*
D02*
G37*
G36*
Y373578D02*
X130527D01*
X130693Y373569D01*
X130869Y373551D01*
X131063Y373541D01*
X131267Y373514D01*
X131489Y373495D01*
X131941Y373421D01*
X132404Y373319D01*
X132626Y373264D01*
X132848Y373190D01*
X132866Y373181D01*
X132912Y373172D01*
X132986Y373144D01*
X133079Y373098D01*
X133199Y373051D01*
X133338Y372996D01*
X133486Y372922D01*
X133652Y372839D01*
X133828Y372746D01*
X134013Y372645D01*
X134198Y372534D01*
X134392Y372413D01*
X134577Y372275D01*
X134761Y372136D01*
X134946Y371988D01*
X135113Y371822D01*
X135122Y371812D01*
X135140Y371794D01*
X135177Y371748D01*
X135224Y371702D01*
X135279Y371628D01*
X135335Y371544D01*
X135409Y371452D01*
X135483Y371341D01*
X135566Y371221D01*
X135649Y371082D01*
X135732Y370934D01*
X135815Y370777D01*
X135899Y370601D01*
X135982Y370416D01*
X136056Y370222D01*
X136130Y370009D01*
Y370000D01*
X136139Y369972D01*
X136158Y369917D01*
X136167Y369852D01*
X136194Y369769D01*
X136213Y369658D01*
X136241Y369538D01*
X136259Y369399D01*
X136287Y369242D01*
X136315Y369076D01*
X136333Y368882D01*
X136352Y368678D01*
X136370Y368456D01*
X136389Y368225D01*
X136398Y367976D01*
Y362863D01*
X123602D01*
Y367837D01*
X123611Y367976D01*
Y368133D01*
X123621Y368299D01*
X123630Y368484D01*
X123648Y368678D01*
X123667Y368872D01*
X123704Y369279D01*
X123731Y369473D01*
X123768Y369667D01*
X123805Y369843D01*
X123852Y370009D01*
Y370019D01*
X123870Y370056D01*
X123889Y370121D01*
X123916Y370194D01*
X123953Y370296D01*
X124000Y370407D01*
X124055Y370536D01*
X124120Y370675D01*
X124203Y370823D01*
X124286Y370980D01*
X124388Y371138D01*
X124490Y371304D01*
X124610Y371461D01*
X124739Y371628D01*
X124878Y371785D01*
X125035Y371942D01*
X125044Y371951D01*
X125072Y371979D01*
X125118Y372016D01*
X125183Y372071D01*
X125266Y372145D01*
X125368Y372219D01*
X125479Y372302D01*
X125608Y372395D01*
X125756Y372497D01*
X125913Y372589D01*
X126080Y372691D01*
X126265Y372792D01*
X126459Y372894D01*
X126662Y372987D01*
X126884Y373079D01*
X127106Y373162D01*
X127115Y373172D01*
X127162Y373181D01*
X127226Y373199D01*
X127328Y373227D01*
X127448Y373264D01*
X127587Y373301D01*
X127753Y373338D01*
X127938Y373375D01*
X128151Y373412D01*
X128382Y373449D01*
X128632Y373486D01*
X128900Y373523D01*
X129177Y373551D01*
X129482Y373569D01*
X129797Y373588D01*
X130129D01*
X130148D01*
X130203D01*
X130287D01*
X130398Y373578D01*
D02*
G37*
G36*
X136398Y357001D02*
Y354218D01*
X123602Y349651D01*
Y352443D01*
X133069Y355688D01*
X123602Y358813D01*
Y361559D01*
X136398Y357001D01*
D02*
G37*
G36*
X478710Y373532D02*
X478738Y373523D01*
X478775Y373513D01*
X478821Y373495D01*
X478886Y373476D01*
X479025Y373430D01*
X479200Y373366D01*
X479403Y373282D01*
X479625Y373190D01*
X479857Y373079D01*
X480106Y372959D01*
X480365Y372820D01*
X480624Y372663D01*
X480883Y372487D01*
X481133Y372293D01*
X481373Y372090D01*
X481595Y371858D01*
X481798Y371618D01*
X481807Y371600D01*
X481844Y371553D01*
X481891Y371479D01*
X481955Y371378D01*
X482029Y371248D01*
X482122Y371091D01*
X482214Y370906D01*
X482307Y370694D01*
X482399Y370462D01*
X482492Y370204D01*
X482575Y369926D01*
X482658Y369621D01*
X482723Y369307D01*
X482769Y368965D01*
X482806Y368604D01*
X482815Y368225D01*
Y368114D01*
X482806Y368049D01*
Y367975D01*
X482797Y367892D01*
X482787Y367800D01*
X482778Y367698D01*
X482760Y367587D01*
X482723Y367328D01*
X482667Y367051D01*
X482593Y366746D01*
X482510Y366422D01*
X482390Y366080D01*
X482251Y365738D01*
X482085Y365377D01*
X481881Y365035D01*
X481650Y364684D01*
X481521Y364518D01*
X481382Y364351D01*
X481234Y364194D01*
X481077Y364037D01*
X481068D01*
X481059Y364018D01*
X481031Y364000D01*
X480994Y363963D01*
X480948Y363926D01*
X480892Y363889D01*
X480827Y363833D01*
X480753Y363778D01*
X480670Y363722D01*
X480578Y363658D01*
X480476Y363593D01*
X480365Y363519D01*
X480115Y363371D01*
X479829Y363223D01*
X479505Y363066D01*
X479154Y362918D01*
X478756Y362779D01*
X478331Y362659D01*
X477878Y362548D01*
X477388Y362474D01*
X476870Y362419D01*
X476593Y362410D01*
X476315Y362400D01*
X476306D01*
X476278D01*
X476232D01*
X476177D01*
X476103Y362410D01*
X476010D01*
X475909Y362419D01*
X475788Y362428D01*
X475659Y362437D01*
X475520Y362446D01*
X475373Y362465D01*
X475215Y362483D01*
X474873Y362539D01*
X474503Y362604D01*
X474106Y362696D01*
X473699Y362798D01*
X473292Y362937D01*
X472876Y363094D01*
X472469Y363288D01*
X472081Y363500D01*
X471702Y363759D01*
X471526Y363898D01*
X471360Y364046D01*
X471351Y364055D01*
X471341Y364064D01*
X471314Y364092D01*
X471286Y364120D01*
X471193Y364212D01*
X471082Y364342D01*
X470944Y364508D01*
X470796Y364712D01*
X470639Y364943D01*
X470472Y365202D01*
X470306Y365498D01*
X470149Y365830D01*
X469991Y366182D01*
X469862Y366570D01*
X469751Y366986D01*
X469659Y367421D01*
X469603Y367892D01*
X469594Y368133D01*
X469585Y368382D01*
Y368484D01*
X469594Y368539D01*
Y368604D01*
X469603Y368687D01*
Y368770D01*
X469631Y368974D01*
X469659Y369196D01*
X469705Y369455D01*
X469760Y369732D01*
X469834Y370028D01*
X469927Y370342D01*
X470038Y370657D01*
X470176Y370980D01*
X470334Y371295D01*
X470518Y371609D01*
X470731Y371905D01*
X470981Y372191D01*
X470990Y372201D01*
X471018Y372228D01*
X471064Y372275D01*
X471129Y372330D01*
X471212Y372404D01*
X471323Y372487D01*
X471443Y372580D01*
X471582Y372681D01*
X471739Y372783D01*
X471915Y372894D01*
X472109Y373005D01*
X472312Y373116D01*
X472543Y373218D01*
X472784Y373319D01*
X473052Y373421D01*
X473329Y373504D01*
X473939Y370943D01*
X473930D01*
X473893Y370934D01*
X473847Y370915D01*
X473773Y370897D01*
X473690Y370869D01*
X473597Y370832D01*
X473486Y370786D01*
X473375Y370740D01*
X473126Y370610D01*
X472996Y370527D01*
X472867Y370444D01*
X472738Y370351D01*
X472608Y370241D01*
X472488Y370120D01*
X472377Y369991D01*
X472368Y369982D01*
X472349Y369963D01*
X472321Y369917D01*
X472284Y369861D01*
X472238Y369797D01*
X472192Y369714D01*
X472136Y369612D01*
X472081Y369510D01*
X472035Y369381D01*
X471979Y369251D01*
X471933Y369103D01*
X471887Y368955D01*
X471850Y368789D01*
X471822Y368613D01*
X471804Y368438D01*
X471794Y368243D01*
Y368179D01*
X471804Y368105D01*
X471813Y368012D01*
X471822Y367892D01*
X471850Y367753D01*
X471878Y367596D01*
X471924Y367430D01*
X471979Y367245D01*
X472044Y367060D01*
X472127Y366866D01*
X472229Y366672D01*
X472349Y366487D01*
X472479Y366293D01*
X472636Y366117D01*
X472821Y365941D01*
X472830Y365932D01*
X472867Y365904D01*
X472932Y365858D01*
X473015Y365803D01*
X473126Y365738D01*
X473265Y365664D01*
X473422Y365581D01*
X473616Y365507D01*
X473828Y365424D01*
X474078Y365340D01*
X474346Y365266D01*
X474642Y365202D01*
X474975Y365146D01*
X475326Y365100D01*
X475714Y365072D01*
X476131Y365063D01*
X476140D01*
X476158D01*
X476195D01*
X476232D01*
X476297D01*
X476362Y365072D01*
X476436D01*
X476528Y365081D01*
X476722Y365091D01*
X476954Y365109D01*
X477203Y365137D01*
X477471Y365174D01*
X477749Y365220D01*
X478035Y365276D01*
X478322Y365350D01*
X478608Y365433D01*
X478876Y365525D01*
X479135Y365645D01*
X479367Y365775D01*
X479579Y365932D01*
X479588Y365941D01*
X479625Y365969D01*
X479672Y366025D01*
X479736Y366089D01*
X479820Y366172D01*
X479903Y366283D01*
X479995Y366404D01*
X480088Y366542D01*
X480189Y366699D01*
X480282Y366866D01*
X480365Y367051D01*
X480448Y367254D01*
X480513Y367467D01*
X480559Y367698D01*
X480596Y367938D01*
X480606Y368197D01*
Y368299D01*
X480596Y368373D01*
X480587Y368456D01*
X480569Y368558D01*
X480550Y368678D01*
X480522Y368807D01*
X480494Y368937D01*
X480448Y369076D01*
X480393Y369224D01*
X480328Y369371D01*
X480254Y369529D01*
X480171Y369677D01*
X480069Y369824D01*
X479958Y369963D01*
X479949Y369972D01*
X479930Y370000D01*
X479884Y370037D01*
X479829Y370083D01*
X479764Y370148D01*
X479672Y370222D01*
X479570Y370296D01*
X479450Y370379D01*
X479320Y370462D01*
X479163Y370555D01*
X478997Y370647D01*
X478812Y370731D01*
X478599Y370814D01*
X478386Y370897D01*
X478146Y370971D01*
X477887Y371036D01*
X478682Y373541D01*
X478692D01*
X478710Y373532D01*
D02*
G37*
G36*
X482815Y358360D02*
Y356548D01*
X469585Y359719D01*
Y361568D01*
X482815Y358360D01*
D02*
G37*
G36*
X482593Y352563D02*
X474217Y347395D01*
X482593D01*
Y345000D01*
X469797D01*
Y347506D01*
X478368Y352757D01*
X469797D01*
Y355152D01*
X482593D01*
Y352563D01*
D02*
G37*
G36*
X453310Y373532D02*
X453338Y373523D01*
X453375Y373513D01*
X453421Y373495D01*
X453486Y373476D01*
X453624Y373430D01*
X453800Y373366D01*
X454003Y373282D01*
X454225Y373190D01*
X454457Y373079D01*
X454706Y372959D01*
X454965Y372820D01*
X455224Y372663D01*
X455483Y372487D01*
X455732Y372293D01*
X455973Y372090D01*
X456195Y371858D01*
X456398Y371618D01*
X456407Y371600D01*
X456444Y371553D01*
X456491Y371479D01*
X456555Y371378D01*
X456629Y371248D01*
X456722Y371091D01*
X456814Y370906D01*
X456907Y370694D01*
X456999Y370462D01*
X457092Y370204D01*
X457175Y369926D01*
X457258Y369621D01*
X457323Y369307D01*
X457369Y368965D01*
X457406Y368604D01*
X457415Y368225D01*
Y368114D01*
X457406Y368049D01*
Y367975D01*
X457397Y367892D01*
X457387Y367800D01*
X457378Y367698D01*
X457360Y367587D01*
X457323Y367328D01*
X457267Y367051D01*
X457193Y366746D01*
X457110Y366422D01*
X456990Y366080D01*
X456851Y365738D01*
X456685Y365377D01*
X456481Y365035D01*
X456250Y364684D01*
X456121Y364518D01*
X455982Y364351D01*
X455834Y364194D01*
X455677Y364037D01*
X455668D01*
X455658Y364018D01*
X455631Y364000D01*
X455594Y363963D01*
X455548Y363926D01*
X455492Y363889D01*
X455427Y363833D01*
X455353Y363778D01*
X455270Y363722D01*
X455178Y363658D01*
X455076Y363593D01*
X454965Y363519D01*
X454715Y363371D01*
X454429Y363223D01*
X454105Y363066D01*
X453754Y362918D01*
X453356Y362779D01*
X452931Y362659D01*
X452478Y362548D01*
X451988Y362474D01*
X451470Y362419D01*
X451193Y362410D01*
X450915Y362400D01*
X450906D01*
X450878D01*
X450832D01*
X450777D01*
X450703Y362410D01*
X450610D01*
X450509Y362419D01*
X450388Y362428D01*
X450259Y362437D01*
X450120Y362446D01*
X449972Y362465D01*
X449815Y362483D01*
X449473Y362539D01*
X449103Y362604D01*
X448706Y362696D01*
X448299Y362798D01*
X447892Y362937D01*
X447476Y363094D01*
X447069Y363288D01*
X446681Y363500D01*
X446302Y363759D01*
X446126Y363898D01*
X445960Y364046D01*
X445951Y364055D01*
X445941Y364064D01*
X445914Y364092D01*
X445886Y364120D01*
X445793Y364212D01*
X445682Y364342D01*
X445544Y364508D01*
X445396Y364712D01*
X445239Y364943D01*
X445072Y365202D01*
X444906Y365498D01*
X444749Y365830D01*
X444591Y366182D01*
X444462Y366570D01*
X444351Y366986D01*
X444259Y367421D01*
X444203Y367892D01*
X444194Y368133D01*
X444185Y368382D01*
Y368484D01*
X444194Y368539D01*
Y368604D01*
X444203Y368687D01*
Y368770D01*
X444231Y368974D01*
X444259Y369196D01*
X444305Y369455D01*
X444360Y369732D01*
X444434Y370028D01*
X444527Y370342D01*
X444638Y370657D01*
X444776Y370980D01*
X444934Y371295D01*
X445118Y371609D01*
X445331Y371905D01*
X445581Y372191D01*
X445590Y372201D01*
X445618Y372228D01*
X445664Y372275D01*
X445729Y372330D01*
X445812Y372404D01*
X445923Y372487D01*
X446043Y372580D01*
X446182Y372681D01*
X446339Y372783D01*
X446515Y372894D01*
X446709Y373005D01*
X446912Y373116D01*
X447143Y373218D01*
X447384Y373319D01*
X447652Y373421D01*
X447929Y373504D01*
X448539Y370943D01*
X448530D01*
X448493Y370934D01*
X448447Y370915D01*
X448373Y370897D01*
X448290Y370869D01*
X448197Y370832D01*
X448086Y370786D01*
X447975Y370740D01*
X447726Y370610D01*
X447596Y370527D01*
X447467Y370444D01*
X447337Y370351D01*
X447208Y370241D01*
X447088Y370120D01*
X446977Y369991D01*
X446968Y369982D01*
X446949Y369963D01*
X446921Y369917D01*
X446884Y369861D01*
X446838Y369797D01*
X446792Y369714D01*
X446736Y369612D01*
X446681Y369510D01*
X446635Y369381D01*
X446579Y369251D01*
X446533Y369103D01*
X446487Y368955D01*
X446450Y368789D01*
X446422Y368613D01*
X446404Y368438D01*
X446394Y368243D01*
Y368179D01*
X446404Y368105D01*
X446413Y368012D01*
X446422Y367892D01*
X446450Y367753D01*
X446478Y367596D01*
X446524Y367430D01*
X446579Y367245D01*
X446644Y367060D01*
X446727Y366866D01*
X446829Y366672D01*
X446949Y366487D01*
X447079Y366293D01*
X447236Y366117D01*
X447421Y365941D01*
X447430Y365932D01*
X447467Y365904D01*
X447532Y365858D01*
X447615Y365803D01*
X447726Y365738D01*
X447864Y365664D01*
X448022Y365581D01*
X448216Y365507D01*
X448428Y365424D01*
X448678Y365340D01*
X448946Y365266D01*
X449242Y365202D01*
X449575Y365146D01*
X449926Y365100D01*
X450314Y365072D01*
X450731Y365063D01*
X450740D01*
X450758D01*
X450795D01*
X450832D01*
X450897D01*
X450962Y365072D01*
X451036D01*
X451128Y365081D01*
X451322Y365091D01*
X451553Y365109D01*
X451803Y365137D01*
X452071Y365174D01*
X452349Y365220D01*
X452635Y365276D01*
X452922Y365350D01*
X453208Y365433D01*
X453476Y365525D01*
X453735Y365645D01*
X453967Y365775D01*
X454179Y365932D01*
X454188Y365941D01*
X454225Y365969D01*
X454272Y366025D01*
X454336Y366089D01*
X454420Y366172D01*
X454503Y366283D01*
X454595Y366404D01*
X454688Y366542D01*
X454789Y366699D01*
X454882Y366866D01*
X454965Y367051D01*
X455048Y367254D01*
X455113Y367467D01*
X455159Y367698D01*
X455196Y367938D01*
X455205Y368197D01*
Y368299D01*
X455196Y368373D01*
X455187Y368456D01*
X455168Y368558D01*
X455150Y368678D01*
X455122Y368807D01*
X455094Y368937D01*
X455048Y369076D01*
X454993Y369224D01*
X454928Y369371D01*
X454854Y369529D01*
X454771Y369677D01*
X454669Y369824D01*
X454558Y369963D01*
X454549Y369972D01*
X454530Y370000D01*
X454484Y370037D01*
X454429Y370083D01*
X454364Y370148D01*
X454272Y370222D01*
X454170Y370296D01*
X454050Y370379D01*
X453920Y370462D01*
X453763Y370555D01*
X453597Y370647D01*
X453412Y370731D01*
X453199Y370814D01*
X452986Y370897D01*
X452746Y370971D01*
X452487Y371036D01*
X453282Y373541D01*
X453292D01*
X453310Y373532D01*
D02*
G37*
G36*
X457415Y358360D02*
Y356548D01*
X444185Y359719D01*
Y361568D01*
X457415Y358360D01*
D02*
G37*
G36*
X457193Y352563D02*
X448817Y347395D01*
X457193D01*
Y345000D01*
X444397D01*
Y347506D01*
X452968Y352757D01*
X444397D01*
Y355152D01*
X457193D01*
Y352563D01*
D02*
G37*
G36*
X427910Y373532D02*
X427938Y373523D01*
X427975Y373513D01*
X428021Y373495D01*
X428086Y373476D01*
X428224Y373430D01*
X428400Y373366D01*
X428604Y373282D01*
X428825Y373190D01*
X429057Y373079D01*
X429306Y372959D01*
X429565Y372820D01*
X429824Y372663D01*
X430083Y372487D01*
X430332Y372293D01*
X430573Y372090D01*
X430795Y371858D01*
X430998Y371618D01*
X431007Y371600D01*
X431044Y371553D01*
X431091Y371479D01*
X431155Y371378D01*
X431229Y371248D01*
X431322Y371091D01*
X431414Y370906D01*
X431507Y370694D01*
X431599Y370462D01*
X431692Y370204D01*
X431775Y369926D01*
X431858Y369621D01*
X431923Y369307D01*
X431969Y368965D01*
X432006Y368604D01*
X432015Y368225D01*
Y368114D01*
X432006Y368049D01*
Y367975D01*
X431997Y367892D01*
X431987Y367800D01*
X431978Y367698D01*
X431960Y367587D01*
X431923Y367328D01*
X431867Y367051D01*
X431793Y366746D01*
X431710Y366422D01*
X431590Y366080D01*
X431451Y365738D01*
X431285Y365377D01*
X431081Y365035D01*
X430850Y364684D01*
X430721Y364518D01*
X430582Y364351D01*
X430434Y364194D01*
X430277Y364037D01*
X430268D01*
X430258Y364018D01*
X430231Y364000D01*
X430194Y363963D01*
X430148Y363926D01*
X430092Y363889D01*
X430027Y363833D01*
X429953Y363778D01*
X429870Y363722D01*
X429778Y363658D01*
X429676Y363593D01*
X429565Y363519D01*
X429315Y363371D01*
X429029Y363223D01*
X428705Y363066D01*
X428354Y362918D01*
X427956Y362779D01*
X427531Y362659D01*
X427078Y362548D01*
X426588Y362474D01*
X426070Y362419D01*
X425793Y362410D01*
X425516Y362400D01*
X425506D01*
X425479D01*
X425432D01*
X425377D01*
X425303Y362410D01*
X425210D01*
X425109Y362419D01*
X424989Y362428D01*
X424859Y362437D01*
X424720Y362446D01*
X424572Y362465D01*
X424415Y362483D01*
X424073Y362539D01*
X423703Y362604D01*
X423306Y362696D01*
X422899Y362798D01*
X422492Y362937D01*
X422076Y363094D01*
X421669Y363288D01*
X421281Y363500D01*
X420902Y363759D01*
X420726Y363898D01*
X420560Y364046D01*
X420551Y364055D01*
X420541Y364064D01*
X420514Y364092D01*
X420486Y364120D01*
X420393Y364212D01*
X420283Y364342D01*
X420144Y364508D01*
X419996Y364712D01*
X419839Y364943D01*
X419672Y365202D01*
X419506Y365498D01*
X419349Y365830D01*
X419192Y366182D01*
X419062Y366570D01*
X418951Y366986D01*
X418859Y367421D01*
X418803Y367892D01*
X418794Y368133D01*
X418785Y368382D01*
Y368484D01*
X418794Y368539D01*
Y368604D01*
X418803Y368687D01*
Y368770D01*
X418831Y368974D01*
X418859Y369196D01*
X418905Y369455D01*
X418960Y369732D01*
X419034Y370028D01*
X419127Y370342D01*
X419238Y370657D01*
X419376Y370980D01*
X419534Y371295D01*
X419719Y371609D01*
X419931Y371905D01*
X420181Y372191D01*
X420190Y372201D01*
X420218Y372228D01*
X420264Y372275D01*
X420329Y372330D01*
X420412Y372404D01*
X420523Y372487D01*
X420643Y372580D01*
X420782Y372681D01*
X420939Y372783D01*
X421115Y372894D01*
X421309Y373005D01*
X421512Y373116D01*
X421743Y373218D01*
X421984Y373319D01*
X422252Y373421D01*
X422529Y373504D01*
X423139Y370943D01*
X423130D01*
X423093Y370934D01*
X423047Y370915D01*
X422973Y370897D01*
X422890Y370869D01*
X422797Y370832D01*
X422686Y370786D01*
X422575Y370740D01*
X422326Y370610D01*
X422196Y370527D01*
X422067Y370444D01*
X421937Y370351D01*
X421808Y370241D01*
X421688Y370120D01*
X421577Y369991D01*
X421568Y369982D01*
X421549Y369963D01*
X421521Y369917D01*
X421484Y369861D01*
X421438Y369797D01*
X421392Y369714D01*
X421337Y369612D01*
X421281Y369510D01*
X421235Y369381D01*
X421179Y369251D01*
X421133Y369103D01*
X421087Y368955D01*
X421050Y368789D01*
X421022Y368613D01*
X421004Y368438D01*
X420994Y368243D01*
Y368179D01*
X421004Y368105D01*
X421013Y368012D01*
X421022Y367892D01*
X421050Y367753D01*
X421078Y367596D01*
X421124Y367430D01*
X421179Y367245D01*
X421244Y367060D01*
X421327Y366866D01*
X421429Y366672D01*
X421549Y366487D01*
X421679Y366293D01*
X421836Y366117D01*
X422021Y365941D01*
X422030Y365932D01*
X422067Y365904D01*
X422132Y365858D01*
X422215Y365803D01*
X422326Y365738D01*
X422464Y365664D01*
X422622Y365581D01*
X422816Y365507D01*
X423028Y365424D01*
X423278Y365340D01*
X423546Y365266D01*
X423842Y365202D01*
X424175Y365146D01*
X424526Y365100D01*
X424915Y365072D01*
X425331Y365063D01*
X425340D01*
X425358D01*
X425395D01*
X425432D01*
X425497D01*
X425562Y365072D01*
X425636D01*
X425728Y365081D01*
X425922Y365091D01*
X426153Y365109D01*
X426403Y365137D01*
X426671Y365174D01*
X426949Y365220D01*
X427235Y365276D01*
X427522Y365350D01*
X427808Y365433D01*
X428077Y365525D01*
X428335Y365645D01*
X428567Y365775D01*
X428779Y365932D01*
X428788Y365941D01*
X428825Y365969D01*
X428872Y366025D01*
X428936Y366089D01*
X429020Y366172D01*
X429103Y366283D01*
X429195Y366404D01*
X429288Y366542D01*
X429389Y366699D01*
X429482Y366866D01*
X429565Y367051D01*
X429648Y367254D01*
X429713Y367467D01*
X429759Y367698D01*
X429796Y367938D01*
X429805Y368197D01*
Y368299D01*
X429796Y368373D01*
X429787Y368456D01*
X429768Y368558D01*
X429750Y368678D01*
X429722Y368807D01*
X429695Y368937D01*
X429648Y369076D01*
X429593Y369224D01*
X429528Y369371D01*
X429454Y369529D01*
X429371Y369677D01*
X429269Y369824D01*
X429158Y369963D01*
X429149Y369972D01*
X429131Y370000D01*
X429084Y370037D01*
X429029Y370083D01*
X428964Y370148D01*
X428872Y370222D01*
X428770Y370296D01*
X428650Y370379D01*
X428520Y370462D01*
X428363Y370555D01*
X428197Y370647D01*
X428012Y370731D01*
X427799Y370814D01*
X427587Y370897D01*
X427346Y370971D01*
X427087Y371036D01*
X427882Y373541D01*
X427892D01*
X427910Y373532D01*
D02*
G37*
G36*
X432015Y358360D02*
Y356548D01*
X418785Y359719D01*
Y361568D01*
X432015Y358360D01*
D02*
G37*
G36*
X431793Y352563D02*
X423417Y347395D01*
X431793D01*
Y345000D01*
X418997D01*
Y347506D01*
X427568Y352757D01*
X418997D01*
Y355152D01*
X431793D01*
Y352563D01*
D02*
G37*
G36*
X377110Y373532D02*
X377138Y373523D01*
X377175Y373513D01*
X377221Y373495D01*
X377286Y373476D01*
X377425Y373430D01*
X377600Y373366D01*
X377803Y373282D01*
X378025Y373190D01*
X378257Y373079D01*
X378506Y372959D01*
X378765Y372820D01*
X379024Y372663D01*
X379283Y372487D01*
X379533Y372293D01*
X379773Y372090D01*
X379995Y371858D01*
X380198Y371618D01*
X380207Y371600D01*
X380244Y371553D01*
X380291Y371479D01*
X380355Y371378D01*
X380429Y371248D01*
X380522Y371091D01*
X380614Y370906D01*
X380707Y370694D01*
X380799Y370462D01*
X380892Y370204D01*
X380975Y369926D01*
X381058Y369621D01*
X381123Y369307D01*
X381169Y368965D01*
X381206Y368604D01*
X381215Y368225D01*
Y368114D01*
X381206Y368049D01*
Y367975D01*
X381197Y367892D01*
X381187Y367800D01*
X381178Y367698D01*
X381160Y367587D01*
X381123Y367328D01*
X381067Y367051D01*
X380993Y366746D01*
X380910Y366422D01*
X380790Y366080D01*
X380651Y365738D01*
X380485Y365377D01*
X380281Y365035D01*
X380050Y364684D01*
X379921Y364518D01*
X379782Y364351D01*
X379634Y364194D01*
X379477Y364037D01*
X379468D01*
X379459Y364018D01*
X379431Y364000D01*
X379394Y363963D01*
X379348Y363926D01*
X379292Y363889D01*
X379227Y363833D01*
X379153Y363778D01*
X379070Y363722D01*
X378978Y363658D01*
X378876Y363593D01*
X378765Y363519D01*
X378515Y363371D01*
X378229Y363223D01*
X377905Y363066D01*
X377554Y362918D01*
X377156Y362779D01*
X376731Y362659D01*
X376278Y362548D01*
X375788Y362474D01*
X375270Y362419D01*
X374993Y362410D01*
X374715Y362400D01*
X374706D01*
X374678D01*
X374632D01*
X374577D01*
X374503Y362410D01*
X374410D01*
X374309Y362419D01*
X374188Y362428D01*
X374059Y362437D01*
X373920Y362446D01*
X373773Y362465D01*
X373615Y362483D01*
X373273Y362539D01*
X372903Y362604D01*
X372506Y362696D01*
X372099Y362798D01*
X371692Y362937D01*
X371276Y363094D01*
X370869Y363288D01*
X370481Y363500D01*
X370102Y363759D01*
X369926Y363898D01*
X369760Y364046D01*
X369751Y364055D01*
X369741Y364064D01*
X369714Y364092D01*
X369686Y364120D01*
X369593Y364212D01*
X369482Y364342D01*
X369344Y364508D01*
X369196Y364712D01*
X369039Y364943D01*
X368872Y365202D01*
X368706Y365498D01*
X368549Y365830D01*
X368391Y366182D01*
X368262Y366570D01*
X368151Y366986D01*
X368059Y367421D01*
X368003Y367892D01*
X367994Y368133D01*
X367985Y368382D01*
Y368484D01*
X367994Y368539D01*
Y368604D01*
X368003Y368687D01*
Y368770D01*
X368031Y368974D01*
X368059Y369196D01*
X368105Y369455D01*
X368160Y369732D01*
X368234Y370028D01*
X368327Y370342D01*
X368438Y370657D01*
X368576Y370980D01*
X368734Y371295D01*
X368918Y371609D01*
X369131Y371905D01*
X369381Y372191D01*
X369390Y372201D01*
X369418Y372228D01*
X369464Y372275D01*
X369529Y372330D01*
X369612Y372404D01*
X369723Y372487D01*
X369843Y372580D01*
X369982Y372681D01*
X370139Y372783D01*
X370315Y372894D01*
X370509Y373005D01*
X370712Y373116D01*
X370943Y373218D01*
X371184Y373319D01*
X371452Y373421D01*
X371729Y373504D01*
X372339Y370943D01*
X372330D01*
X372293Y370934D01*
X372247Y370915D01*
X372173Y370897D01*
X372090Y370869D01*
X371997Y370832D01*
X371886Y370786D01*
X371775Y370740D01*
X371526Y370610D01*
X371396Y370527D01*
X371267Y370444D01*
X371138Y370351D01*
X371008Y370241D01*
X370888Y370120D01*
X370777Y369991D01*
X370768Y369982D01*
X370749Y369963D01*
X370721Y369917D01*
X370684Y369861D01*
X370638Y369797D01*
X370592Y369714D01*
X370536Y369612D01*
X370481Y369510D01*
X370435Y369381D01*
X370379Y369251D01*
X370333Y369103D01*
X370287Y368955D01*
X370250Y368789D01*
X370222Y368613D01*
X370204Y368438D01*
X370194Y368243D01*
Y368179D01*
X370204Y368105D01*
X370213Y368012D01*
X370222Y367892D01*
X370250Y367753D01*
X370278Y367596D01*
X370324Y367430D01*
X370379Y367245D01*
X370444Y367060D01*
X370527Y366866D01*
X370629Y366672D01*
X370749Y366487D01*
X370879Y366293D01*
X371036Y366117D01*
X371221Y365941D01*
X371230Y365932D01*
X371267Y365904D01*
X371332Y365858D01*
X371415Y365803D01*
X371526Y365738D01*
X371665Y365664D01*
X371822Y365581D01*
X372016Y365507D01*
X372228Y365424D01*
X372478Y365340D01*
X372746Y365266D01*
X373042Y365202D01*
X373375Y365146D01*
X373726Y365100D01*
X374114Y365072D01*
X374531Y365063D01*
X374540D01*
X374558D01*
X374595D01*
X374632D01*
X374697D01*
X374762Y365072D01*
X374836D01*
X374928Y365081D01*
X375122Y365091D01*
X375354Y365109D01*
X375603Y365137D01*
X375871Y365174D01*
X376149Y365220D01*
X376435Y365276D01*
X376722Y365350D01*
X377008Y365433D01*
X377276Y365525D01*
X377535Y365645D01*
X377767Y365775D01*
X377979Y365932D01*
X377988Y365941D01*
X378025Y365969D01*
X378072Y366025D01*
X378136Y366089D01*
X378220Y366172D01*
X378303Y366283D01*
X378395Y366404D01*
X378488Y366542D01*
X378589Y366699D01*
X378682Y366866D01*
X378765Y367051D01*
X378848Y367254D01*
X378913Y367467D01*
X378959Y367698D01*
X378996Y367938D01*
X379006Y368197D01*
Y368299D01*
X378996Y368373D01*
X378987Y368456D01*
X378969Y368558D01*
X378950Y368678D01*
X378922Y368807D01*
X378895Y368937D01*
X378848Y369076D01*
X378793Y369224D01*
X378728Y369371D01*
X378654Y369529D01*
X378571Y369677D01*
X378469Y369824D01*
X378358Y369963D01*
X378349Y369972D01*
X378330Y370000D01*
X378284Y370037D01*
X378229Y370083D01*
X378164Y370148D01*
X378072Y370222D01*
X377970Y370296D01*
X377850Y370379D01*
X377720Y370462D01*
X377563Y370555D01*
X377397Y370647D01*
X377212Y370731D01*
X376999Y370814D01*
X376786Y370897D01*
X376546Y370971D01*
X376287Y371036D01*
X377082Y373541D01*
X377092D01*
X377110Y373532D01*
D02*
G37*
G36*
X381215Y358360D02*
Y356548D01*
X367985Y359719D01*
Y361568D01*
X381215Y358360D01*
D02*
G37*
G36*
X380993Y352563D02*
X372617Y347395D01*
X380993D01*
Y345000D01*
X368197D01*
Y347506D01*
X376768Y352757D01*
X368197D01*
Y355152D01*
X380993D01*
Y352563D01*
D02*
G37*
G36*
X501993Y382962D02*
X502122D01*
X502289Y382953D01*
X502464Y382935D01*
X502659Y382925D01*
X502862Y382898D01*
X503084Y382879D01*
X503537Y382805D01*
X503999Y382704D01*
X504221Y382648D01*
X504443Y382574D01*
X504461Y382565D01*
X504508Y382556D01*
X504582Y382528D01*
X504674Y382482D01*
X504794Y382435D01*
X504933Y382380D01*
X505081Y382306D01*
X505247Y382223D01*
X505423Y382130D01*
X505608Y382029D01*
X505793Y381918D01*
X505987Y381797D01*
X506172Y381659D01*
X506357Y381520D01*
X506542Y381372D01*
X506708Y381206D01*
X506717Y381197D01*
X506736Y381178D01*
X506773Y381132D01*
X506819Y381086D01*
X506875Y381012D01*
X506930Y380928D01*
X507004Y380836D01*
X507078Y380725D01*
X507161Y380605D01*
X507244Y380466D01*
X507328Y380318D01*
X507411Y380161D01*
X507494Y379985D01*
X507577Y379800D01*
X507651Y379606D01*
X507725Y379394D01*
Y379384D01*
X507734Y379357D01*
X507753Y379301D01*
X507762Y379236D01*
X507790Y379153D01*
X507808Y379042D01*
X507836Y378922D01*
X507855Y378783D01*
X507882Y378626D01*
X507910Y378460D01*
X507929Y378266D01*
X507947Y378062D01*
X507966Y377840D01*
X507984Y377609D01*
X507993Y377360D01*
Y372247D01*
X495197D01*
Y377221D01*
X495207Y377360D01*
Y377517D01*
X495216Y377683D01*
X495225Y377868D01*
X495244Y378062D01*
X495262Y378256D01*
X495299Y378663D01*
X495327Y378857D01*
X495364Y379052D01*
X495401Y379227D01*
X495447Y379394D01*
Y379403D01*
X495466Y379440D01*
X495484Y379505D01*
X495512Y379579D01*
X495549Y379680D01*
X495595Y379791D01*
X495650Y379921D01*
X495715Y380059D01*
X495798Y380207D01*
X495882Y380364D01*
X495983Y380522D01*
X496085Y380688D01*
X496205Y380845D01*
X496335Y381012D01*
X496473Y381169D01*
X496630Y381326D01*
X496640Y381335D01*
X496667Y381363D01*
X496714Y381400D01*
X496778Y381455D01*
X496862Y381529D01*
X496963Y381603D01*
X497074Y381687D01*
X497204Y381779D01*
X497352Y381881D01*
X497509Y381973D01*
X497675Y382075D01*
X497860Y382177D01*
X498054Y382278D01*
X498258Y382371D01*
X498479Y382463D01*
X498701Y382546D01*
X498711Y382556D01*
X498757Y382565D01*
X498822Y382583D01*
X498923Y382611D01*
X499044Y382648D01*
X499182Y382685D01*
X499349Y382722D01*
X499534Y382759D01*
X499746Y382796D01*
X499977Y382833D01*
X500227Y382870D01*
X500495Y382907D01*
X500773Y382935D01*
X501078Y382953D01*
X501392Y382972D01*
X501725D01*
X501743D01*
X501799D01*
X501882D01*
X501993Y382962D01*
D02*
G37*
G36*
X507993Y366931D02*
X499617Y361762D01*
X507993D01*
Y359368D01*
X495197D01*
Y361873D01*
X503768Y367125D01*
X495197D01*
Y369519D01*
X507993D01*
Y366931D01*
D02*
G37*
G36*
X506246Y356955D02*
X506274Y356927D01*
X506311Y356881D01*
X506366Y356816D01*
X506440Y356733D01*
X506514Y356622D01*
X506606Y356502D01*
X506708Y356363D01*
X506810Y356206D01*
X506921Y356030D01*
X507032Y355836D01*
X507152Y355623D01*
X507272Y355401D01*
X507392Y355152D01*
X507513Y354883D01*
X507623Y354606D01*
X507633Y354588D01*
X507651Y354542D01*
X507679Y354458D01*
X507716Y354338D01*
X507762Y354199D01*
X507808Y354033D01*
X507864Y353848D01*
X507919Y353645D01*
X507975Y353414D01*
X508030Y353173D01*
X508077Y352914D01*
X508123Y352646D01*
X508160Y352369D01*
X508187Y352082D01*
X508206Y351786D01*
X508215Y351490D01*
Y351352D01*
X508206Y351296D01*
Y351158D01*
X508187Y350982D01*
X508169Y350779D01*
X508141Y350547D01*
X508114Y350298D01*
X508067Y350030D01*
X508012Y349752D01*
X507938Y349466D01*
X507864Y349170D01*
X507762Y348865D01*
X507651Y348569D01*
X507522Y348273D01*
X507374Y347986D01*
X507365Y347968D01*
X507337Y347922D01*
X507281Y347848D01*
X507217Y347746D01*
X507133Y347617D01*
X507023Y347478D01*
X506902Y347321D01*
X506754Y347145D01*
X506597Y346969D01*
X506422Y346784D01*
X506218Y346600D01*
X506006Y346415D01*
X505774Y346230D01*
X505525Y346063D01*
X505257Y345897D01*
X504970Y345749D01*
X504952Y345740D01*
X504896Y345721D01*
X504813Y345684D01*
X504693Y345629D01*
X504545Y345573D01*
X504378Y345508D01*
X504175Y345444D01*
X503953Y345379D01*
X503713Y345305D01*
X503444Y345240D01*
X503167Y345176D01*
X502871Y345120D01*
X502557Y345074D01*
X502233Y345037D01*
X501900Y345009D01*
X501558Y345000D01*
X501549D01*
X501540D01*
X501503D01*
X501466D01*
X501420D01*
X501364Y345009D01*
X501226D01*
X501050Y345028D01*
X500846Y345046D01*
X500615Y345074D01*
X500366Y345102D01*
X500098Y345148D01*
X499811Y345203D01*
X499515Y345268D01*
X499219Y345351D01*
X498914Y345444D01*
X498609Y345555D01*
X498304Y345684D01*
X498008Y345832D01*
X497990Y345841D01*
X497943Y345869D01*
X497860Y345925D01*
X497749Y345989D01*
X497620Y346073D01*
X497472Y346183D01*
X497305Y346313D01*
X497130Y346452D01*
X496936Y346618D01*
X496741Y346803D01*
X496547Y346997D01*
X496344Y347219D01*
X496150Y347459D01*
X495965Y347718D01*
X495789Y347986D01*
X495623Y348282D01*
X495613Y348301D01*
X495595Y348338D01*
X495567Y348412D01*
X495521Y348504D01*
X495475Y348624D01*
X495419Y348772D01*
X495364Y348939D01*
X495299Y349123D01*
X495244Y349336D01*
X495188Y349577D01*
X495133Y349826D01*
X495086Y350094D01*
X495040Y350381D01*
X495012Y350695D01*
X494994Y351019D01*
X494985Y351352D01*
Y351509D01*
X494994Y351583D01*
Y351657D01*
X495003Y351740D01*
X495012Y351943D01*
X495040Y352175D01*
X495068Y352434D01*
X495114Y352711D01*
X495160Y352997D01*
X495234Y353302D01*
X495308Y353617D01*
X495410Y353922D01*
X495521Y354227D01*
X495660Y354523D01*
X495817Y354810D01*
X495993Y355069D01*
X496002Y355087D01*
X496039Y355124D01*
X496094Y355198D01*
X496177Y355281D01*
X496279Y355392D01*
X496399Y355512D01*
X496547Y355651D01*
X496714Y355790D01*
X496898Y355938D01*
X497102Y356076D01*
X497333Y356224D01*
X497574Y356363D01*
X497842Y356492D01*
X498128Y356613D01*
X498424Y356714D01*
X498748Y356797D01*
X499228Y354236D01*
X499219D01*
X499192Y354227D01*
X499136Y354209D01*
X499071Y354181D01*
X498997Y354153D01*
X498905Y354107D01*
X498803Y354061D01*
X498692Y354005D01*
X498581Y353941D01*
X498461Y353867D01*
X498332Y353783D01*
X498211Y353691D01*
X498091Y353580D01*
X497971Y353469D01*
X497851Y353349D01*
X497749Y353210D01*
X497740Y353201D01*
X497721Y353173D01*
X497694Y353136D01*
X497666Y353081D01*
X497620Y353007D01*
X497574Y352914D01*
X497527Y352812D01*
X497472Y352702D01*
X497416Y352572D01*
X497370Y352434D01*
X497324Y352276D01*
X497278Y352110D01*
X497250Y351943D01*
X497222Y351749D01*
X497204Y351555D01*
X497194Y351352D01*
Y351278D01*
X497204Y351185D01*
X497213Y351074D01*
X497231Y350926D01*
X497250Y350760D01*
X497287Y350584D01*
X497333Y350381D01*
X497389Y350168D01*
X497463Y349956D01*
X497546Y349725D01*
X497647Y349503D01*
X497777Y349281D01*
X497916Y349068D01*
X498082Y348855D01*
X498276Y348661D01*
X498285Y348652D01*
X498322Y348615D01*
X498387Y348569D01*
X498479Y348504D01*
X498591Y348430D01*
X498729Y348347D01*
X498886Y348254D01*
X499071Y348162D01*
X499284Y348069D01*
X499524Y347977D01*
X499783Y347894D01*
X500070Y347820D01*
X500384Y347755D01*
X500717Y347709D01*
X501078Y347672D01*
X501457Y347663D01*
X501466D01*
X501484D01*
X501512D01*
X501558D01*
X501614D01*
X501669Y347672D01*
X501743D01*
X501827Y347681D01*
X502021Y347691D01*
X502233Y347718D01*
X502474Y347746D01*
X502733Y347792D01*
X503010Y347838D01*
X503287Y347912D01*
X503574Y347986D01*
X503851Y348088D01*
X504129Y348199D01*
X504397Y348338D01*
X504646Y348495D01*
X504868Y348671D01*
X504878Y348680D01*
X504915Y348717D01*
X504970Y348772D01*
X505044Y348855D01*
X505127Y348957D01*
X505229Y349077D01*
X505331Y349225D01*
X505432Y349382D01*
X505543Y349567D01*
X505645Y349762D01*
X505737Y349983D01*
X505830Y350224D01*
X505904Y350473D01*
X505959Y350742D01*
X505996Y351028D01*
X506006Y351324D01*
Y351407D01*
X505996Y351463D01*
Y351537D01*
X505987Y351629D01*
X505978Y351721D01*
X505969Y351833D01*
X505950Y351953D01*
X505932Y352082D01*
X505876Y352350D01*
X505793Y352646D01*
X505691Y352951D01*
Y352961D01*
X505673Y352988D01*
X505663Y353034D01*
X505636Y353090D01*
X505608Y353155D01*
X505571Y353238D01*
X505525Y353330D01*
X505479Y353432D01*
X505368Y353654D01*
X505238Y353885D01*
X505090Y354125D01*
X504924Y354356D01*
X503297D01*
Y351398D01*
X501133D01*
Y356964D01*
X506237D01*
X506246Y356955D01*
D02*
G37*
G36*
X403971Y398153D02*
X404128Y398144D01*
X404304D01*
X404489Y398125D01*
X404683Y398116D01*
X404886Y398097D01*
X405293Y398042D01*
X405487Y398014D01*
X405672Y397977D01*
X405857Y397931D01*
X406014Y397885D01*
X406023D01*
X406051Y397876D01*
X406088Y397857D01*
X406144Y397839D01*
X406218Y397811D01*
X406292Y397774D01*
X406477Y397691D01*
X406680Y397580D01*
X406893Y397450D01*
X407105Y397302D01*
X407290Y397127D01*
X407299Y397117D01*
X407309Y397108D01*
X407336Y397080D01*
X407364Y397034D01*
X407401Y396988D01*
X407447Y396932D01*
X407503Y396859D01*
X407549Y396775D01*
X407614Y396692D01*
X407669Y396590D01*
X407789Y396368D01*
X407910Y396110D01*
X408011Y395814D01*
Y395805D01*
X408021Y395777D01*
X408039Y395731D01*
X408048Y395666D01*
X408076Y395592D01*
X408094Y395490D01*
X408122Y395379D01*
X408141Y395250D01*
X408168Y395111D01*
X408196Y394954D01*
X408215Y394788D01*
X408233Y394603D01*
X408252Y394408D01*
X408270Y394196D01*
X408279Y393983D01*
Y393595D01*
X408270Y393530D01*
Y393373D01*
X408252Y393179D01*
X408233Y392957D01*
X408215Y392707D01*
X408178Y392448D01*
X408131Y392180D01*
X408076Y391903D01*
X408011Y391616D01*
X407937Y391348D01*
X407845Y391080D01*
X407734Y390830D01*
X407604Y390608D01*
X407466Y390405D01*
X407457Y390396D01*
X407429Y390359D01*
X407383Y390313D01*
X407318Y390248D01*
X407235Y390174D01*
X407142Y390091D01*
X407031Y390008D01*
X406902Y389915D01*
X406763Y389823D01*
X406606Y389739D01*
X406440Y389656D01*
X406255Y389582D01*
X406060Y389518D01*
X405857Y389471D01*
X405644Y389434D01*
X405413Y389425D01*
X405404D01*
X405386D01*
X405367D01*
X405330D01*
X405238D01*
X405117Y389434D01*
X405460Y392236D01*
X405469D01*
X405478D01*
X405543Y392254D01*
X405626Y392273D01*
X405728Y392300D01*
X405839Y392347D01*
X405950Y392402D01*
X406051Y392467D01*
X406134Y392559D01*
X406144Y392578D01*
X406171Y392624D01*
X406218Y392707D01*
X406264Y392827D01*
X406319Y392975D01*
X406338Y393068D01*
X406356Y393170D01*
X406375Y393280D01*
X406393Y393391D01*
X406403Y393521D01*
Y393752D01*
X406393Y393817D01*
Y393900D01*
X406384Y393992D01*
X406375Y394094D01*
X406366Y394205D01*
X406329Y394436D01*
X406273Y394677D01*
X406208Y394898D01*
X406162Y395009D01*
X406107Y395102D01*
X406097Y395120D01*
X406070Y395157D01*
X406023Y395213D01*
X405959Y395287D01*
X405866Y395361D01*
X405765Y395444D01*
X405635Y395527D01*
X405487Y395592D01*
X405469Y395601D01*
X405423Y395610D01*
X405349Y395629D01*
X405293Y395638D01*
X405228Y395657D01*
X405164Y395666D01*
X405080Y395675D01*
X404988Y395684D01*
X404886Y395694D01*
X404775Y395703D01*
X404646D01*
X404516Y395712D01*
X404369D01*
X403009Y395721D01*
X403028Y395712D01*
X403074Y395675D01*
X403148Y395610D01*
X403241Y395518D01*
X403361Y395416D01*
X403490Y395278D01*
X403620Y395130D01*
X403758Y394954D01*
X403906Y394760D01*
X404036Y394556D01*
X404165Y394325D01*
X404276Y394076D01*
X404378Y393807D01*
X404452Y393530D01*
X404498Y393234D01*
X404516Y392929D01*
Y392846D01*
X404507Y392753D01*
X404489Y392624D01*
X404470Y392467D01*
X404433Y392282D01*
X404387Y392079D01*
X404322Y391857D01*
X404239Y391626D01*
X404128Y391385D01*
X404008Y391145D01*
X403851Y390895D01*
X403675Y390645D01*
X403462Y390414D01*
X403222Y390183D01*
X402945Y389971D01*
X402926Y389961D01*
X402889Y389934D01*
X402815Y389897D01*
X402723Y389841D01*
X402603Y389776D01*
X402455Y389702D01*
X402279Y389628D01*
X402085Y389545D01*
X401872Y389462D01*
X401641Y389388D01*
X401382Y389314D01*
X401105Y389249D01*
X400818Y389203D01*
X400504Y389157D01*
X400180Y389129D01*
X399838Y389120D01*
X399829D01*
X399810D01*
X399783D01*
X399736D01*
X399681D01*
X399616Y389129D01*
X399542D01*
X399459Y389138D01*
X399256Y389157D01*
X399034Y389175D01*
X398784Y389212D01*
X398516Y389259D01*
X398239Y389323D01*
X397943Y389397D01*
X397647Y389481D01*
X397351Y389591D01*
X397065Y389721D01*
X396787Y389869D01*
X396519Y390045D01*
X396279Y390239D01*
X396260Y390248D01*
X396223Y390294D01*
X396168Y390350D01*
X396084Y390442D01*
X395992Y390553D01*
X395890Y390682D01*
X395770Y390830D01*
X395659Y391006D01*
X395539Y391200D01*
X395428Y391413D01*
X395326Y391644D01*
X395234Y391884D01*
X395151Y392153D01*
X395095Y392430D01*
X395049Y392726D01*
X395040Y393031D01*
Y393105D01*
X395049Y393197D01*
X395067Y393317D01*
X395086Y393465D01*
X395123Y393632D01*
X395169Y393826D01*
X395225Y394029D01*
X395308Y394251D01*
X395410Y394482D01*
X395530Y394714D01*
X395678Y394954D01*
X395853Y395194D01*
X396057Y395425D01*
X396288Y395657D01*
X396556Y395869D01*
X395243D01*
Y398162D01*
X403573D01*
X403592D01*
X403647D01*
X403731D01*
X403842D01*
X403971Y398153D01*
D02*
G37*
G36*
X404516Y384858D02*
X403130D01*
X403139Y384849D01*
X403167Y384830D01*
X403204Y384802D01*
X403250Y384765D01*
X403315Y384719D01*
X403388Y384654D01*
X403472Y384580D01*
X403555Y384497D01*
X403647Y384405D01*
X403749Y384303D01*
X403943Y384081D01*
X404128Y383813D01*
X404304Y383517D01*
Y383508D01*
X404322Y383480D01*
X404341Y383434D01*
X404369Y383378D01*
X404406Y383295D01*
X404442Y383212D01*
X404479Y383110D01*
X404516Y382990D01*
X404553Y382870D01*
X404590Y382731D01*
X404664Y382435D01*
X404711Y382121D01*
X404720Y381945D01*
X404729Y381779D01*
Y381687D01*
X404720Y381622D01*
Y381539D01*
X404711Y381446D01*
X404692Y381335D01*
X404674Y381215D01*
X404627Y380956D01*
X404553Y380679D01*
X404452Y380383D01*
X404396Y380235D01*
X404322Y380096D01*
X404313Y380087D01*
X404304Y380069D01*
X404276Y380022D01*
X404248Y379976D01*
X404202Y379911D01*
X404156Y379847D01*
X404026Y379689D01*
X403860Y379514D01*
X403666Y379329D01*
X403435Y379162D01*
X403315Y379089D01*
X403176Y379024D01*
X403167D01*
X403139Y379015D01*
X403102Y378996D01*
X403037Y378978D01*
X402963Y378950D01*
X402871Y378922D01*
X402760Y378894D01*
X402640Y378867D01*
X402501Y378830D01*
X402344Y378802D01*
X402177Y378774D01*
X401992Y378756D01*
X401789Y378728D01*
X401576Y378719D01*
X401354Y378700D01*
X401114D01*
X395243D01*
Y381150D01*
X399505D01*
X399515D01*
X399524D01*
X399552D01*
X399589D01*
X399690D01*
X399820D01*
X399968D01*
X400143Y381160D01*
X400337D01*
X400532Y381169D01*
X400948Y381178D01*
X401151Y381197D01*
X401336Y381206D01*
X401512Y381224D01*
X401669Y381233D01*
X401798Y381261D01*
X401900Y381280D01*
X401909D01*
X401918Y381289D01*
X401974Y381307D01*
X402057Y381344D01*
X402150Y381391D01*
X402270Y381465D01*
X402381Y381548D01*
X402501Y381650D01*
X402603Y381770D01*
X402612Y381788D01*
X402640Y381834D01*
X402686Y381918D01*
X402723Y382019D01*
X402769Y382149D01*
X402815Y382306D01*
X402843Y382491D01*
X402852Y382685D01*
Y382750D01*
X402843Y382796D01*
Y382842D01*
X402834Y382907D01*
X402806Y383064D01*
X402769Y383240D01*
X402704Y383425D01*
X402621Y383619D01*
X402510Y383813D01*
Y383822D01*
X402492Y383831D01*
X402473Y383859D01*
X402445Y383896D01*
X402371Y383979D01*
X402279Y384090D01*
X402150Y384201D01*
X402011Y384312D01*
X401844Y384414D01*
X401660Y384497D01*
X401650D01*
X401632Y384506D01*
X401595Y384516D01*
X401549Y384525D01*
X401484Y384543D01*
X401391Y384553D01*
X401290Y384571D01*
X401151Y384590D01*
X401003Y384608D01*
X400827Y384627D01*
X400624Y384636D01*
X400384Y384654D01*
X400125Y384664D01*
X399838Y384673D01*
X399515Y384682D01*
X399154D01*
X395243D01*
Y387132D01*
X404516D01*
Y384858D01*
D02*
G37*
G36*
X400023Y376768D02*
X400097D01*
X400180Y376759D01*
X400384Y376740D01*
X400615Y376722D01*
X400864Y376685D01*
X401142Y376638D01*
X401428Y376574D01*
X401734Y376500D01*
X402039Y376407D01*
X402335Y376296D01*
X402640Y376167D01*
X402926Y376019D01*
X403204Y375843D01*
X403453Y375640D01*
X403472Y375631D01*
X403509Y375584D01*
X403573Y375529D01*
X403657Y375437D01*
X403749Y375326D01*
X403860Y375196D01*
X403971Y375048D01*
X404091Y374873D01*
X404211Y374688D01*
X404322Y374475D01*
X404433Y374244D01*
X404526Y374003D01*
X404609Y373745D01*
X404674Y373476D01*
X404711Y373190D01*
X404729Y372894D01*
Y372820D01*
X404720Y372755D01*
Y372691D01*
X404711Y372598D01*
X404692Y372506D01*
X404683Y372404D01*
X404627Y372164D01*
X404563Y371895D01*
X404461Y371609D01*
X404406Y371470D01*
X404332Y371322D01*
X404322Y371313D01*
X404313Y371285D01*
X404285Y371248D01*
X404258Y371193D01*
X404211Y371128D01*
X404165Y371054D01*
X404100Y370962D01*
X404036Y370869D01*
X403869Y370666D01*
X403666Y370444D01*
X403435Y370213D01*
X403157Y370000D01*
X404516D01*
Y367726D01*
X391721D01*
Y370176D01*
X396334D01*
X396316Y370185D01*
X396279Y370231D01*
X396214Y370287D01*
X396131Y370379D01*
X396029Y370481D01*
X395927Y370610D01*
X395807Y370768D01*
X395687Y370934D01*
X395567Y371119D01*
X395447Y371322D01*
X395336Y371544D01*
X395243Y371785D01*
X395160Y372034D01*
X395095Y372293D01*
X395058Y372570D01*
X395040Y372857D01*
Y372931D01*
X395049Y373023D01*
X395058Y373144D01*
X395077Y373282D01*
X395104Y373458D01*
X395141Y373643D01*
X395197Y373846D01*
X395262Y374068D01*
X395336Y374290D01*
X395437Y374521D01*
X395557Y374762D01*
X395696Y374993D01*
X395863Y375233D01*
X396057Y375455D01*
X396269Y375668D01*
X396288Y375677D01*
X396325Y375714D01*
X396399Y375769D01*
X396501Y375843D01*
X396621Y375927D01*
X396778Y376019D01*
X396963Y376121D01*
X397166Y376222D01*
X397407Y376324D01*
X397665Y376426D01*
X397961Y376518D01*
X398276Y376601D01*
X398618Y376675D01*
X398978Y376731D01*
X399376Y376768D01*
X399792Y376777D01*
X399801D01*
X399820D01*
X399847D01*
X399894D01*
X399949D01*
X400023Y376768D01*
D02*
G37*
G36*
X400596Y359691D02*
X400606D01*
X400643D01*
X400698Y359701D01*
X400772D01*
X400864Y359710D01*
X400975Y359728D01*
X401086Y359747D01*
X401216Y359775D01*
X401493Y359839D01*
X401632Y359885D01*
X401771Y359941D01*
X401909Y360015D01*
X402048Y360089D01*
X402177Y360172D01*
X402298Y360274D01*
X402307Y360283D01*
X402325Y360302D01*
X402353Y360329D01*
X402390Y360375D01*
X402436Y360431D01*
X402492Y360505D01*
X402538Y360579D01*
X402593Y360671D01*
X402658Y360764D01*
X402704Y360875D01*
X402806Y361115D01*
X402843Y361254D01*
X402871Y361392D01*
X402889Y361540D01*
X402898Y361698D01*
Y361753D01*
X402889Y361799D01*
X402880Y361901D01*
X402861Y362040D01*
X402825Y362188D01*
X402769Y362354D01*
X402695Y362511D01*
X402593Y362668D01*
Y362678D01*
X402575Y362687D01*
X402529Y362733D01*
X402455Y362807D01*
X402344Y362890D01*
X402205Y362992D01*
X402029Y363094D01*
X401826Y363186D01*
X401576Y363269D01*
X401983Y365710D01*
X402002Y365701D01*
X402039Y365692D01*
X402113Y365664D01*
X402205Y365618D01*
X402316Y365572D01*
X402445Y365507D01*
X402593Y365433D01*
X402741Y365340D01*
X402908Y365248D01*
X403074Y365137D01*
X403250Y365008D01*
X403416Y364878D01*
X403583Y364730D01*
X403749Y364573D01*
X403897Y364397D01*
X404036Y364212D01*
X404045Y364203D01*
X404063Y364166D01*
X404100Y364111D01*
X404147Y364027D01*
X404193Y363926D01*
X404258Y363815D01*
X404313Y363667D01*
X404378Y363510D01*
X404442Y363334D01*
X404507Y363149D01*
X404572Y362937D01*
X404618Y362715D01*
X404664Y362474D01*
X404701Y362215D01*
X404720Y361947D01*
X404729Y361670D01*
Y361568D01*
X404720Y361503D01*
Y361439D01*
X404711Y361365D01*
X404701Y361272D01*
X404683Y361069D01*
X404646Y360847D01*
X404600Y360588D01*
X404535Y360311D01*
X404452Y360024D01*
X404341Y359728D01*
X404221Y359432D01*
X404063Y359137D01*
X403888Y358850D01*
X403675Y358582D01*
X403435Y358323D01*
X403157Y358092D01*
X403139Y358083D01*
X403102Y358055D01*
X403028Y358009D01*
X402926Y357953D01*
X402806Y357879D01*
X402658Y357805D01*
X402482Y357722D01*
X402279Y357639D01*
X402057Y357546D01*
X401817Y357463D01*
X401558Y357389D01*
X401271Y357324D01*
X400975Y357260D01*
X400652Y357213D01*
X400310Y357186D01*
X399958Y357177D01*
X399949D01*
X399931D01*
X399903D01*
X399857D01*
X399801Y357186D01*
X399736D01*
X399663D01*
X399579Y357195D01*
X399385Y357213D01*
X399163Y357241D01*
X398914Y357278D01*
X398646Y357324D01*
X398359Y357389D01*
X398063Y357472D01*
X397767Y357565D01*
X397462Y357685D01*
X397166Y357824D01*
X396880Y357981D01*
X396611Y358166D01*
X396353Y358378D01*
X396334Y358397D01*
X396297Y358434D01*
X396232Y358499D01*
X396149Y358591D01*
X396047Y358711D01*
X395937Y358859D01*
X395816Y359026D01*
X395696Y359211D01*
X395576Y359423D01*
X395456Y359654D01*
X395345Y359904D01*
X395243Y360172D01*
X395160Y360459D01*
X395095Y360764D01*
X395058Y361087D01*
X395040Y361429D01*
Y361522D01*
X395049Y361568D01*
Y361624D01*
X395058Y361772D01*
X395077Y361947D01*
X395114Y362141D01*
X395151Y362373D01*
X395206Y362613D01*
X395280Y362863D01*
X395373Y363131D01*
X395484Y363399D01*
X395613Y363676D01*
X395770Y363944D01*
X395955Y364203D01*
X396168Y364453D01*
X396408Y364684D01*
X396427Y364693D01*
X396473Y364739D01*
X396556Y364795D01*
X396667Y364869D01*
X396815Y364961D01*
X396991Y365063D01*
X397203Y365165D01*
X397444Y365276D01*
X397721Y365387D01*
X398035Y365498D01*
X398377Y365590D01*
X398756Y365682D01*
X399163Y365747D01*
X399607Y365803D01*
X400088Y365830D01*
X400596Y365840D01*
Y359691D01*
D02*
G37*
G36*
X398516Y355716D02*
X398646D01*
X398812Y355706D01*
X398988Y355688D01*
X399182Y355679D01*
X399385Y355651D01*
X399607Y355632D01*
X400060Y355559D01*
X400522Y355457D01*
X400744Y355401D01*
X400966Y355327D01*
X400985Y355318D01*
X401031Y355309D01*
X401105Y355281D01*
X401197Y355235D01*
X401317Y355189D01*
X401456Y355133D01*
X401604Y355059D01*
X401771Y354976D01*
X401946Y354883D01*
X402131Y354782D01*
X402316Y354671D01*
X402510Y354551D01*
X402695Y354412D01*
X402880Y354273D01*
X403065Y354125D01*
X403231Y353959D01*
X403241Y353950D01*
X403259Y353931D01*
X403296Y353885D01*
X403342Y353839D01*
X403398Y353765D01*
X403453Y353682D01*
X403527Y353589D01*
X403601Y353478D01*
X403684Y353358D01*
X403768Y353219D01*
X403851Y353071D01*
X403934Y352914D01*
X404017Y352739D01*
X404100Y352554D01*
X404174Y352360D01*
X404248Y352147D01*
Y352138D01*
X404258Y352110D01*
X404276Y352054D01*
X404285Y351990D01*
X404313Y351907D01*
X404332Y351796D01*
X404359Y351675D01*
X404378Y351537D01*
X404406Y351380D01*
X404433Y351213D01*
X404452Y351019D01*
X404470Y350816D01*
X404489Y350594D01*
X404507Y350362D01*
X404516Y350113D01*
Y345000D01*
X391721D01*
Y349974D01*
X391730Y350113D01*
Y350270D01*
X391739Y350436D01*
X391748Y350621D01*
X391767Y350816D01*
X391785Y351010D01*
X391822Y351416D01*
X391850Y351611D01*
X391887Y351805D01*
X391924Y351980D01*
X391970Y352147D01*
Y352156D01*
X391989Y352193D01*
X392007Y352258D01*
X392035Y352332D01*
X392072Y352434D01*
X392118Y352544D01*
X392174Y352674D01*
X392238Y352812D01*
X392322Y352961D01*
X392405Y353118D01*
X392506Y353275D01*
X392608Y353441D01*
X392728Y353598D01*
X392858Y353765D01*
X392996Y353922D01*
X393154Y354079D01*
X393163Y354088D01*
X393191Y354116D01*
X393237Y354153D01*
X393302Y354209D01*
X393385Y354283D01*
X393486Y354356D01*
X393597Y354440D01*
X393727Y354532D01*
X393875Y354634D01*
X394032Y354726D01*
X394198Y354828D01*
X394383Y354930D01*
X394577Y355032D01*
X394781Y355124D01*
X395003Y355216D01*
X395225Y355300D01*
X395234Y355309D01*
X395280Y355318D01*
X395345Y355337D01*
X395447Y355364D01*
X395567Y355401D01*
X395705Y355438D01*
X395872Y355475D01*
X396057Y355512D01*
X396269Y355549D01*
X396501Y355586D01*
X396750Y355623D01*
X397018Y355660D01*
X397296Y355688D01*
X397601Y355706D01*
X397915Y355725D01*
X398248D01*
X398266D01*
X398322D01*
X398405D01*
X398516Y355716D01*
D02*
G37*
G36*
X259639Y383558D02*
X259658Y383530D01*
X259676Y383484D01*
X259695Y383419D01*
X259723Y383336D01*
X259750Y383234D01*
X259787Y383123D01*
X259815Y383003D01*
X259852Y382864D01*
X259889Y382716D01*
X259917Y382559D01*
X259944Y382384D01*
X259981Y382023D01*
X260000Y381625D01*
Y381515D01*
X259991Y381459D01*
Y381394D01*
X259972Y381228D01*
X259944Y381043D01*
X259907Y380849D01*
X259852Y380636D01*
X259778Y380433D01*
Y380424D01*
X259769Y380414D01*
X259760Y380387D01*
X259741Y380350D01*
X259686Y380257D01*
X259621Y380137D01*
X259538Y380008D01*
X259445Y379887D01*
X259334Y379758D01*
X259205Y379656D01*
X259186Y379647D01*
X259140Y379619D01*
X259057Y379573D01*
X258955Y379518D01*
X258817Y379462D01*
X258650Y379407D01*
X258456Y379351D01*
X258243Y379314D01*
X258234D01*
X258225D01*
X258197Y379305D01*
X258160D01*
X258105Y379296D01*
X258040D01*
X257957Y379286D01*
X257864Y379277D01*
X257763Y379268D01*
X257633D01*
X257494Y379259D01*
X257337Y379249D01*
X257162D01*
X256958Y379240D01*
X256745D01*
X256514D01*
X252465D01*
Y378112D01*
X250514D01*
Y379240D01*
X248674D01*
X247232Y381690D01*
X250514D01*
Y383364D01*
X252465D01*
Y381690D01*
X256209D01*
X256218D01*
X256255D01*
X256311D01*
X256394D01*
X256477D01*
X256579D01*
X256801Y381699D01*
X257032D01*
X257143Y381709D01*
X257254D01*
X257346Y381718D01*
X257430D01*
X257494Y381727D01*
X257541Y381736D01*
X257550D01*
X257568Y381746D01*
X257605Y381764D01*
X257652Y381783D01*
X257698Y381810D01*
X257744Y381847D01*
X257799Y381894D01*
X257846Y381949D01*
X257855Y381958D01*
X257864Y381977D01*
X257883Y382014D01*
X257901Y382069D01*
X257929Y382125D01*
X257948Y382199D01*
X257957Y382282D01*
X257966Y382365D01*
Y382430D01*
X257957Y382504D01*
X257938Y382615D01*
X257910Y382753D01*
X257864Y382929D01*
X257809Y383123D01*
X257735Y383354D01*
X259639Y383567D01*
Y383558D01*
D02*
G37*
G36*
X255867Y370984D02*
X255877D01*
X255913D01*
X255969Y370993D01*
X256043D01*
X256135Y371002D01*
X256246Y371021D01*
X256357Y371039D01*
X256487Y371067D01*
X256764Y371132D01*
X256903Y371178D01*
X257041Y371233D01*
X257180Y371307D01*
X257319Y371381D01*
X257448Y371465D01*
X257568Y371566D01*
X257578Y371576D01*
X257596Y371594D01*
X257624Y371622D01*
X257661Y371668D01*
X257707Y371723D01*
X257763Y371797D01*
X257809Y371871D01*
X257864Y371964D01*
X257929Y372056D01*
X257975Y372167D01*
X258077Y372408D01*
X258114Y372546D01*
X258142Y372685D01*
X258160Y372833D01*
X258169Y372990D01*
Y373046D01*
X258160Y373092D01*
X258151Y373194D01*
X258132Y373332D01*
X258095Y373480D01*
X258040Y373647D01*
X257966Y373804D01*
X257864Y373961D01*
Y373970D01*
X257846Y373979D01*
X257799Y374026D01*
X257726Y374100D01*
X257615Y374183D01*
X257476Y374284D01*
X257300Y374386D01*
X257097Y374479D01*
X256847Y374562D01*
X257254Y377003D01*
X257272Y376993D01*
X257309Y376984D01*
X257383Y376956D01*
X257476Y376910D01*
X257587Y376864D01*
X257716Y376799D01*
X257864Y376725D01*
X258012Y376633D01*
X258179Y376540D01*
X258345Y376429D01*
X258521Y376300D01*
X258687Y376171D01*
X258853Y376023D01*
X259020Y375865D01*
X259168Y375690D01*
X259307Y375505D01*
X259316Y375496D01*
X259334Y375459D01*
X259371Y375403D01*
X259417Y375320D01*
X259464Y375218D01*
X259529Y375107D01*
X259584Y374959D01*
X259649Y374802D01*
X259713Y374627D01*
X259778Y374442D01*
X259843Y374229D01*
X259889Y374007D01*
X259935Y373767D01*
X259972Y373508D01*
X259991Y373240D01*
X260000Y372962D01*
Y372861D01*
X259991Y372796D01*
Y372731D01*
X259981Y372657D01*
X259972Y372565D01*
X259954Y372361D01*
X259917Y372140D01*
X259870Y371881D01*
X259806Y371603D01*
X259723Y371317D01*
X259612Y371021D01*
X259492Y370725D01*
X259334Y370429D01*
X259159Y370142D01*
X258946Y369874D01*
X258706Y369615D01*
X258428Y369384D01*
X258410Y369375D01*
X258373Y369347D01*
X258299Y369301D01*
X258197Y369246D01*
X258077Y369172D01*
X257929Y369098D01*
X257753Y369015D01*
X257550Y368931D01*
X257328Y368839D01*
X257088Y368756D01*
X256829Y368682D01*
X256542Y368617D01*
X256246Y368552D01*
X255923Y368506D01*
X255581Y368478D01*
X255229Y368469D01*
X255220D01*
X255201D01*
X255174D01*
X255128D01*
X255072Y368478D01*
X255007D01*
X254933D01*
X254850Y368488D01*
X254656Y368506D01*
X254434Y368534D01*
X254184Y368571D01*
X253916Y368617D01*
X253630Y368682D01*
X253334Y368765D01*
X253038Y368857D01*
X252733Y368978D01*
X252437Y369116D01*
X252150Y369273D01*
X251882Y369458D01*
X251623Y369671D01*
X251605Y369689D01*
X251568Y369726D01*
X251503Y369791D01*
X251420Y369883D01*
X251318Y370004D01*
X251207Y370152D01*
X251087Y370318D01*
X250967Y370503D01*
X250847Y370716D01*
X250727Y370947D01*
X250616Y371196D01*
X250514Y371465D01*
X250431Y371751D01*
X250366Y372056D01*
X250329Y372380D01*
X250311Y372722D01*
Y372814D01*
X250320Y372861D01*
Y372916D01*
X250329Y373064D01*
X250348Y373240D01*
X250385Y373434D01*
X250422Y373665D01*
X250477Y373905D01*
X250551Y374155D01*
X250643Y374423D01*
X250754Y374691D01*
X250884Y374969D01*
X251041Y375237D01*
X251226Y375496D01*
X251439Y375745D01*
X251679Y375976D01*
X251697Y375986D01*
X251744Y376032D01*
X251827Y376087D01*
X251938Y376161D01*
X252086Y376254D01*
X252261Y376356D01*
X252474Y376457D01*
X252715Y376568D01*
X252992Y376679D01*
X253306Y376790D01*
X253648Y376883D01*
X254027Y376975D01*
X254434Y377040D01*
X254878Y377095D01*
X255359Y377123D01*
X255867Y377132D01*
Y370984D01*
D02*
G37*
G36*
X257014Y367027D02*
X257106Y367017D01*
X257217Y366999D01*
X257346Y366980D01*
X257485Y366943D01*
X257642Y366907D01*
X257809Y366842D01*
X257984Y366777D01*
X258169Y366685D01*
X258354Y366583D01*
X258539Y366463D01*
X258724Y366315D01*
X258909Y366148D01*
X259085Y365963D01*
X259094Y365954D01*
X259122Y365917D01*
X259168Y365853D01*
X259223Y365769D01*
X259297Y365649D01*
X259371Y365520D01*
X259454Y365353D01*
X259538Y365168D01*
X259630Y364965D01*
X259713Y364725D01*
X259787Y364475D01*
X259852Y364188D01*
X259917Y363883D01*
X259963Y363550D01*
X259991Y363199D01*
X260000Y362820D01*
Y362737D01*
X259991Y362635D01*
Y362505D01*
X259972Y362348D01*
X259963Y362164D01*
X259935Y361960D01*
X259907Y361738D01*
X259861Y361498D01*
X259815Y361257D01*
X259750Y361008D01*
X259676Y360749D01*
X259584Y360508D01*
X259482Y360259D01*
X259371Y360028D01*
X259233Y359815D01*
X259223Y359806D01*
X259196Y359769D01*
X259149Y359713D01*
X259094Y359639D01*
X259011Y359547D01*
X258918Y359445D01*
X258807Y359344D01*
X258687Y359223D01*
X258539Y359103D01*
X258382Y358983D01*
X258216Y358863D01*
X258031Y358743D01*
X257827Y358641D01*
X257615Y358539D01*
X257383Y358456D01*
X257143Y358382D01*
X256764Y360841D01*
X256773D01*
X256792Y360851D01*
X256829Y360860D01*
X256884Y360869D01*
X256940Y360888D01*
X257014Y360915D01*
X257171Y360980D01*
X257346Y361063D01*
X257531Y361165D01*
X257698Y361304D01*
X257855Y361470D01*
Y361479D01*
X257873Y361488D01*
X257892Y361516D01*
X257910Y361562D01*
X257938Y361609D01*
X257975Y361664D01*
X258003Y361738D01*
X258040Y361821D01*
X258077Y361914D01*
X258105Y362015D01*
X258142Y362127D01*
X258169Y362247D01*
X258188Y362376D01*
X258206Y362515D01*
X258225Y362663D01*
Y362912D01*
X258216Y362977D01*
Y363060D01*
X258206Y363144D01*
X258197Y363245D01*
X258179Y363356D01*
X258142Y363587D01*
X258077Y363828D01*
X257994Y364050D01*
X257938Y364160D01*
X257883Y364253D01*
X257873Y364272D01*
X257836Y364308D01*
X257781Y364355D01*
X257707Y364419D01*
X257615Y364475D01*
X257504Y364530D01*
X257374Y364567D01*
X257226Y364577D01*
X257217D01*
X257180D01*
X257125Y364567D01*
X257060Y364558D01*
X256995Y364530D01*
X256912Y364503D01*
X256838Y364456D01*
X256764Y364401D01*
X256755Y364392D01*
X256736Y364364D01*
X256699Y364308D01*
X256653Y364225D01*
X256607Y364123D01*
X256551Y363976D01*
X256524Y363892D01*
X256496Y363800D01*
X256468Y363689D01*
X256440Y363578D01*
Y363569D01*
X256431Y363541D01*
X256422Y363504D01*
X256413Y363449D01*
X256394Y363384D01*
X256376Y363301D01*
X256357Y363208D01*
X256329Y363106D01*
X256302Y362986D01*
X256274Y362866D01*
X256200Y362598D01*
X256126Y362302D01*
X256043Y361997D01*
X255960Y361673D01*
X255858Y361359D01*
X255765Y361045D01*
X255664Y360740D01*
X255553Y360462D01*
X255451Y360203D01*
X255405Y360092D01*
X255350Y359991D01*
X255294Y359898D01*
X255248Y359815D01*
X255238Y359806D01*
X255211Y359769D01*
X255174Y359713D01*
X255109Y359649D01*
X255035Y359565D01*
X254943Y359473D01*
X254832Y359371D01*
X254702Y359270D01*
X254564Y359168D01*
X254406Y359066D01*
X254240Y358974D01*
X254046Y358890D01*
X253852Y358826D01*
X253630Y358770D01*
X253399Y358733D01*
X253158Y358724D01*
X253140D01*
X253103D01*
X253038Y358733D01*
X252955Y358743D01*
X252853Y358752D01*
X252733Y358770D01*
X252603Y358807D01*
X252456Y358844D01*
X252298Y358890D01*
X252132Y358955D01*
X251966Y359029D01*
X251799Y359122D01*
X251623Y359233D01*
X251457Y359353D01*
X251291Y359501D01*
X251133Y359667D01*
X251124Y359676D01*
X251096Y359713D01*
X251059Y359769D01*
X251004Y359852D01*
X250939Y359954D01*
X250875Y360074D01*
X250801Y360222D01*
X250717Y360398D01*
X250643Y360592D01*
X250569Y360804D01*
X250505Y361045D01*
X250440Y361313D01*
X250385Y361600D01*
X250348Y361914D01*
X250320Y362256D01*
X250311Y362617D01*
Y362801D01*
X250320Y362931D01*
X250329Y363088D01*
X250348Y363264D01*
X250366Y363467D01*
X250385Y363689D01*
X250422Y363911D01*
X250468Y364142D01*
X250514Y364382D01*
X250579Y364613D01*
X250643Y364845D01*
X250736Y365057D01*
X250828Y365261D01*
X250939Y365446D01*
X250949Y365455D01*
X250967Y365483D01*
X251004Y365538D01*
X251050Y365594D01*
X251124Y365667D01*
X251198Y365760D01*
X251291Y365853D01*
X251402Y365954D01*
X251522Y366056D01*
X251660Y366167D01*
X251808Y366269D01*
X251975Y366370D01*
X252150Y366472D01*
X252345Y366564D01*
X252548Y366648D01*
X252770Y366721D01*
X253195Y364410D01*
X253186D01*
X253167Y364401D01*
X253140Y364392D01*
X253103Y364382D01*
X253010Y364336D01*
X252890Y364281D01*
X252761Y364198D01*
X252622Y364105D01*
X252493Y363985D01*
X252372Y363837D01*
X252363Y363818D01*
X252345Y363791D01*
X252326Y363763D01*
X252308Y363717D01*
X252280Y363671D01*
X252224Y363541D01*
X252169Y363375D01*
X252123Y363171D01*
X252086Y362931D01*
X252076Y362663D01*
Y362505D01*
X252086Y362422D01*
X252095Y362330D01*
Y362237D01*
X252113Y362127D01*
X252141Y361895D01*
X252197Y361664D01*
X252261Y361452D01*
X252308Y361359D01*
X252354Y361276D01*
X252363Y361267D01*
X252391Y361230D01*
X252428Y361193D01*
X252483Y361137D01*
X252557Y361091D01*
X252640Y361045D01*
X252742Y361008D01*
X252853Y360998D01*
X252862D01*
X252899D01*
X252946Y361008D01*
X253001Y361026D01*
X253075Y361054D01*
X253149Y361100D01*
X253223Y361156D01*
X253297Y361239D01*
X253306Y361257D01*
X253325Y361285D01*
X253343Y361322D01*
X253362Y361378D01*
X253399Y361452D01*
X253436Y361535D01*
X253473Y361646D01*
X253519Y361784D01*
X253565Y361942D01*
X253630Y362127D01*
X253685Y362339D01*
X253750Y362589D01*
X253824Y362866D01*
X253898Y363171D01*
X253944Y363347D01*
X253981Y363523D01*
Y363532D01*
X253990Y363541D01*
Y363569D01*
X254000Y363606D01*
X254027Y363708D01*
X254064Y363837D01*
X254101Y364003D01*
X254157Y364188D01*
X254212Y364382D01*
X254286Y364604D01*
X254443Y365048D01*
X254536Y365279D01*
X254628Y365501D01*
X254730Y365723D01*
X254841Y365917D01*
X254952Y366102D01*
X255072Y366259D01*
X255081Y366269D01*
X255100Y366296D01*
X255137Y366333D01*
X255192Y366380D01*
X255257Y366444D01*
X255340Y366509D01*
X255433Y366574D01*
X255544Y366648D01*
X255673Y366721D01*
X255802Y366786D01*
X255950Y366860D01*
X256117Y366916D01*
X256292Y366962D01*
X256477Y366999D01*
X256681Y367027D01*
X256894Y367036D01*
X256912D01*
X256949D01*
X257014Y367027D01*
D02*
G37*
G36*
X255867Y351106D02*
X255877D01*
X255913D01*
X255969Y351115D01*
X256043D01*
X256135Y351124D01*
X256246Y351143D01*
X256357Y351161D01*
X256487Y351189D01*
X256764Y351254D01*
X256903Y351300D01*
X257041Y351355D01*
X257180Y351429D01*
X257319Y351503D01*
X257448Y351586D01*
X257568Y351688D01*
X257578Y351697D01*
X257596Y351716D01*
X257624Y351744D01*
X257661Y351790D01*
X257707Y351845D01*
X257763Y351919D01*
X257809Y351993D01*
X257864Y352086D01*
X257929Y352178D01*
X257975Y352289D01*
X258077Y352529D01*
X258114Y352668D01*
X258142Y352807D01*
X258160Y352955D01*
X258169Y353112D01*
Y353167D01*
X258160Y353214D01*
X258151Y353315D01*
X258132Y353454D01*
X258095Y353602D01*
X258040Y353769D01*
X257966Y353926D01*
X257864Y354083D01*
Y354092D01*
X257846Y354101D01*
X257799Y354147D01*
X257726Y354221D01*
X257615Y354305D01*
X257476Y354406D01*
X257300Y354508D01*
X257097Y354601D01*
X256847Y354684D01*
X257254Y357125D01*
X257272Y357115D01*
X257309Y357106D01*
X257383Y357078D01*
X257476Y357032D01*
X257587Y356986D01*
X257716Y356921D01*
X257864Y356847D01*
X258012Y356755D01*
X258179Y356662D01*
X258345Y356551D01*
X258521Y356422D01*
X258687Y356292D01*
X258853Y356145D01*
X259020Y355987D01*
X259168Y355812D01*
X259307Y355627D01*
X259316Y355618D01*
X259334Y355581D01*
X259371Y355525D01*
X259417Y355442D01*
X259464Y355340D01*
X259529Y355229D01*
X259584Y355081D01*
X259649Y354924D01*
X259713Y354748D01*
X259778Y354564D01*
X259843Y354351D01*
X259889Y354129D01*
X259935Y353889D01*
X259972Y353630D01*
X259991Y353362D01*
X260000Y353084D01*
Y352983D01*
X259991Y352918D01*
Y352853D01*
X259981Y352779D01*
X259972Y352687D01*
X259954Y352483D01*
X259917Y352261D01*
X259870Y352002D01*
X259806Y351725D01*
X259723Y351439D01*
X259612Y351143D01*
X259492Y350847D01*
X259334Y350551D01*
X259159Y350264D01*
X258946Y349996D01*
X258706Y349737D01*
X258428Y349506D01*
X258410Y349497D01*
X258373Y349469D01*
X258299Y349423D01*
X258197Y349368D01*
X258077Y349294D01*
X257929Y349220D01*
X257753Y349136D01*
X257550Y349053D01*
X257328Y348961D01*
X257088Y348877D01*
X256829Y348804D01*
X256542Y348739D01*
X256246Y348674D01*
X255923Y348628D01*
X255581Y348600D01*
X255229Y348591D01*
X255220D01*
X255201D01*
X255174D01*
X255128D01*
X255072Y348600D01*
X255007D01*
X254933D01*
X254850Y348609D01*
X254656Y348628D01*
X254434Y348656D01*
X254184Y348693D01*
X253916Y348739D01*
X253630Y348804D01*
X253334Y348887D01*
X253038Y348979D01*
X252733Y349099D01*
X252437Y349238D01*
X252150Y349395D01*
X251882Y349580D01*
X251623Y349793D01*
X251605Y349811D01*
X251568Y349848D01*
X251503Y349913D01*
X251420Y350005D01*
X251318Y350126D01*
X251207Y350274D01*
X251087Y350440D01*
X250967Y350625D01*
X250847Y350838D01*
X250727Y351069D01*
X250616Y351318D01*
X250514Y351586D01*
X250431Y351873D01*
X250366Y352178D01*
X250329Y352502D01*
X250311Y352844D01*
Y352936D01*
X250320Y352983D01*
Y353038D01*
X250329Y353186D01*
X250348Y353362D01*
X250385Y353556D01*
X250422Y353787D01*
X250477Y354027D01*
X250551Y354277D01*
X250643Y354545D01*
X250754Y354813D01*
X250884Y355091D01*
X251041Y355359D01*
X251226Y355618D01*
X251439Y355867D01*
X251679Y356098D01*
X251697Y356108D01*
X251744Y356154D01*
X251827Y356209D01*
X251938Y356283D01*
X252086Y356376D01*
X252261Y356477D01*
X252474Y356579D01*
X252715Y356690D01*
X252992Y356801D01*
X253306Y356912D01*
X253648Y357004D01*
X254027Y357097D01*
X254434Y357162D01*
X254878Y357217D01*
X255359Y357245D01*
X255867Y357254D01*
Y351106D01*
D02*
G37*
G36*
X259787Y344828D02*
X257004Y342970D01*
X256986Y342960D01*
X256940Y342923D01*
X256866Y342877D01*
X256764Y342812D01*
X256644Y342729D01*
X256514Y342637D01*
X256367Y342535D01*
X256209Y342424D01*
X255895Y342193D01*
X255738Y342082D01*
X255581Y341971D01*
X255442Y341869D01*
X255322Y341768D01*
X255211Y341675D01*
X255128Y341601D01*
X255109Y341583D01*
X255063Y341536D01*
X254998Y341463D01*
X254915Y341370D01*
X254823Y341250D01*
X254739Y341120D01*
X254656Y340982D01*
X254591Y340825D01*
X254582Y340806D01*
X254573Y340778D01*
X254564Y340751D01*
X254554Y340704D01*
X254545Y340649D01*
X254527Y340584D01*
X254517Y340510D01*
X254499Y340427D01*
X254490Y340335D01*
X254480Y340224D01*
X254462Y340103D01*
X254453Y339983D01*
Y339845D01*
X254443Y339687D01*
Y339012D01*
X259787D01*
Y336433D01*
X246991D01*
Y342054D01*
X247001Y342193D01*
Y342369D01*
X247010Y342563D01*
X247019Y342775D01*
X247038Y343007D01*
X247056Y343247D01*
X247075Y343487D01*
X247139Y343987D01*
X247176Y344218D01*
X247223Y344440D01*
X247278Y344652D01*
X247343Y344837D01*
Y344846D01*
X247361Y344874D01*
X247380Y344930D01*
X247407Y344994D01*
X247444Y345068D01*
X247500Y345161D01*
X247555Y345262D01*
X247620Y345373D01*
X247703Y345494D01*
X247796Y345614D01*
X247897Y345734D01*
X248008Y345863D01*
X248129Y345984D01*
X248267Y346104D01*
X248415Y346215D01*
X248572Y346326D01*
X248582Y346335D01*
X248609Y346353D01*
X248665Y346381D01*
X248730Y346418D01*
X248813Y346455D01*
X248905Y346501D01*
X249025Y346557D01*
X249155Y346612D01*
X249294Y346659D01*
X249451Y346714D01*
X249617Y346760D01*
X249793Y346806D01*
X249978Y346834D01*
X250172Y346862D01*
X250366Y346880D01*
X250579Y346890D01*
X250597D01*
X250643D01*
X250717Y346880D01*
X250819D01*
X250939Y346862D01*
X251087Y346843D01*
X251244Y346816D01*
X251420Y346788D01*
X251605Y346742D01*
X251799Y346686D01*
X251993Y346612D01*
X252197Y346529D01*
X252391Y346437D01*
X252594Y346316D01*
X252779Y346187D01*
X252964Y346039D01*
X252973Y346030D01*
X253001Y346002D01*
X253047Y345947D01*
X253112Y345882D01*
X253186Y345789D01*
X253269Y345688D01*
X253362Y345558D01*
X253463Y345410D01*
X253565Y345235D01*
X253657Y345050D01*
X253759Y344846D01*
X253852Y344615D01*
X253944Y344366D01*
X254018Y344098D01*
X254083Y343811D01*
X254138Y343506D01*
X254147Y343515D01*
X254157Y343543D01*
X254184Y343589D01*
X254221Y343644D01*
X254268Y343718D01*
X254323Y343802D01*
X254388Y343894D01*
X254453Y343996D01*
X254619Y344218D01*
X254804Y344449D01*
X255007Y344680D01*
X255220Y344893D01*
X255229Y344902D01*
X255248Y344920D01*
X255285Y344948D01*
X255331Y344994D01*
X255396Y345050D01*
X255479Y345115D01*
X255581Y345188D01*
X255701Y345281D01*
X255830Y345383D01*
X255978Y345494D01*
X256154Y345614D01*
X256339Y345743D01*
X256551Y345882D01*
X256773Y346030D01*
X257023Y346196D01*
X257291Y346363D01*
X259787Y347925D01*
Y344828D01*
D02*
G37*
G36*
X200393Y387962D02*
X200522D01*
X200689Y387953D01*
X200864Y387935D01*
X201059Y387925D01*
X201262Y387898D01*
X201484Y387879D01*
X201937Y387805D01*
X202399Y387704D01*
X202621Y387648D01*
X202843Y387574D01*
X202861Y387565D01*
X202908Y387556D01*
X202982Y387528D01*
X203074Y387482D01*
X203194Y387435D01*
X203333Y387380D01*
X203481Y387306D01*
X203647Y387223D01*
X203823Y387130D01*
X204008Y387029D01*
X204193Y386918D01*
X204387Y386797D01*
X204572Y386659D01*
X204757Y386520D01*
X204942Y386372D01*
X205108Y386206D01*
X205117Y386197D01*
X205136Y386178D01*
X205173Y386132D01*
X205219Y386086D01*
X205275Y386012D01*
X205330Y385928D01*
X205404Y385836D01*
X205478Y385725D01*
X205561Y385605D01*
X205644Y385466D01*
X205728Y385318D01*
X205811Y385161D01*
X205894Y384985D01*
X205977Y384800D01*
X206051Y384606D01*
X206125Y384394D01*
Y384384D01*
X206134Y384357D01*
X206153Y384301D01*
X206162Y384236D01*
X206190Y384153D01*
X206208Y384042D01*
X206236Y383922D01*
X206255Y383783D01*
X206282Y383626D01*
X206310Y383460D01*
X206329Y383266D01*
X206347Y383062D01*
X206366Y382840D01*
X206384Y382609D01*
X206393Y382360D01*
Y377247D01*
X193597D01*
Y382221D01*
X193607Y382360D01*
Y382517D01*
X193616Y382683D01*
X193625Y382868D01*
X193644Y383062D01*
X193662Y383256D01*
X193699Y383663D01*
X193727Y383857D01*
X193764Y384052D01*
X193801Y384227D01*
X193847Y384394D01*
Y384403D01*
X193866Y384440D01*
X193884Y384505D01*
X193912Y384579D01*
X193949Y384680D01*
X193995Y384791D01*
X194050Y384921D01*
X194115Y385059D01*
X194198Y385207D01*
X194282Y385364D01*
X194383Y385522D01*
X194485Y385688D01*
X194605Y385845D01*
X194735Y386012D01*
X194873Y386169D01*
X195030Y386326D01*
X195040Y386335D01*
X195068Y386363D01*
X195114Y386400D01*
X195178Y386455D01*
X195262Y386529D01*
X195363Y386603D01*
X195474Y386687D01*
X195604Y386779D01*
X195752Y386881D01*
X195909Y386973D01*
X196075Y387075D01*
X196260Y387177D01*
X196454Y387278D01*
X196658Y387371D01*
X196880Y387463D01*
X197101Y387546D01*
X197111Y387556D01*
X197157Y387565D01*
X197222Y387583D01*
X197323Y387611D01*
X197444Y387648D01*
X197582Y387685D01*
X197749Y387722D01*
X197934Y387759D01*
X198146Y387796D01*
X198377Y387833D01*
X198627Y387870D01*
X198895Y387907D01*
X199172Y387935D01*
X199478Y387953D01*
X199792Y387972D01*
X200125D01*
X200143D01*
X200199D01*
X200282D01*
X200393Y387962D01*
D02*
G37*
G36*
X206393Y371931D02*
X198017Y366762D01*
X206393D01*
Y364368D01*
X193597D01*
Y366873D01*
X202168Y372125D01*
X193597D01*
Y374519D01*
X206393D01*
Y371931D01*
D02*
G37*
G36*
X204646Y361955D02*
X204674Y361927D01*
X204711Y361881D01*
X204766Y361816D01*
X204840Y361733D01*
X204914Y361622D01*
X205007Y361502D01*
X205108Y361363D01*
X205210Y361206D01*
X205321Y361030D01*
X205432Y360836D01*
X205552Y360623D01*
X205672Y360401D01*
X205792Y360152D01*
X205912Y359884D01*
X206024Y359606D01*
X206033Y359588D01*
X206051Y359542D01*
X206079Y359458D01*
X206116Y359338D01*
X206162Y359199D01*
X206208Y359033D01*
X206264Y358848D01*
X206319Y358645D01*
X206375Y358414D01*
X206430Y358173D01*
X206476Y357914D01*
X206523Y357646D01*
X206560Y357369D01*
X206588Y357082D01*
X206606Y356786D01*
X206615Y356490D01*
Y356352D01*
X206606Y356296D01*
Y356158D01*
X206588Y355982D01*
X206569Y355779D01*
X206541Y355547D01*
X206514Y355298D01*
X206467Y355030D01*
X206412Y354752D01*
X206338Y354466D01*
X206264Y354170D01*
X206162Y353865D01*
X206051Y353569D01*
X205922Y353273D01*
X205774Y352986D01*
X205765Y352968D01*
X205737Y352922D01*
X205681Y352848D01*
X205617Y352746D01*
X205534Y352617D01*
X205422Y352478D01*
X205302Y352321D01*
X205154Y352145D01*
X204997Y351969D01*
X204822Y351784D01*
X204618Y351600D01*
X204405Y351415D01*
X204174Y351230D01*
X203925Y351063D01*
X203657Y350897D01*
X203370Y350749D01*
X203351Y350740D01*
X203296Y350721D01*
X203213Y350684D01*
X203093Y350629D01*
X202945Y350573D01*
X202778Y350508D01*
X202575Y350444D01*
X202353Y350379D01*
X202113Y350305D01*
X201845Y350240D01*
X201567Y350176D01*
X201271Y350120D01*
X200957Y350074D01*
X200633Y350037D01*
X200301Y350009D01*
X199958Y350000D01*
X199949D01*
X199940D01*
X199903D01*
X199866D01*
X199820D01*
X199764Y350009D01*
X199625D01*
X199450Y350028D01*
X199247Y350046D01*
X199015Y350074D01*
X198766Y350102D01*
X198498Y350148D01*
X198211Y350203D01*
X197915Y350268D01*
X197619Y350351D01*
X197314Y350444D01*
X197009Y350555D01*
X196704Y350684D01*
X196408Y350832D01*
X196390Y350841D01*
X196343Y350869D01*
X196260Y350925D01*
X196149Y350989D01*
X196020Y351073D01*
X195872Y351183D01*
X195705Y351313D01*
X195530Y351452D01*
X195336Y351618D01*
X195141Y351803D01*
X194947Y351997D01*
X194744Y352219D01*
X194550Y352459D01*
X194365Y352718D01*
X194189Y352986D01*
X194023Y353282D01*
X194014Y353301D01*
X193995Y353338D01*
X193967Y353412D01*
X193921Y353504D01*
X193875Y353624D01*
X193819Y353772D01*
X193764Y353939D01*
X193699Y354123D01*
X193644Y354336D01*
X193588Y354577D01*
X193533Y354826D01*
X193486Y355094D01*
X193440Y355381D01*
X193412Y355695D01*
X193394Y356019D01*
X193385Y356352D01*
Y356509D01*
X193394Y356583D01*
Y356657D01*
X193403Y356740D01*
X193412Y356944D01*
X193440Y357175D01*
X193468Y357434D01*
X193514Y357711D01*
X193560Y357998D01*
X193634Y358303D01*
X193708Y358617D01*
X193810Y358922D01*
X193921Y359227D01*
X194060Y359523D01*
X194217Y359810D01*
X194393Y360069D01*
X194402Y360087D01*
X194439Y360124D01*
X194494Y360198D01*
X194577Y360281D01*
X194679Y360392D01*
X194799Y360512D01*
X194947Y360651D01*
X195114Y360790D01*
X195299Y360938D01*
X195502Y361076D01*
X195733Y361224D01*
X195973Y361363D01*
X196242Y361492D01*
X196528Y361613D01*
X196824Y361714D01*
X197148Y361797D01*
X197628Y359236D01*
X197619D01*
X197591Y359227D01*
X197536Y359209D01*
X197471Y359181D01*
X197397Y359153D01*
X197305Y359107D01*
X197203Y359061D01*
X197092Y359005D01*
X196981Y358941D01*
X196861Y358867D01*
X196732Y358783D01*
X196611Y358691D01*
X196491Y358580D01*
X196371Y358469D01*
X196251Y358349D01*
X196149Y358210D01*
X196140Y358201D01*
X196122Y358173D01*
X196094Y358136D01*
X196066Y358081D01*
X196020Y358007D01*
X195973Y357914D01*
X195927Y357812D01*
X195872Y357702D01*
X195816Y357572D01*
X195770Y357434D01*
X195724Y357276D01*
X195678Y357110D01*
X195650Y356944D01*
X195622Y356749D01*
X195604Y356555D01*
X195595Y356352D01*
Y356278D01*
X195604Y356185D01*
X195613Y356074D01*
X195631Y355926D01*
X195650Y355760D01*
X195687Y355584D01*
X195733Y355381D01*
X195789Y355168D01*
X195863Y354956D01*
X195946Y354725D01*
X196047Y354503D01*
X196177Y354281D01*
X196316Y354068D01*
X196482Y353855D01*
X196676Y353661D01*
X196685Y353652D01*
X196722Y353615D01*
X196787Y353569D01*
X196880Y353504D01*
X196991Y353430D01*
X197129Y353347D01*
X197286Y353255D01*
X197471Y353162D01*
X197684Y353070D01*
X197924Y352977D01*
X198183Y352894D01*
X198470Y352820D01*
X198784Y352755D01*
X199117Y352709D01*
X199478Y352672D01*
X199857Y352663D01*
X199866D01*
X199884D01*
X199912D01*
X199958D01*
X200014D01*
X200069Y352672D01*
X200143D01*
X200226Y352681D01*
X200421Y352691D01*
X200633Y352718D01*
X200874Y352746D01*
X201133Y352792D01*
X201410Y352838D01*
X201687Y352912D01*
X201974Y352986D01*
X202251Y353088D01*
X202529Y353199D01*
X202797Y353338D01*
X203046Y353495D01*
X203268Y353671D01*
X203277Y353680D01*
X203314Y353717D01*
X203370Y353772D01*
X203444Y353855D01*
X203527Y353957D01*
X203629Y354077D01*
X203731Y354225D01*
X203832Y354382D01*
X203943Y354567D01*
X204045Y354762D01*
X204137Y354983D01*
X204230Y355224D01*
X204304Y355473D01*
X204359Y355742D01*
X204396Y356028D01*
X204405Y356324D01*
Y356407D01*
X204396Y356463D01*
Y356537D01*
X204387Y356629D01*
X204378Y356722D01*
X204368Y356833D01*
X204350Y356953D01*
X204331Y357082D01*
X204276Y357350D01*
X204193Y357646D01*
X204091Y357951D01*
Y357961D01*
X204073Y357988D01*
X204063Y358034D01*
X204036Y358090D01*
X204008Y358155D01*
X203971Y358238D01*
X203925Y358330D01*
X203878Y358432D01*
X203768Y358654D01*
X203638Y358885D01*
X203490Y359125D01*
X203324Y359357D01*
X201696D01*
Y356398D01*
X199533D01*
Y361964D01*
X204637D01*
X204646Y361955D01*
D02*
G37*
%LPC*%
G36*
X415111Y570845D02*
X413669D01*
Y562376D01*
X415869D01*
X415971Y562385D01*
X416082D01*
X416202Y562395D01*
X416461Y562404D01*
X416720Y562432D01*
X416960Y562459D01*
X417071Y562478D01*
X417164Y562496D01*
X417173D01*
X417191Y562506D01*
X417228Y562515D01*
X417265Y562524D01*
X417321Y562542D01*
X417385Y562570D01*
X417533Y562626D01*
X417700Y562691D01*
X417866Y562783D01*
X418042Y562894D01*
X418208Y563023D01*
X418218Y563033D01*
X418227Y563042D01*
X418245Y563060D01*
X418282Y563097D01*
X418310Y563134D01*
X418356Y563190D01*
X418402Y563245D01*
X418449Y563319D01*
X418504Y563402D01*
X418560Y563495D01*
X418615Y563596D01*
X418671Y563708D01*
X418726Y563828D01*
X418782Y563966D01*
X418837Y564105D01*
X418883Y564262D01*
Y564272D01*
X418893Y564299D01*
X418911Y564355D01*
X418929Y564419D01*
X418948Y564503D01*
X418966Y564614D01*
X418994Y564734D01*
X419022Y564882D01*
X419040Y565039D01*
X419068Y565215D01*
X419087Y565399D01*
X419114Y565612D01*
X419124Y565834D01*
X419142Y566074D01*
X419151Y566333D01*
Y566601D01*
Y566620D01*
Y566666D01*
Y566740D01*
Y566842D01*
X419142Y566971D01*
Y567110D01*
X419133Y567267D01*
X419114Y567443D01*
X419105Y567618D01*
X419087Y567803D01*
X419040Y568182D01*
X419003Y568367D01*
X418976Y568552D01*
X418929Y568719D01*
X418883Y568876D01*
Y568885D01*
X418874Y568913D01*
X418856Y568950D01*
X418837Y569005D01*
X418809Y569070D01*
X418772Y569153D01*
X418698Y569329D01*
X418587Y569532D01*
X418467Y569736D01*
X418319Y569930D01*
X418153Y570115D01*
X418144Y570124D01*
X418134Y570133D01*
X418107Y570161D01*
X418070Y570189D01*
X418023Y570226D01*
X417968Y570263D01*
X417829Y570355D01*
X417654Y570457D01*
X417450Y570559D01*
X417210Y570642D01*
X416951Y570716D01*
X416942D01*
X416923Y570725D01*
X416886D01*
X416840Y570734D01*
X416775Y570743D01*
X416692Y570753D01*
X416600Y570771D01*
X416479Y570780D01*
X416350Y570790D01*
X416193Y570808D01*
X416017Y570817D01*
X415823Y570827D01*
X415610Y570836D01*
X415370D01*
X415111Y570845D01*
D02*
G37*
G36*
X462449Y567812D02*
X462375D01*
X462319Y567803D01*
X462245Y567794D01*
X462162Y567785D01*
X462079Y567766D01*
X461977Y567739D01*
X461774Y567665D01*
X461663Y567618D01*
X461552Y567563D01*
X461432Y567498D01*
X461330Y567415D01*
X461219Y567323D01*
X461117Y567221D01*
X461108Y567212D01*
X461099Y567193D01*
X461071Y567156D01*
X461034Y567110D01*
X460997Y567054D01*
X460951Y566980D01*
X460905Y566897D01*
X460858Y566805D01*
X460803Y566694D01*
X460757Y566574D01*
X460720Y566444D01*
X460673Y566306D01*
X460646Y566148D01*
X460618Y565991D01*
X460599Y565816D01*
Y565631D01*
X464279D01*
Y565640D01*
Y565677D01*
X464270Y565732D01*
Y565806D01*
X464261Y565899D01*
X464242Y566000D01*
X464224Y566111D01*
X464196Y566231D01*
X464131Y566490D01*
X464030Y566758D01*
X463974Y566897D01*
X463900Y567017D01*
X463817Y567138D01*
X463724Y567248D01*
X463715Y567258D01*
X463697Y567276D01*
X463669Y567304D01*
X463632Y567341D01*
X463577Y567378D01*
X463521Y567424D01*
X463447Y567480D01*
X463364Y567535D01*
X463179Y567637D01*
X462966Y567729D01*
X462846Y567757D01*
X462717Y567785D01*
X462587Y567803D01*
X462449Y567812D01*
D02*
G37*
G36*
X427667D02*
X427593D01*
X427537Y567803D01*
X427463Y567794D01*
X427380Y567785D01*
X427297Y567766D01*
X427195Y567739D01*
X426992Y567665D01*
X426881Y567618D01*
X426770Y567563D01*
X426650Y567498D01*
X426548Y567415D01*
X426437Y567323D01*
X426335Y567221D01*
X426326Y567212D01*
X426317Y567193D01*
X426289Y567156D01*
X426252Y567110D01*
X426215Y567054D01*
X426169Y566980D01*
X426123Y566897D01*
X426076Y566805D01*
X426021Y566694D01*
X425975Y566574D01*
X425938Y566444D01*
X425891Y566306D01*
X425864Y566148D01*
X425836Y565991D01*
X425817Y565816D01*
Y565631D01*
X429497D01*
Y565640D01*
Y565677D01*
X429488Y565732D01*
Y565806D01*
X429479Y565899D01*
X429460Y566000D01*
X429442Y566111D01*
X429414Y566231D01*
X429349Y566490D01*
X429248Y566758D01*
X429192Y566897D01*
X429118Y567017D01*
X429035Y567138D01*
X428942Y567248D01*
X428933Y567258D01*
X428915Y567276D01*
X428887Y567304D01*
X428850Y567341D01*
X428795Y567378D01*
X428739Y567424D01*
X428665Y567480D01*
X428582Y567535D01*
X428397Y567637D01*
X428184Y567729D01*
X428064Y567757D01*
X427935Y567785D01*
X427805Y567803D01*
X427667Y567812D01*
D02*
G37*
G36*
X232959Y570854D02*
X231517D01*
Y562385D01*
X233718D01*
X233819Y562395D01*
X233930D01*
X234050Y562404D01*
X234309Y562413D01*
X234568Y562441D01*
X234809Y562469D01*
X234919Y562487D01*
X235012Y562506D01*
X235021D01*
X235040Y562515D01*
X235077Y562524D01*
X235114Y562533D01*
X235169Y562552D01*
X235234Y562579D01*
X235382Y562635D01*
X235548Y562700D01*
X235715Y562792D01*
X235890Y562903D01*
X236057Y563033D01*
X236066Y563042D01*
X236075Y563051D01*
X236094Y563070D01*
X236131Y563106D01*
X236158Y563144D01*
X236205Y563199D01*
X236251Y563255D01*
X236297Y563328D01*
X236353Y563412D01*
X236408Y563504D01*
X236464Y563606D01*
X236519Y563717D01*
X236574Y563837D01*
X236630Y563976D01*
X236685Y564114D01*
X236732Y564272D01*
Y564281D01*
X236741Y564309D01*
X236759Y564364D01*
X236778Y564429D01*
X236796Y564512D01*
X236815Y564623D01*
X236843Y564743D01*
X236870Y564891D01*
X236889Y565048D01*
X236917Y565224D01*
X236935Y565409D01*
X236963Y565621D01*
X236972Y565843D01*
X236991Y566084D01*
X237000Y566343D01*
Y566611D01*
Y566629D01*
Y566675D01*
Y566749D01*
Y566851D01*
X236991Y566981D01*
Y567119D01*
X236981Y567276D01*
X236963Y567452D01*
X236954Y567628D01*
X236935Y567813D01*
X236889Y568192D01*
X236852Y568377D01*
X236824Y568561D01*
X236778Y568728D01*
X236732Y568885D01*
Y568894D01*
X236722Y568922D01*
X236704Y568959D01*
X236685Y569015D01*
X236658Y569079D01*
X236621Y569162D01*
X236547Y569338D01*
X236436Y569542D01*
X236316Y569745D01*
X236168Y569939D01*
X236001Y570124D01*
X235992Y570133D01*
X235983Y570142D01*
X235955Y570170D01*
X235918Y570198D01*
X235872Y570235D01*
X235816Y570272D01*
X235678Y570364D01*
X235502Y570466D01*
X235299Y570568D01*
X235058Y570651D01*
X234799Y570725D01*
X234790D01*
X234772Y570734D01*
X234735D01*
X234688Y570743D01*
X234624Y570753D01*
X234541Y570762D01*
X234448Y570780D01*
X234328Y570790D01*
X234198Y570799D01*
X234041Y570817D01*
X233866Y570827D01*
X233671Y570836D01*
X233459Y570845D01*
X233218D01*
X232959Y570854D01*
D02*
G37*
G36*
X198150Y570891D02*
X195792D01*
Y567933D01*
X198131D01*
X198288Y567942D01*
X198760D01*
X198908Y567951D01*
X199047D01*
X199176Y567961D01*
X199278D01*
X199361Y567970D01*
X199389D01*
X199426Y567979D01*
X199472Y567988D01*
X199527Y567997D01*
X199592Y568016D01*
X199740Y568062D01*
X199906Y568118D01*
X200073Y568201D01*
X200239Y568302D01*
X200396Y568432D01*
X200415Y568451D01*
X200461Y568497D01*
X200517Y568589D01*
X200591Y568700D01*
X200665Y568839D01*
X200720Y569015D01*
X200766Y569209D01*
X200785Y569431D01*
Y569440D01*
Y569458D01*
Y569486D01*
X200776Y569532D01*
X200766Y569634D01*
X200748Y569773D01*
X200702Y569930D01*
X200646Y570087D01*
X200563Y570244D01*
X200452Y570392D01*
X200433Y570410D01*
X200387Y570448D01*
X200313Y570512D01*
X200212Y570586D01*
X200073Y570669D01*
X199906Y570743D01*
X199712Y570799D01*
X199481Y570845D01*
X199435D01*
X199389Y570854D01*
X199333D01*
X199259Y570864D01*
X199167D01*
X199056Y570873D01*
X198769D01*
X198594Y570882D01*
X198381D01*
X198150Y570891D01*
D02*
G37*
G36*
X198196Y565806D02*
X195792D01*
Y562385D01*
X198649D01*
X198788Y562395D01*
X198936D01*
X199231Y562404D01*
X199379Y562413D01*
X199527D01*
X199657Y562422D01*
X199777Y562432D01*
X199879Y562450D01*
X199962Y562459D01*
X199971D01*
X199990Y562469D01*
X200017D01*
X200054Y562478D01*
X200165Y562515D01*
X200295Y562561D01*
X200443Y562626D01*
X200600Y562718D01*
X200748Y562829D01*
X200896Y562968D01*
Y562977D01*
X200914Y562986D01*
X200951Y563042D01*
X201016Y563134D01*
X201081Y563254D01*
X201145Y563412D01*
X201210Y563596D01*
X201247Y563818D01*
X201266Y564059D01*
Y564068D01*
Y564087D01*
Y564114D01*
Y564151D01*
X201247Y564262D01*
X201229Y564392D01*
X201192Y564549D01*
X201145Y564706D01*
X201071Y564872D01*
X200979Y565030D01*
Y565039D01*
X200970Y565048D01*
X200923Y565094D01*
X200868Y565168D01*
X200776Y565261D01*
X200665Y565353D01*
X200526Y565455D01*
X200359Y565547D01*
X200175Y565621D01*
X200165D01*
X200147Y565631D01*
X200119Y565640D01*
X200064Y565649D01*
X199999Y565668D01*
X199916Y565677D01*
X199814Y565695D01*
X199694Y565714D01*
X199546Y565732D01*
X199379Y565751D01*
X199195Y565760D01*
X198982Y565779D01*
X198751Y565788D01*
X198492Y565797D01*
X198196Y565806D01*
D02*
G37*
G36*
X185298Y570032D02*
X183570Y565289D01*
X187073D01*
X185298Y570032D01*
D02*
G37*
G36*
X161759Y570854D02*
X160039D01*
Y567212D01*
X161694D01*
X161815Y567221D01*
X161953D01*
X162110Y567230D01*
X162268Y567239D01*
X162610Y567258D01*
X162943Y567295D01*
X163100Y567313D01*
X163248Y567341D01*
X163368Y567369D01*
X163479Y567406D01*
X163488D01*
X163507Y567415D01*
X163525Y567424D01*
X163562Y567443D01*
X163654Y567489D01*
X163775Y567563D01*
X163904Y567646D01*
X164043Y567757D01*
X164172Y567887D01*
X164292Y568034D01*
Y568044D01*
X164302Y568053D01*
X164320Y568081D01*
X164339Y568108D01*
X164385Y568201D01*
X164440Y568321D01*
X164496Y568469D01*
X164542Y568635D01*
X164579Y568829D01*
X164588Y569033D01*
Y569042D01*
Y569061D01*
Y569098D01*
X164579Y569153D01*
Y569209D01*
X164570Y569283D01*
X164533Y569440D01*
X164487Y569625D01*
X164413Y569819D01*
X164311Y570013D01*
X164246Y570105D01*
X164172Y570189D01*
Y570198D01*
X164154Y570207D01*
X164098Y570263D01*
X164015Y570337D01*
X163895Y570438D01*
X163738Y570531D01*
X163562Y570623D01*
X163359Y570706D01*
X163137Y570762D01*
X163118D01*
X163081Y570771D01*
X163044Y570780D01*
X162989D01*
X162915Y570790D01*
X162832Y570799D01*
X162730Y570808D01*
X162610Y570817D01*
X162480Y570827D01*
X162332Y570836D01*
X162157D01*
X161972Y570845D01*
X161759Y570854D01*
D02*
G37*
G36*
X130277Y383832D02*
X130009D01*
X129991D01*
X129944D01*
X129871D01*
X129769D01*
X129639Y383822D01*
X129501D01*
X129344Y383813D01*
X129168Y383795D01*
X128992Y383786D01*
X128807Y383767D01*
X128428Y383721D01*
X128243Y383684D01*
X128058Y383656D01*
X127892Y383610D01*
X127735Y383564D01*
X127726D01*
X127698Y383554D01*
X127661Y383536D01*
X127605Y383517D01*
X127541Y383490D01*
X127457Y383453D01*
X127282Y383379D01*
X127078Y383268D01*
X126875Y383148D01*
X126681Y383000D01*
X126496Y382833D01*
X126487Y382824D01*
X126477Y382815D01*
X126450Y382787D01*
X126422Y382750D01*
X126385Y382704D01*
X126348Y382648D01*
X126256Y382510D01*
X126154Y382334D01*
X126052Y382131D01*
X125969Y381890D01*
X125895Y381631D01*
Y381622D01*
X125886Y381604D01*
Y381567D01*
X125876Y381520D01*
X125867Y381456D01*
X125858Y381372D01*
X125839Y381280D01*
X125830Y381160D01*
X125821Y381030D01*
X125802Y380873D01*
X125793Y380697D01*
X125784Y380503D01*
X125775Y380291D01*
Y380050D01*
X125765Y379791D01*
Y378349D01*
X134235D01*
Y380550D01*
X134225Y380651D01*
Y380762D01*
X134216Y380882D01*
X134207Y381141D01*
X134179Y381400D01*
X134151Y381641D01*
X134133Y381751D01*
X134114Y381844D01*
Y381853D01*
X134105Y381872D01*
X134096Y381909D01*
X134087Y381946D01*
X134068Y382001D01*
X134040Y382066D01*
X133985Y382214D01*
X133920Y382380D01*
X133828Y382547D01*
X133717Y382722D01*
X133587Y382889D01*
X133578Y382898D01*
X133569Y382907D01*
X133550Y382926D01*
X133513Y382963D01*
X133476Y382990D01*
X133421Y383037D01*
X133365Y383083D01*
X133291Y383129D01*
X133208Y383185D01*
X133116Y383240D01*
X133014Y383295D01*
X132903Y383351D01*
X132783Y383406D01*
X132644Y383462D01*
X132506Y383517D01*
X132348Y383564D01*
X132339D01*
X132311Y383573D01*
X132256Y383591D01*
X132191Y383610D01*
X132108Y383628D01*
X131997Y383647D01*
X131877Y383675D01*
X131729Y383702D01*
X131572Y383721D01*
X131396Y383749D01*
X131211Y383767D01*
X130998Y383795D01*
X130777Y383804D01*
X130536Y383822D01*
X130277Y383832D01*
D02*
G37*
G36*
Y370925D02*
X130009D01*
X129991D01*
X129944D01*
X129871D01*
X129769D01*
X129639Y370916D01*
X129501D01*
X129344Y370906D01*
X129168Y370888D01*
X128992Y370879D01*
X128807Y370860D01*
X128428Y370814D01*
X128243Y370777D01*
X128058Y370749D01*
X127892Y370703D01*
X127735Y370657D01*
X127726D01*
X127698Y370648D01*
X127661Y370629D01*
X127605Y370611D01*
X127541Y370583D01*
X127457Y370546D01*
X127282Y370472D01*
X127078Y370361D01*
X126875Y370241D01*
X126681Y370093D01*
X126496Y369926D01*
X126487Y369917D01*
X126477Y369908D01*
X126450Y369880D01*
X126422Y369843D01*
X126385Y369797D01*
X126348Y369741D01*
X126256Y369603D01*
X126154Y369427D01*
X126052Y369224D01*
X125969Y368983D01*
X125895Y368724D01*
Y368715D01*
X125886Y368697D01*
Y368660D01*
X125876Y368613D01*
X125867Y368549D01*
X125858Y368465D01*
X125839Y368373D01*
X125830Y368253D01*
X125821Y368123D01*
X125802Y367966D01*
X125793Y367791D01*
X125784Y367596D01*
X125775Y367384D01*
Y367143D01*
X125765Y366884D01*
Y365442D01*
X134235D01*
Y367643D01*
X134225Y367744D01*
Y367855D01*
X134216Y367976D01*
X134207Y368234D01*
X134179Y368493D01*
X134151Y368734D01*
X134133Y368845D01*
X134114Y368937D01*
Y368946D01*
X134105Y368965D01*
X134096Y369002D01*
X134087Y369039D01*
X134068Y369094D01*
X134040Y369159D01*
X133985Y369307D01*
X133920Y369473D01*
X133828Y369640D01*
X133717Y369815D01*
X133587Y369982D01*
X133578Y369991D01*
X133569Y370000D01*
X133550Y370019D01*
X133513Y370056D01*
X133476Y370084D01*
X133421Y370130D01*
X133365Y370176D01*
X133291Y370222D01*
X133208Y370278D01*
X133116Y370333D01*
X133014Y370389D01*
X132903Y370444D01*
X132783Y370499D01*
X132644Y370555D01*
X132506Y370611D01*
X132348Y370657D01*
X132339D01*
X132311Y370666D01*
X132256Y370685D01*
X132191Y370703D01*
X132108Y370721D01*
X131997Y370740D01*
X131877Y370768D01*
X131729Y370795D01*
X131572Y370814D01*
X131396Y370842D01*
X131211Y370860D01*
X130998Y370888D01*
X130777Y370897D01*
X130536Y370916D01*
X130277Y370925D01*
D02*
G37*
G36*
X501873Y380309D02*
X501605D01*
X501586D01*
X501540D01*
X501466D01*
X501364D01*
X501235Y380300D01*
X501096D01*
X500939Y380290D01*
X500763Y380272D01*
X500588Y380263D01*
X500403Y380244D01*
X500024Y380198D01*
X499839Y380161D01*
X499654Y380133D01*
X499487Y380087D01*
X499330Y380041D01*
X499321D01*
X499293Y380032D01*
X499256Y380013D01*
X499201Y379995D01*
X499136Y379967D01*
X499053Y379930D01*
X498877Y379856D01*
X498674Y379745D01*
X498470Y379625D01*
X498276Y379477D01*
X498091Y379310D01*
X498082Y379301D01*
X498073Y379292D01*
X498045Y379264D01*
X498017Y379227D01*
X497980Y379181D01*
X497943Y379126D01*
X497851Y378987D01*
X497749Y378811D01*
X497647Y378608D01*
X497564Y378367D01*
X497490Y378108D01*
Y378099D01*
X497481Y378081D01*
Y378044D01*
X497472Y377998D01*
X497463Y377933D01*
X497453Y377850D01*
X497435Y377757D01*
X497425Y377637D01*
X497416Y377508D01*
X497398Y377350D01*
X497389Y377175D01*
X497379Y376981D01*
X497370Y376768D01*
Y376527D01*
X497361Y376269D01*
Y374826D01*
X505830D01*
Y377027D01*
X505821Y377128D01*
Y377239D01*
X505811Y377360D01*
X505802Y377618D01*
X505774Y377877D01*
X505747Y378118D01*
X505728Y378229D01*
X505710Y378321D01*
Y378330D01*
X505700Y378349D01*
X505691Y378386D01*
X505682Y378423D01*
X505663Y378478D01*
X505636Y378543D01*
X505580Y378691D01*
X505515Y378857D01*
X505423Y379024D01*
X505312Y379199D01*
X505183Y379366D01*
X505173Y379375D01*
X505164Y379384D01*
X505146Y379403D01*
X505109Y379440D01*
X505072Y379468D01*
X505016Y379514D01*
X504961Y379560D01*
X504887Y379606D01*
X504804Y379662D01*
X504711Y379717D01*
X504609Y379773D01*
X504498Y379828D01*
X504378Y379884D01*
X504240Y379939D01*
X504101Y379995D01*
X503944Y380041D01*
X503935D01*
X503907Y380050D01*
X503851Y380069D01*
X503787Y380087D01*
X503703Y380106D01*
X503592Y380124D01*
X503472Y380152D01*
X503324Y380179D01*
X503167Y380198D01*
X502991Y380226D01*
X502807Y380244D01*
X502594Y380272D01*
X502372Y380281D01*
X502132Y380300D01*
X501873Y380309D01*
D02*
G37*
G36*
X399755Y395749D02*
X399736D01*
X399690D01*
X399616D01*
X399524Y395740D01*
X399404Y395731D01*
X399265Y395721D01*
X399117Y395703D01*
X398951Y395675D01*
X398599Y395601D01*
X398424Y395555D01*
X398248Y395499D01*
X398082Y395425D01*
X397915Y395342D01*
X397758Y395250D01*
X397619Y395148D01*
X397610Y395139D01*
X397592Y395120D01*
X397555Y395083D01*
X397508Y395046D01*
X397453Y394982D01*
X397397Y394917D01*
X397333Y394834D01*
X397268Y394741D01*
X397203Y394640D01*
X397138Y394519D01*
X397083Y394399D01*
X397028Y394270D01*
X396981Y394122D01*
X396944Y393974D01*
X396926Y393817D01*
X396917Y393650D01*
Y393567D01*
X396926Y393502D01*
X396935Y393428D01*
X396954Y393345D01*
X396972Y393243D01*
X397000Y393142D01*
X397037Y393031D01*
X397083Y392911D01*
X397138Y392790D01*
X397212Y392670D01*
X397286Y392550D01*
X397379Y392430D01*
X397490Y392310D01*
X397610Y392199D01*
X397619Y392189D01*
X397638Y392171D01*
X397684Y392143D01*
X397739Y392116D01*
X397813Y392069D01*
X397897Y392023D01*
X398008Y391968D01*
X398128Y391921D01*
X398266Y391866D01*
X398424Y391810D01*
X398590Y391764D01*
X398784Y391727D01*
X398988Y391690D01*
X399209Y391662D01*
X399441Y391644D01*
X399700Y391635D01*
X399718D01*
X399764D01*
X399838D01*
X399940Y391644D01*
X400060Y391653D01*
X400199Y391662D01*
X400356Y391681D01*
X400522Y391709D01*
X400874Y391773D01*
X401049Y391820D01*
X401225Y391875D01*
X401401Y391940D01*
X401567Y392014D01*
X401715Y392097D01*
X401854Y392199D01*
X401863Y392208D01*
X401881Y392226D01*
X401918Y392254D01*
X401965Y392300D01*
X402011Y392356D01*
X402066Y392421D01*
X402131Y392504D01*
X402196Y392587D01*
X402261Y392689D01*
X402325Y392800D01*
X402427Y393040D01*
X402473Y393170D01*
X402510Y393308D01*
X402529Y393456D01*
X402538Y393613D01*
Y393650D01*
X402529Y393697D01*
Y393761D01*
X402519Y393844D01*
X402501Y393928D01*
X402482Y394029D01*
X402445Y394140D01*
X402408Y394261D01*
X402362Y394381D01*
X402307Y394501D01*
X402242Y394630D01*
X402159Y394760D01*
X402066Y394889D01*
X401955Y395009D01*
X401835Y395130D01*
X401826Y395139D01*
X401798Y395157D01*
X401761Y395185D01*
X401706Y395231D01*
X401632Y395278D01*
X401539Y395324D01*
X401438Y395379D01*
X401308Y395444D01*
X401170Y395499D01*
X401022Y395555D01*
X400846Y395601D01*
X400661Y395657D01*
X400458Y395694D01*
X400236Y395721D01*
X400005Y395740D01*
X399755Y395749D01*
D02*
G37*
G36*
X399912Y374262D02*
X399903D01*
X399894D01*
X399838D01*
X399764D01*
X399653Y374253D01*
X399524Y374244D01*
X399376Y374235D01*
X399209Y374216D01*
X399025Y374188D01*
X398655Y374124D01*
X398461Y374077D01*
X398276Y374013D01*
X398091Y373948D01*
X397915Y373874D01*
X397758Y373782D01*
X397619Y373680D01*
X397610Y373671D01*
X397592Y373652D01*
X397555Y373624D01*
X397508Y373578D01*
X397453Y373523D01*
X397397Y373449D01*
X397333Y373375D01*
X397268Y373282D01*
X397203Y373181D01*
X397138Y373070D01*
X397083Y372949D01*
X397028Y372820D01*
X396981Y372681D01*
X396944Y372533D01*
X396926Y372376D01*
X396917Y372210D01*
Y372127D01*
X396926Y372062D01*
X396935Y371988D01*
X396954Y371895D01*
X396972Y371803D01*
X397000Y371692D01*
X397037Y371581D01*
X397083Y371461D01*
X397138Y371341D01*
X397212Y371211D01*
X397286Y371091D01*
X397379Y370971D01*
X397490Y370851D01*
X397610Y370740D01*
X397619Y370731D01*
X397638Y370712D01*
X397684Y370684D01*
X397739Y370647D01*
X397813Y370601D01*
X397897Y370555D01*
X398008Y370499D01*
X398128Y370453D01*
X398266Y370398D01*
X398414Y370342D01*
X398590Y370296D01*
X398775Y370250D01*
X398978Y370213D01*
X399200Y370185D01*
X399441Y370167D01*
X399690Y370157D01*
X399709D01*
X399755D01*
X399829D01*
X399921Y370167D01*
X400042Y370176D01*
X400180Y370185D01*
X400328Y370194D01*
X400495Y370213D01*
X400837Y370268D01*
X401188Y370351D01*
X401364Y370398D01*
X401530Y370462D01*
X401678Y370527D01*
X401817Y370610D01*
X401826Y370620D01*
X401854Y370638D01*
X401909Y370675D01*
X401965Y370731D01*
X402039Y370795D01*
X402122Y370869D01*
X402214Y370962D01*
X402298Y371063D01*
X402390Y371174D01*
X402482Y371304D01*
X402566Y371442D01*
X402640Y371590D01*
X402695Y371757D01*
X402741Y371923D01*
X402778Y372108D01*
X402788Y372302D01*
Y372339D01*
X402778Y372385D01*
Y372441D01*
X402769Y372506D01*
X402751Y372589D01*
X402732Y372681D01*
X402704Y372783D01*
X402667Y372885D01*
X402621Y372996D01*
X402566Y373116D01*
X402492Y373227D01*
X402418Y373347D01*
X402325Y373467D01*
X402214Y373578D01*
X402094Y373689D01*
X402085Y373698D01*
X402057Y373717D01*
X402020Y373745D01*
X401965Y373782D01*
X401891Y373819D01*
X401798Y373874D01*
X401687Y373920D01*
X401558Y373976D01*
X401419Y374031D01*
X401253Y374077D01*
X401077Y374133D01*
X400883Y374170D01*
X400670Y374207D01*
X400430Y374235D01*
X400180Y374253D01*
X399912Y374262D01*
D02*
G37*
G36*
X399099Y363408D02*
X399089D01*
X399052D01*
X398997Y363399D01*
X398923D01*
X398830Y363390D01*
X398729Y363371D01*
X398618Y363353D01*
X398498Y363325D01*
X398239Y363260D01*
X397971Y363158D01*
X397832Y363103D01*
X397712Y363029D01*
X397592Y362946D01*
X397481Y362853D01*
X397471Y362844D01*
X397453Y362826D01*
X397425Y362798D01*
X397388Y362761D01*
X397351Y362705D01*
X397305Y362650D01*
X397249Y362576D01*
X397194Y362493D01*
X397092Y362308D01*
X397000Y362095D01*
X396972Y361975D01*
X396944Y361846D01*
X396926Y361716D01*
X396917Y361577D01*
Y361503D01*
X396926Y361448D01*
X396935Y361374D01*
X396944Y361291D01*
X396963Y361208D01*
X396991Y361106D01*
X397065Y360902D01*
X397111Y360792D01*
X397166Y360681D01*
X397231Y360560D01*
X397314Y360459D01*
X397407Y360348D01*
X397508Y360246D01*
X397518Y360237D01*
X397536Y360228D01*
X397573Y360200D01*
X397619Y360163D01*
X397675Y360126D01*
X397749Y360080D01*
X397832Y360033D01*
X397924Y359987D01*
X398035Y359932D01*
X398155Y359885D01*
X398285Y359848D01*
X398424Y359802D01*
X398581Y359775D01*
X398738Y359747D01*
X398914Y359728D01*
X399099D01*
Y363408D01*
D02*
G37*
G36*
X398396Y353062D02*
X398128D01*
X398109D01*
X398063D01*
X397989D01*
X397887D01*
X397758Y353053D01*
X397619D01*
X397462Y353044D01*
X397286Y353025D01*
X397111Y353016D01*
X396926Y352997D01*
X396547Y352951D01*
X396362Y352914D01*
X396177Y352887D01*
X396011Y352840D01*
X395853Y352794D01*
X395844D01*
X395816Y352785D01*
X395779Y352766D01*
X395724Y352748D01*
X395659Y352720D01*
X395576Y352683D01*
X395400Y352609D01*
X395197Y352498D01*
X394993Y352378D01*
X394799Y352230D01*
X394614Y352064D01*
X394605Y352054D01*
X394596Y352045D01*
X394568Y352017D01*
X394540Y351980D01*
X394503Y351934D01*
X394466Y351879D01*
X394374Y351740D01*
X394272Y351564D01*
X394171Y351361D01*
X394087Y351121D01*
X394013Y350862D01*
Y350853D01*
X394004Y350834D01*
Y350797D01*
X393995Y350751D01*
X393986Y350686D01*
X393976Y350603D01*
X393958Y350510D01*
X393949Y350390D01*
X393939Y350261D01*
X393921Y350104D01*
X393912Y349928D01*
X393903Y349734D01*
X393893Y349521D01*
Y349281D01*
X393884Y349022D01*
Y347579D01*
X402353D01*
Y349780D01*
X402344Y349882D01*
Y349993D01*
X402335Y350113D01*
X402325Y350372D01*
X402298Y350631D01*
X402270Y350871D01*
X402251Y350982D01*
X402233Y351074D01*
Y351084D01*
X402224Y351102D01*
X402214Y351139D01*
X402205Y351176D01*
X402187Y351231D01*
X402159Y351296D01*
X402103Y351444D01*
X402039Y351611D01*
X401946Y351777D01*
X401835Y351953D01*
X401706Y352119D01*
X401697Y352128D01*
X401687Y352138D01*
X401669Y352156D01*
X401632Y352193D01*
X401595Y352221D01*
X401539Y352267D01*
X401484Y352313D01*
X401410Y352360D01*
X401327Y352415D01*
X401234Y352470D01*
X401133Y352526D01*
X401022Y352581D01*
X400901Y352637D01*
X400763Y352692D01*
X400624Y352748D01*
X400467Y352794D01*
X400458D01*
X400430Y352803D01*
X400374Y352822D01*
X400310Y352840D01*
X400227Y352859D01*
X400116Y352877D01*
X399995Y352905D01*
X399847Y352933D01*
X399690Y352951D01*
X399515Y352979D01*
X399330Y352997D01*
X399117Y353025D01*
X398895Y353034D01*
X398655Y353053D01*
X398396Y353062D01*
D02*
G37*
G36*
X254369Y374701D02*
X254360D01*
X254323D01*
X254268Y374691D01*
X254194D01*
X254101Y374682D01*
X254000Y374664D01*
X253889Y374645D01*
X253769Y374617D01*
X253510Y374553D01*
X253242Y374451D01*
X253103Y374395D01*
X252983Y374321D01*
X252862Y374238D01*
X252751Y374146D01*
X252742Y374137D01*
X252724Y374118D01*
X252696Y374090D01*
X252659Y374053D01*
X252622Y373998D01*
X252576Y373942D01*
X252520Y373868D01*
X252465Y373785D01*
X252363Y373600D01*
X252271Y373388D01*
X252243Y373267D01*
X252215Y373138D01*
X252197Y373009D01*
X252188Y372870D01*
Y372796D01*
X252197Y372740D01*
X252206Y372667D01*
X252215Y372583D01*
X252234Y372500D01*
X252261Y372398D01*
X252335Y372195D01*
X252382Y372084D01*
X252437Y371973D01*
X252502Y371853D01*
X252585Y371751D01*
X252677Y371640D01*
X252779Y371539D01*
X252788Y371529D01*
X252807Y371520D01*
X252844Y371492D01*
X252890Y371455D01*
X252946Y371418D01*
X253020Y371372D01*
X253103Y371326D01*
X253195Y371280D01*
X253306Y371224D01*
X253426Y371178D01*
X253556Y371141D01*
X253694Y371095D01*
X253852Y371067D01*
X254009Y371039D01*
X254184Y371021D01*
X254369D01*
Y374701D01*
D02*
G37*
G36*
Y354823D02*
X254360D01*
X254323D01*
X254268Y354813D01*
X254194D01*
X254101Y354804D01*
X254000Y354785D01*
X253889Y354767D01*
X253769Y354739D01*
X253510Y354674D01*
X253242Y354573D01*
X253103Y354517D01*
X252983Y354443D01*
X252862Y354360D01*
X252751Y354268D01*
X252742Y354258D01*
X252724Y354240D01*
X252696Y354212D01*
X252659Y354175D01*
X252622Y354120D01*
X252576Y354064D01*
X252520Y353990D01*
X252465Y353907D01*
X252363Y353722D01*
X252271Y353510D01*
X252243Y353389D01*
X252215Y353260D01*
X252197Y353130D01*
X252188Y352992D01*
Y352918D01*
X252197Y352862D01*
X252206Y352788D01*
X252215Y352705D01*
X252234Y352622D01*
X252261Y352520D01*
X252335Y352317D01*
X252382Y352206D01*
X252437Y352095D01*
X252502Y351975D01*
X252585Y351873D01*
X252677Y351762D01*
X252779Y351660D01*
X252788Y351651D01*
X252807Y351642D01*
X252844Y351614D01*
X252890Y351577D01*
X252946Y351540D01*
X253020Y351494D01*
X253103Y351448D01*
X253195Y351402D01*
X253306Y351346D01*
X253426Y351300D01*
X253556Y351263D01*
X253694Y351217D01*
X253852Y351189D01*
X254009Y351161D01*
X254184Y351143D01*
X254369D01*
Y354823D01*
D02*
G37*
G36*
X250745Y344227D02*
X250736D01*
X250717D01*
X250680D01*
X250634Y344218D01*
X250579D01*
X250523Y344208D01*
X250375Y344181D01*
X250209Y344144D01*
X250033Y344079D01*
X249867Y343996D01*
X249710Y343876D01*
X249700D01*
X249691Y343857D01*
X249645Y343811D01*
X249580Y343737D01*
X249497Y343626D01*
X249414Y343487D01*
X249331Y343321D01*
X249257Y343127D01*
X249201Y342905D01*
Y342868D01*
X249192Y342831D01*
Y342785D01*
X249183Y342720D01*
Y342646D01*
X249173Y342553D01*
Y342304D01*
X249164Y342156D01*
Y341980D01*
X249155Y341777D01*
Y339012D01*
X252400D01*
Y341213D01*
X252391Y341361D01*
Y341712D01*
X252382Y341906D01*
X252363Y342304D01*
X252354Y342498D01*
X252335Y342683D01*
X252317Y342849D01*
X252298Y343007D01*
X252280Y343136D01*
X252252Y343238D01*
Y343247D01*
X252243Y343256D01*
X252224Y343312D01*
X252178Y343395D01*
X252123Y343506D01*
X252049Y343617D01*
X251956Y343737D01*
X251845Y343857D01*
X251707Y343959D01*
X251688Y343968D01*
X251633Y344005D01*
X251549Y344042D01*
X251439Y344098D01*
X251300Y344144D01*
X251133Y344190D01*
X250949Y344218D01*
X250745Y344227D01*
D02*
G37*
G36*
X200273Y385309D02*
X200005D01*
X199986D01*
X199940D01*
X199866D01*
X199764D01*
X199635Y385300D01*
X199496D01*
X199339Y385290D01*
X199163Y385272D01*
X198988Y385263D01*
X198803Y385244D01*
X198424Y385198D01*
X198239Y385161D01*
X198054Y385133D01*
X197887Y385087D01*
X197730Y385041D01*
X197721D01*
X197693Y385032D01*
X197656Y385013D01*
X197601Y384995D01*
X197536Y384967D01*
X197453Y384930D01*
X197277Y384856D01*
X197074Y384745D01*
X196870Y384625D01*
X196676Y384477D01*
X196491Y384310D01*
X196482Y384301D01*
X196473Y384292D01*
X196445Y384264D01*
X196417Y384227D01*
X196380Y384181D01*
X196343Y384126D01*
X196251Y383987D01*
X196149Y383811D01*
X196047Y383608D01*
X195964Y383367D01*
X195890Y383108D01*
Y383099D01*
X195881Y383081D01*
Y383044D01*
X195872Y382998D01*
X195863Y382933D01*
X195853Y382850D01*
X195835Y382757D01*
X195826Y382637D01*
X195816Y382508D01*
X195798Y382350D01*
X195789Y382175D01*
X195779Y381981D01*
X195770Y381768D01*
Y381527D01*
X195761Y381269D01*
Y379826D01*
X204230D01*
Y382027D01*
X204221Y382128D01*
Y382239D01*
X204211Y382360D01*
X204202Y382618D01*
X204174Y382877D01*
X204147Y383118D01*
X204128Y383229D01*
X204110Y383321D01*
Y383330D01*
X204100Y383349D01*
X204091Y383386D01*
X204082Y383423D01*
X204063Y383478D01*
X204036Y383543D01*
X203980Y383691D01*
X203916Y383857D01*
X203823Y384024D01*
X203712Y384199D01*
X203583Y384366D01*
X203573Y384375D01*
X203564Y384384D01*
X203546Y384403D01*
X203509Y384440D01*
X203472Y384468D01*
X203416Y384514D01*
X203361Y384560D01*
X203287Y384606D01*
X203204Y384662D01*
X203111Y384717D01*
X203009Y384773D01*
X202899Y384828D01*
X202778Y384884D01*
X202640Y384939D01*
X202501Y384995D01*
X202344Y385041D01*
X202334D01*
X202307Y385050D01*
X202251Y385069D01*
X202187Y385087D01*
X202103Y385106D01*
X201992Y385124D01*
X201872Y385152D01*
X201724Y385179D01*
X201567Y385198D01*
X201391Y385226D01*
X201206Y385244D01*
X200994Y385272D01*
X200772Y385281D01*
X200532Y385300D01*
X200273Y385309D01*
D02*
G37*
%LPD*%
M02*
