G04*
G04 #@! TF.GenerationSoftware,Altium Limited,Altium Designer,24.3.1 (35)*
G04*
G04 Layer_Physical_Order=2*
G04 Layer_Color=16711680*
%FSLAX44Y44*%
%MOMM*%
G71*
G04*
G04 #@! TF.SameCoordinates,61AFF90D-CADD-405B-AF75-0EC62BA5F508*
G04*
G04*
G04 #@! TF.FilePolarity,Positive*
G04*
G01*
G75*
%ADD16C,0.6000*%
%ADD18C,2.0000*%
%ADD19C,3.2500*%
%ADD20C,1.5000*%
%ADD21C,1.8796*%
%ADD22C,2.3000*%
G36*
X500000Y588210D02*
X504413Y587863D01*
X508717Y586829D01*
X512807Y585135D01*
X516581Y582822D01*
X519947Y579947D01*
X522822Y576581D01*
X525135Y572807D01*
X526829Y568717D01*
X527863Y564413D01*
X528210Y560000D01*
X528216D01*
X528216Y560000D01*
Y330000D01*
X528216Y330000D01*
X528210D01*
X527863Y325587D01*
X526829Y321283D01*
X525135Y317193D01*
X522822Y313419D01*
X519947Y310053D01*
X516581Y307178D01*
X512807Y304865D01*
X508717Y303171D01*
X504413Y302137D01*
X500000Y301790D01*
Y301784D01*
X500000Y301784D01*
X130000D01*
X130000Y301784D01*
Y301790D01*
X125587Y302137D01*
X121283Y303171D01*
X117193Y304865D01*
X113419Y307178D01*
X110052Y310053D01*
X107178Y313419D01*
X104865Y317193D01*
X103171Y321283D01*
X102137Y325587D01*
X101790Y330000D01*
X101784D01*
Y560000D01*
X101784Y560000D01*
X101790D01*
X102137Y564413D01*
X103171Y568717D01*
X104865Y572807D01*
X107178Y576581D01*
X110053Y579948D01*
X113419Y582822D01*
X117193Y585135D01*
X121283Y586829D01*
X125587Y587863D01*
X130000Y588210D01*
Y588216D01*
X500000D01*
Y588210D01*
D02*
G37*
%LPC*%
G36*
X451699Y548050D02*
X448301D01*
X444968Y547387D01*
X441829Y546087D01*
X439004Y544199D01*
X436601Y541796D01*
X434713Y538971D01*
X433413Y535832D01*
X432750Y532499D01*
Y529101D01*
X433413Y525768D01*
X434713Y522629D01*
X436601Y519804D01*
X439004Y517401D01*
X441829Y515513D01*
X444968Y514213D01*
X448301Y513550D01*
X451699D01*
X455032Y514213D01*
X458171Y515513D01*
X460996Y517401D01*
X463399Y519804D01*
X465287Y522629D01*
X466587Y525768D01*
X467250Y529101D01*
Y532499D01*
X466587Y535832D01*
X465287Y538971D01*
X463399Y541796D01*
X460996Y544199D01*
X458171Y546087D01*
X455032Y547387D01*
X451699Y548050D01*
D02*
G37*
G36*
X181699D02*
X178301D01*
X174968Y547387D01*
X171829Y546087D01*
X169004Y544199D01*
X166601Y541796D01*
X164713Y538971D01*
X163413Y535832D01*
X162750Y532499D01*
Y529101D01*
X163413Y525768D01*
X164713Y522629D01*
X166601Y519804D01*
X169004Y517401D01*
X171829Y515513D01*
X174968Y514213D01*
X178301Y513550D01*
X181699D01*
X185032Y514213D01*
X188171Y515513D01*
X190996Y517401D01*
X193399Y519804D01*
X195287Y522629D01*
X196587Y525768D01*
X197250Y529101D01*
Y532499D01*
X196587Y535832D01*
X195287Y538971D01*
X193399Y541796D01*
X190996Y544199D01*
X188171Y546087D01*
X185032Y547387D01*
X181699Y548050D01*
D02*
G37*
G36*
X387619Y520250D02*
X385381D01*
X383219Y519671D01*
X381281Y518552D01*
X379698Y516969D01*
X378579Y515031D01*
X378000Y512869D01*
Y510631D01*
X378579Y508469D01*
X379698Y506531D01*
X381281Y504948D01*
X383219Y503829D01*
X385381Y503250D01*
X387619D01*
X389781Y503829D01*
X391719Y504948D01*
X393302Y506531D01*
X394421Y508469D01*
X395000Y510631D01*
Y512869D01*
X394421Y515031D01*
X393302Y516969D01*
X391719Y518552D01*
X389781Y519671D01*
X387619Y520250D01*
D02*
G37*
G36*
X270019D02*
X267781D01*
X265619Y519671D01*
X263681Y518552D01*
X262098Y516969D01*
X260979Y515031D01*
X260400Y512869D01*
Y510631D01*
X260979Y508469D01*
X262098Y506531D01*
X263681Y504948D01*
X264633Y504398D01*
X264293Y503128D01*
X250960D01*
X250302Y504269D01*
X248719Y505852D01*
X246781Y506971D01*
X244619Y507550D01*
X242381D01*
X240219Y506971D01*
X238281Y505852D01*
X236698Y504269D01*
X235579Y502331D01*
X235000Y500169D01*
Y497931D01*
X235579Y495769D01*
X236698Y493831D01*
X238281Y492248D01*
X240219Y491129D01*
X242381Y490550D01*
X244619D01*
X246781Y491129D01*
X248719Y492248D01*
X250302Y493831D01*
X250960Y494972D01*
X264293D01*
X264633Y493702D01*
X263681Y493152D01*
X262098Y491569D01*
X260979Y489631D01*
X260440Y487620D01*
X268900D01*
X277360D01*
X276821Y489631D01*
X275702Y491569D01*
X274119Y493152D01*
X273167Y493702D01*
X273507Y494972D01*
X353640D01*
X354298Y493831D01*
X355881Y492248D01*
X357819Y491129D01*
X359981Y490550D01*
X362219D01*
X364381Y491129D01*
X366319Y492248D01*
X367902Y493831D01*
X369021Y495769D01*
X369600Y497931D01*
Y500169D01*
X369021Y502331D01*
X367902Y504269D01*
X366319Y505852D01*
X364381Y506971D01*
X362219Y507550D01*
X359981D01*
X357819Y506971D01*
X355881Y505852D01*
X354298Y504269D01*
X353640Y503128D01*
X273507D01*
X273167Y504398D01*
X274119Y504948D01*
X275702Y506531D01*
X276821Y508469D01*
X277400Y510631D01*
Y512869D01*
X276821Y515031D01*
X275702Y516969D01*
X274119Y518552D01*
X272181Y519671D01*
X270019Y520250D01*
D02*
G37*
G36*
X387770Y494809D02*
Y487620D01*
X394959D01*
X394421Y489631D01*
X393302Y491569D01*
X391719Y493152D01*
X389781Y494271D01*
X387770Y494809D01*
D02*
G37*
G36*
X385230Y494809D02*
X383219Y494271D01*
X381281Y493152D01*
X379698Y491569D01*
X378579Y489631D01*
X378040Y487620D01*
X385230D01*
Y494809D01*
D02*
G37*
G36*
X394959Y485080D02*
X387770D01*
Y477891D01*
X389781Y478429D01*
X391719Y479548D01*
X393302Y481131D01*
X394421Y483069D01*
X394959Y485080D01*
D02*
G37*
G36*
X267630D02*
X260441D01*
X260979Y483069D01*
X262098Y481131D01*
X263681Y479548D01*
X265619Y478429D01*
X267630Y477891D01*
Y485080D01*
D02*
G37*
G36*
X277360D02*
X270170D01*
Y477890D01*
X272181Y478429D01*
X274119Y479548D01*
X275702Y481131D01*
X276821Y483069D01*
X277360Y485080D01*
D02*
G37*
G36*
X385230D02*
X378041D01*
X378579Y483069D01*
X379698Y481131D01*
X381281Y479548D01*
X383219Y478429D01*
X385230Y477890D01*
Y485080D01*
D02*
G37*
G36*
X362219Y482150D02*
X359981D01*
X357819Y481571D01*
X355881Y480452D01*
X354298Y478869D01*
X353179Y476931D01*
X352600Y474769D01*
Y472531D01*
X353179Y470369D01*
X354298Y468431D01*
X355881Y466848D01*
X357819Y465729D01*
X359981Y465150D01*
X362219D01*
X364381Y465729D01*
X366319Y466848D01*
X367902Y468431D01*
X369021Y470369D01*
X369600Y472531D01*
Y474769D01*
X369021Y476931D01*
X367902Y478869D01*
X366319Y480452D01*
X364381Y481571D01*
X362219Y482150D01*
D02*
G37*
G36*
X244619D02*
X242381D01*
X240219Y481571D01*
X238281Y480452D01*
X236698Y478869D01*
X235579Y476931D01*
X235000Y474769D01*
Y472531D01*
X235579Y470369D01*
X236698Y468431D01*
X238281Y466848D01*
X240219Y465729D01*
X242381Y465150D01*
X244619D01*
X246781Y465729D01*
X248719Y466848D01*
X250302Y468431D01*
X251421Y470369D01*
X252000Y472531D01*
Y474769D01*
X251421Y476931D01*
X250302Y478869D01*
X248719Y480452D01*
X246781Y481571D01*
X244619Y482150D01*
D02*
G37*
G36*
X387619Y469450D02*
X385381D01*
X383219Y468871D01*
X381281Y467752D01*
X379698Y466169D01*
X378579Y464231D01*
X378000Y462069D01*
Y459831D01*
X378579Y457669D01*
X379698Y455731D01*
X381281Y454148D01*
X383219Y453029D01*
X385381Y452450D01*
X387619D01*
X389781Y453029D01*
X391719Y454148D01*
X393302Y455731D01*
X394421Y457669D01*
X395000Y459831D01*
Y462069D01*
X394421Y464231D01*
X393302Y466169D01*
X391719Y467752D01*
X389781Y468871D01*
X387619Y469450D01*
D02*
G37*
G36*
X270019D02*
X267781D01*
X265619Y468871D01*
X263681Y467752D01*
X262098Y466169D01*
X260979Y464231D01*
X260400Y462069D01*
Y459831D01*
X260979Y457669D01*
X262098Y455731D01*
X263681Y454148D01*
X265619Y453029D01*
X267781Y452450D01*
X270019D01*
X272181Y453029D01*
X274119Y454148D01*
X275702Y455731D01*
X276821Y457669D01*
X277400Y459831D01*
Y462069D01*
X276821Y464231D01*
X275702Y466169D01*
X274119Y467752D01*
X272181Y468871D01*
X270019Y469450D01*
D02*
G37*
G36*
X362219Y456750D02*
X359981D01*
X357819Y456171D01*
X355881Y455052D01*
X354298Y453469D01*
X353179Y451531D01*
X352600Y449369D01*
Y447131D01*
X353179Y444969D01*
X354298Y443031D01*
X355881Y441448D01*
X357819Y440329D01*
X359981Y439750D01*
X362219D01*
X364381Y440329D01*
X366319Y441448D01*
X367902Y443031D01*
X369021Y444969D01*
X369600Y447131D01*
Y449369D01*
X369021Y451531D01*
X367902Y453469D01*
X366319Y455052D01*
X364381Y456171D01*
X362219Y456750D01*
D02*
G37*
G36*
X244619D02*
X242381D01*
X240219Y456171D01*
X238281Y455052D01*
X236698Y453469D01*
X235579Y451531D01*
X235000Y449369D01*
Y447131D01*
X235579Y444969D01*
X236698Y443031D01*
X238281Y441448D01*
X240219Y440329D01*
X242381Y439750D01*
X244619D01*
X246781Y440329D01*
X248719Y441448D01*
X250302Y443031D01*
X251421Y444969D01*
X252000Y447131D01*
Y449369D01*
X251421Y451531D01*
X250302Y453469D01*
X248719Y455052D01*
X246781Y456171D01*
X244619Y456750D01*
D02*
G37*
G36*
X451699Y446450D02*
X448301D01*
X444968Y445787D01*
X441829Y444487D01*
X439004Y442599D01*
X436601Y440196D01*
X434713Y437371D01*
X433413Y434232D01*
X432750Y430899D01*
Y427501D01*
X433413Y424168D01*
X434713Y421029D01*
X436601Y418204D01*
X439004Y415801D01*
X441829Y413913D01*
X444968Y412613D01*
X448301Y411950D01*
X451699D01*
X455032Y412613D01*
X458171Y413913D01*
X460996Y415801D01*
X463399Y418204D01*
X465287Y421029D01*
X466587Y424168D01*
X467250Y427501D01*
Y430899D01*
X466587Y434232D01*
X465287Y437371D01*
X463399Y440196D01*
X460996Y442599D01*
X458171Y444487D01*
X455032Y445787D01*
X451699Y446450D01*
D02*
G37*
G36*
X181699D02*
X178301D01*
X174968Y445787D01*
X171829Y444487D01*
X169004Y442599D01*
X166601Y440196D01*
X164713Y437371D01*
X163413Y434232D01*
X162750Y430899D01*
Y427501D01*
X163413Y424168D01*
X164713Y421029D01*
X166601Y418204D01*
X169004Y415801D01*
X171829Y413913D01*
X174968Y412613D01*
X178301Y411950D01*
X181699D01*
X185032Y412613D01*
X188171Y413913D01*
X190996Y415801D01*
X193399Y418204D01*
X195287Y421029D01*
X196587Y424168D01*
X197250Y427501D01*
Y430899D01*
X196587Y434232D01*
X195287Y437371D01*
X193399Y440196D01*
X190996Y442599D01*
X188171Y444487D01*
X185032Y445787D01*
X181699Y446450D01*
D02*
G37*
G36*
X323948Y403500D02*
X323770D01*
Y393770D01*
X333500D01*
Y393948D01*
X332750Y396746D01*
X331302Y399254D01*
X329254Y401302D01*
X326746Y402750D01*
X323948Y403500D01*
D02*
G37*
G36*
X321230D02*
X321052D01*
X318254Y402750D01*
X315746Y401302D01*
X313698Y399254D01*
X312250Y396746D01*
X311500Y393948D01*
Y393770D01*
X321230D01*
Y403500D01*
D02*
G37*
G36*
X333500Y391230D02*
X323770D01*
Y381500D01*
X323948D01*
X326746Y382250D01*
X329254Y383698D01*
X331302Y385746D01*
X332750Y388254D01*
X333500Y391052D01*
Y391230D01*
D02*
G37*
G36*
X321230D02*
X311500D01*
Y391052D01*
X312250Y388254D01*
X313698Y385746D01*
X315746Y383698D01*
X318254Y382250D01*
X321052Y381500D01*
X321230D01*
Y391230D01*
D02*
G37*
G36*
X278948Y403500D02*
X276052D01*
X273254Y402750D01*
X270746Y401302D01*
X268698Y399254D01*
X267250Y396746D01*
X266500Y393948D01*
Y391052D01*
X267250Y388254D01*
X268698Y385746D01*
X270746Y383698D01*
X273254Y382250D01*
X276052Y381500D01*
X278948D01*
X281746Y382250D01*
X284254Y383698D01*
X286302Y385746D01*
X287750Y388254D01*
X288500Y391052D01*
Y393948D01*
X287750Y396746D01*
X286302Y399254D01*
X284254Y401302D01*
X281746Y402750D01*
X278948Y403500D01*
D02*
G37*
G36*
X502969Y340398D02*
X502870D01*
Y331270D01*
X511998D01*
Y331369D01*
X511289Y334013D01*
X509920Y336385D01*
X507985Y338321D01*
X505614Y339689D01*
X502969Y340398D01*
D02*
G37*
G36*
X500330D02*
X500231D01*
X497587Y339689D01*
X495215Y338321D01*
X493279Y336385D01*
X491911Y334013D01*
X491202Y331369D01*
Y331270D01*
X500330D01*
Y340398D01*
D02*
G37*
G36*
X201646Y342500D02*
X201270D01*
Y331270D01*
X212500D01*
Y331646D01*
X211648Y334825D01*
X210002Y337675D01*
X207675Y340003D01*
X204825Y341648D01*
X201646Y342500D01*
D02*
G37*
G36*
X198730D02*
X198354D01*
X195175Y341648D01*
X192325Y340003D01*
X189998Y337675D01*
X188352Y334825D01*
X187500Y331646D01*
Y331270D01*
X198730D01*
Y342500D01*
D02*
G37*
G36*
X323948Y338500D02*
X323770D01*
Y328770D01*
X333500D01*
Y328948D01*
X332750Y331746D01*
X331302Y334254D01*
X329254Y336302D01*
X326746Y337750D01*
X323948Y338500D01*
D02*
G37*
G36*
X321230D02*
X321052D01*
X318254Y337750D01*
X315746Y336302D01*
X313698Y334254D01*
X312250Y331746D01*
X311500Y328948D01*
Y328770D01*
X321230D01*
Y338500D01*
D02*
G37*
G36*
X511998Y328730D02*
X502870D01*
Y319602D01*
X502969D01*
X505614Y320311D01*
X507985Y321679D01*
X509920Y323615D01*
X511289Y325987D01*
X511998Y328631D01*
Y328730D01*
D02*
G37*
G36*
X500330D02*
X491202D01*
Y328631D01*
X491911Y325987D01*
X493279Y323615D01*
X495215Y321679D01*
X497587Y320311D01*
X500231Y319602D01*
X500330D01*
Y328730D01*
D02*
G37*
G36*
X477569Y340398D02*
X474831D01*
X472187Y339689D01*
X469815Y338321D01*
X467879Y336385D01*
X466511Y334013D01*
X465802Y331369D01*
Y328631D01*
X466511Y325987D01*
X467879Y323615D01*
X469815Y321679D01*
X472187Y320311D01*
X474831Y319602D01*
X477569D01*
X480214Y320311D01*
X482584Y321679D01*
X484520Y323615D01*
X485889Y325987D01*
X486598Y328631D01*
Y331369D01*
X485889Y334013D01*
X484520Y336385D01*
X482584Y338321D01*
X480214Y339689D01*
X477569Y340398D01*
D02*
G37*
G36*
X452169D02*
X449431D01*
X446786Y339689D01*
X444416Y338321D01*
X442480Y336385D01*
X441111Y334013D01*
X440402Y331369D01*
Y328631D01*
X441111Y325987D01*
X442480Y323615D01*
X444416Y321679D01*
X446786Y320311D01*
X449431Y319602D01*
X452169D01*
X454813Y320311D01*
X457184Y321679D01*
X459120Y323615D01*
X460489Y325987D01*
X461198Y328631D01*
Y331369D01*
X460489Y334013D01*
X459120Y336385D01*
X457184Y338321D01*
X454813Y339689D01*
X452169Y340398D01*
D02*
G37*
G36*
X426769D02*
X424031D01*
X421386Y339689D01*
X419016Y338321D01*
X417080Y336385D01*
X415711Y334013D01*
X415002Y331369D01*
Y328631D01*
X415711Y325987D01*
X417080Y323615D01*
X419016Y321679D01*
X421386Y320311D01*
X424031Y319602D01*
X426769D01*
X429413Y320311D01*
X431785Y321679D01*
X433720Y323615D01*
X435089Y325987D01*
X435798Y328631D01*
Y331369D01*
X435089Y334013D01*
X433720Y336385D01*
X431785Y338321D01*
X429413Y339689D01*
X426769Y340398D01*
D02*
G37*
G36*
X401369D02*
X398631D01*
X395987Y339689D01*
X393615Y338321D01*
X391679Y336385D01*
X390311Y334013D01*
X389602Y331369D01*
Y328631D01*
X390311Y325987D01*
X391679Y323615D01*
X393615Y321679D01*
X395987Y320311D01*
X398631Y319602D01*
X401369D01*
X404013Y320311D01*
X406385Y321679D01*
X408320Y323615D01*
X409689Y325987D01*
X410398Y328631D01*
Y331369D01*
X409689Y334013D01*
X408320Y336385D01*
X406385Y338321D01*
X404013Y339689D01*
X401369Y340398D01*
D02*
G37*
G36*
X375969D02*
X373231D01*
X370587Y339689D01*
X368215Y338321D01*
X366279Y336385D01*
X364911Y334013D01*
X364202Y331369D01*
Y328631D01*
X364911Y325987D01*
X366279Y323615D01*
X368215Y321679D01*
X370587Y320311D01*
X373231Y319602D01*
X375969D01*
X378614Y320311D01*
X380984Y321679D01*
X382920Y323615D01*
X384289Y325987D01*
X384998Y328631D01*
Y331369D01*
X384289Y334013D01*
X382920Y336385D01*
X380984Y338321D01*
X378614Y339689D01*
X375969Y340398D01*
D02*
G37*
G36*
X212500Y328730D02*
X201270D01*
Y317500D01*
X201646D01*
X204825Y318352D01*
X207675Y319998D01*
X210002Y322325D01*
X211648Y325175D01*
X212500Y328354D01*
Y328730D01*
D02*
G37*
G36*
X198730D02*
X187500D01*
Y328354D01*
X188352Y325175D01*
X189998Y322325D01*
X192325Y319998D01*
X195175Y318352D01*
X198354Y317500D01*
X198730D01*
Y328730D01*
D02*
G37*
G36*
X131646Y342500D02*
X128354D01*
X125175Y341648D01*
X122325Y340003D01*
X119998Y337675D01*
X118352Y334825D01*
X117500Y331646D01*
Y328354D01*
X118352Y325175D01*
X119998Y322325D01*
X122325Y319998D01*
X125175Y318352D01*
X128354Y317500D01*
X131646D01*
X134825Y318352D01*
X137675Y319998D01*
X140002Y322325D01*
X141648Y325175D01*
X142500Y328354D01*
Y331646D01*
X141648Y334825D01*
X140002Y337675D01*
X137675Y340003D01*
X134825Y341648D01*
X131646Y342500D01*
D02*
G37*
G36*
X333500Y326230D02*
X323770D01*
Y316500D01*
X323948D01*
X326746Y317250D01*
X329254Y318698D01*
X331302Y320746D01*
X332750Y323254D01*
X333500Y326052D01*
Y326230D01*
D02*
G37*
G36*
X321230D02*
X311500D01*
Y326052D01*
X312250Y323254D01*
X313698Y320746D01*
X315746Y318698D01*
X318254Y317250D01*
X321052Y316500D01*
X321230D01*
Y326230D01*
D02*
G37*
G36*
X278948Y338500D02*
X276052D01*
X273254Y337750D01*
X270746Y336302D01*
X268698Y334254D01*
X267250Y331746D01*
X266500Y328948D01*
Y326052D01*
X267250Y323254D01*
X268698Y320746D01*
X270746Y318698D01*
X273254Y317250D01*
X276052Y316500D01*
X278948D01*
X281746Y317250D01*
X284254Y318698D01*
X286302Y320746D01*
X287750Y323254D01*
X288500Y326052D01*
Y328948D01*
X287750Y331746D01*
X286302Y334254D01*
X284254Y336302D01*
X281746Y337750D01*
X278948Y338500D01*
D02*
G37*
%LPD*%
D16*
X243500Y499050D02*
X361100D01*
D18*
X322500Y392500D02*
D03*
Y327500D02*
D03*
X277500D02*
D03*
Y392500D02*
D03*
D19*
X450000Y530800D02*
D03*
Y429200D02*
D03*
X180000Y530800D02*
D03*
Y429200D02*
D03*
D20*
X386500Y511750D02*
D03*
X361100Y499050D02*
D03*
X386500Y486350D02*
D03*
X361100Y473650D02*
D03*
X386500Y460950D02*
D03*
X361100Y448250D02*
D03*
X268900Y511750D02*
D03*
X243500Y499050D02*
D03*
X268900Y486350D02*
D03*
X243500Y473650D02*
D03*
X268900Y460950D02*
D03*
X243500Y448250D02*
D03*
D21*
X374600Y330000D02*
D03*
X400000D02*
D03*
X425400D02*
D03*
X450800D02*
D03*
X476200D02*
D03*
X501600D02*
D03*
D22*
X130000Y330000D02*
D03*
X200000D02*
D03*
M02*
