G04*
G04 #@! TF.GenerationSoftware,Altium Limited,Altium Designer,24.3.1 (35)*
G04*
G04 Layer_Color=32896*
%FSLAX44Y44*%
%MOMM*%
G71*
G04*
G04 #@! TF.SameCoordinates,61AFF90D-CADD-405B-AF75-0EC62BA5F508*
G04*
G04*
G04 #@! TF.FilePolarity,Positive*
G04*
G01*
G75*
G36*
X235207Y572851D02*
X235309Y572639D01*
X235420Y572435D01*
X235540Y572250D01*
X235669Y572066D01*
X235799Y571899D01*
X235928Y571742D01*
X236048Y571594D01*
X236178Y571465D01*
X236289Y571354D01*
X236390Y571252D01*
X236483Y571169D01*
X236557Y571104D01*
X236622Y571049D01*
X236659Y571021D01*
X236668Y571012D01*
X236880Y570854D01*
X237084Y570706D01*
X237278Y570577D01*
X237472Y570457D01*
X237648Y570346D01*
X237824Y570253D01*
X237981Y570170D01*
X238129Y570087D01*
X238267Y570022D01*
X238388Y569967D01*
X238489Y569930D01*
X238582Y569893D01*
X238656Y569865D01*
X238702Y569847D01*
X238739Y569828D01*
X238748D01*
Y567600D01*
X238415Y567720D01*
X238092Y567850D01*
X237777Y567997D01*
X237481Y568145D01*
X237204Y568293D01*
X236945Y568451D01*
X236705Y568608D01*
X236483Y568756D01*
X236280Y568894D01*
X236104Y569033D01*
X235947Y569153D01*
X235817Y569255D01*
X235716Y569338D01*
X235642Y569403D01*
X235595Y569440D01*
X235577Y569458D01*
Y560222D01*
X233127D01*
Y573064D01*
X235124D01*
X235207Y572851D01*
D02*
G37*
G36*
X246265Y560222D02*
X244055D01*
X240375Y569495D01*
X242899D01*
X244656Y564762D01*
X244711Y564614D01*
X244758Y564475D01*
X244804Y564336D01*
X244841Y564216D01*
X244878Y564123D01*
X244906Y564040D01*
X244915Y563994D01*
X244924Y563976D01*
X244933Y563939D01*
X244952Y563883D01*
X244980Y563772D01*
X245026Y563643D01*
X245063Y563504D01*
X245109Y563384D01*
X245137Y563282D01*
X245155Y563236D01*
X245165Y563208D01*
X245174Y563190D01*
Y563181D01*
X245682Y564762D01*
X247430Y569495D01*
X250000D01*
X246265Y560222D01*
D02*
G37*
G36*
X228939D02*
X226488D01*
Y562672D01*
X228939D01*
Y560222D01*
D02*
G37*
G36*
X220701Y573046D02*
X221015Y573009D01*
X221320Y572944D01*
X221597Y572861D01*
X221856Y572759D01*
X222097Y572648D01*
X222309Y572528D01*
X222504Y572408D01*
X222679Y572287D01*
X222836Y572167D01*
X222966Y572056D01*
X223068Y571955D01*
X223151Y571871D01*
X223216Y571807D01*
X223253Y571770D01*
X223262Y571751D01*
X223373Y571594D01*
X223484Y571428D01*
X223576Y571252D01*
X223678Y571067D01*
X223844Y570679D01*
X223983Y570272D01*
X224103Y569837D01*
X224205Y569403D01*
X224288Y568978D01*
X224353Y568552D01*
X224408Y568145D01*
X224445Y567775D01*
X224454Y567600D01*
X224473Y567434D01*
X224482Y567276D01*
X224491Y567138D01*
X224501Y567008D01*
Y566888D01*
Y566786D01*
X224510Y566703D01*
Y566638D01*
Y566583D01*
Y566555D01*
Y566546D01*
Y566204D01*
X224501Y565880D01*
X224482Y565566D01*
X224464Y565270D01*
X224436Y564983D01*
X224408Y564706D01*
X224371Y564447D01*
X224334Y564198D01*
X224288Y563957D01*
X224242Y563726D01*
X224195Y563513D01*
X224149Y563310D01*
X224103Y563116D01*
X224048Y562940D01*
X223992Y562764D01*
X223937Y562607D01*
X223890Y562459D01*
X223835Y562321D01*
X223780Y562201D01*
X223733Y562080D01*
X223687Y561979D01*
X223632Y561877D01*
X223595Y561794D01*
X223548Y561710D01*
X223511Y561646D01*
X223474Y561590D01*
X223447Y561544D01*
X223419Y561498D01*
X223382Y561452D01*
X223373Y561433D01*
X223151Y561183D01*
X222910Y560961D01*
X222670Y560767D01*
X222420Y560601D01*
X222162Y560462D01*
X221912Y560351D01*
X221672Y560259D01*
X221431Y560176D01*
X221218Y560120D01*
X221006Y560074D01*
X220830Y560046D01*
X220664Y560019D01*
X220534Y560009D01*
X220442Y560000D01*
X220359D01*
X220016Y560019D01*
X219702Y560056D01*
X219397Y560120D01*
X219120Y560203D01*
X218861Y560305D01*
X218620Y560416D01*
X218408Y560527D01*
X218214Y560656D01*
X218038Y560777D01*
X217881Y560888D01*
X217751Y560998D01*
X217650Y561100D01*
X217566Y561183D01*
X217502Y561248D01*
X217465Y561285D01*
X217456Y561304D01*
X217344Y561461D01*
X217234Y561627D01*
X217132Y561803D01*
X217039Y561988D01*
X216873Y562376D01*
X216725Y562792D01*
X216605Y563218D01*
X216503Y563652D01*
X216420Y564087D01*
X216355Y564512D01*
X216300Y564919D01*
X216263Y565298D01*
X216244Y565473D01*
X216235Y565640D01*
X216226Y565788D01*
X216217Y565936D01*
X216207Y566065D01*
Y566185D01*
X216198Y566287D01*
Y566370D01*
Y566435D01*
Y566490D01*
Y566518D01*
Y566527D01*
Y566860D01*
X216207Y567184D01*
X216226Y567498D01*
X216254Y567794D01*
X216281Y568081D01*
X216318Y568358D01*
X216355Y568617D01*
X216392Y568876D01*
X216439Y569116D01*
X216494Y569347D01*
X216540Y569560D01*
X216596Y569773D01*
X216651Y569967D01*
X216707Y570152D01*
X216771Y570327D01*
X216827Y570494D01*
X216882Y570651D01*
X216947Y570790D01*
X217003Y570919D01*
X217058Y571049D01*
X217113Y571159D01*
X217160Y571261D01*
X217215Y571354D01*
X217261Y571428D01*
X217298Y571502D01*
X217335Y571566D01*
X217372Y571613D01*
X217400Y571659D01*
X217428Y571696D01*
X217437Y571714D01*
X217456Y571733D01*
X217659Y571964D01*
X217881Y572177D01*
X218112Y572352D01*
X218352Y572500D01*
X218593Y572630D01*
X218833Y572740D01*
X219074Y572824D01*
X219295Y572898D01*
X219517Y572953D01*
X219711Y572990D01*
X219896Y573027D01*
X220054Y573046D01*
X220183Y573055D01*
X220275Y573064D01*
X220359D01*
X220701Y573046D01*
D02*
G37*
G36*
X292910Y570753D02*
X290460D01*
Y573018D01*
X292910D01*
Y570753D01*
D02*
G37*
G36*
X420000Y560222D02*
X417605D01*
Y570290D01*
X415081Y560222D01*
X412594D01*
X410061Y570290D01*
X410052Y560222D01*
X407657D01*
Y573018D01*
X411540D01*
X413824Y564281D01*
X416135Y573018D01*
X420000D01*
Y560222D01*
D02*
G37*
G36*
X356723Y563633D02*
X351906D01*
Y566084D01*
X356723D01*
Y563633D01*
D02*
G37*
G36*
X319990D02*
X315173D01*
Y566084D01*
X319990D01*
Y563633D01*
D02*
G37*
G36*
X340229Y573221D02*
X340469Y573212D01*
X340941Y573157D01*
X341375Y573064D01*
X341791Y572953D01*
X342180Y572824D01*
X342531Y572667D01*
X342864Y572509D01*
X343160Y572343D01*
X343419Y572177D01*
X343650Y572019D01*
X343853Y571871D01*
X344020Y571733D01*
X344149Y571622D01*
X344242Y571529D01*
X344269Y571502D01*
X344297Y571474D01*
X344306Y571465D01*
X344315Y571455D01*
X344463Y571289D01*
X344602Y571113D01*
X344861Y570734D01*
X345074Y570346D01*
X345268Y569939D01*
X345425Y569523D01*
X345564Y569116D01*
X345665Y568709D01*
X345758Y568312D01*
X345822Y567942D01*
X345878Y567600D01*
X345896Y567443D01*
X345915Y567295D01*
X345924Y567156D01*
X345933Y567027D01*
X345943Y566907D01*
X345952Y566805D01*
Y566712D01*
X345961Y566638D01*
Y566583D01*
Y566537D01*
Y566509D01*
Y566500D01*
X345952Y566222D01*
X345943Y565945D01*
X345887Y565427D01*
X345813Y564937D01*
X345702Y564484D01*
X345582Y564059D01*
X345443Y563661D01*
X345296Y563310D01*
X345138Y562986D01*
X344990Y562700D01*
X344842Y562450D01*
X344769Y562339D01*
X344704Y562237D01*
X344639Y562145D01*
X344584Y562062D01*
X344528Y561988D01*
X344473Y561923D01*
X344436Y561868D01*
X344399Y561821D01*
X344362Y561784D01*
X344343Y561757D01*
X344325Y561747D01*
Y561738D01*
X344168Y561581D01*
X344010Y561433D01*
X343844Y561294D01*
X343678Y561165D01*
X343326Y560934D01*
X342984Y560730D01*
X342624Y560564D01*
X342281Y560425D01*
X341939Y560305D01*
X341616Y560222D01*
X341311Y560148D01*
X341033Y560093D01*
X340774Y560056D01*
X340663Y560037D01*
X340562Y560028D01*
X340469Y560019D01*
X340386Y560009D01*
X340312D01*
X340247Y560000D01*
X340136D01*
X339757Y560009D01*
X339397Y560046D01*
X339055Y560093D01*
X338740Y560157D01*
X338435Y560240D01*
X338158Y560324D01*
X337899Y560416D01*
X337668Y560508D01*
X337455Y560601D01*
X337270Y560693D01*
X337113Y560786D01*
X336984Y560860D01*
X336882Y560925D01*
X336808Y560971D01*
X336762Y561008D01*
X336743Y561017D01*
X336503Y561220D01*
X336272Y561442D01*
X336068Y561683D01*
X335874Y561932D01*
X335699Y562191D01*
X335541Y562450D01*
X335403Y562709D01*
X335283Y562959D01*
X335172Y563190D01*
X335079Y563412D01*
X334996Y563615D01*
X334931Y563791D01*
X334885Y563929D01*
X334866Y563994D01*
X334848Y564040D01*
X334839Y564077D01*
X334829Y564105D01*
X334820Y564123D01*
Y564133D01*
X337326Y564928D01*
X337391Y564669D01*
X337464Y564429D01*
X337548Y564216D01*
X337631Y564003D01*
X337714Y563818D01*
X337807Y563652D01*
X337899Y563495D01*
X337982Y563365D01*
X338065Y563245D01*
X338139Y563144D01*
X338213Y563051D01*
X338278Y562986D01*
X338324Y562931D01*
X338361Y562885D01*
X338389Y562866D01*
X338398Y562857D01*
X338537Y562746D01*
X338685Y562644D01*
X338833Y562561D01*
X338990Y562487D01*
X339138Y562422D01*
X339286Y562367D01*
X339425Y562321D01*
X339554Y562293D01*
X339683Y562265D01*
X339804Y562247D01*
X339905Y562228D01*
X339989Y562219D01*
X340062Y562210D01*
X340164D01*
X340423Y562219D01*
X340663Y562256D01*
X340895Y562302D01*
X341107Y562367D01*
X341311Y562450D01*
X341496Y562533D01*
X341662Y562626D01*
X341819Y562727D01*
X341958Y562820D01*
X342078Y562912D01*
X342189Y562996D01*
X342272Y563079D01*
X342337Y563144D01*
X342392Y563190D01*
X342420Y563227D01*
X342429Y563236D01*
X342587Y563449D01*
X342716Y563680D01*
X342836Y563939D01*
X342929Y564207D01*
X343012Y564493D01*
X343086Y564780D01*
X343141Y565067D01*
X343188Y565344D01*
X343224Y565612D01*
X343252Y565862D01*
X343271Y566093D01*
X343280Y566287D01*
X343289Y566380D01*
Y566453D01*
X343298Y566518D01*
Y566583D01*
Y566620D01*
Y566657D01*
Y566675D01*
Y566685D01*
X343289Y567101D01*
X343261Y567489D01*
X343215Y567840D01*
X343160Y568173D01*
X343095Y568469D01*
X343021Y568737D01*
X342938Y568987D01*
X342855Y569199D01*
X342781Y569394D01*
X342697Y569551D01*
X342624Y569689D01*
X342559Y569800D01*
X342503Y569883D01*
X342457Y569948D01*
X342429Y569985D01*
X342420Y569995D01*
X342244Y570179D01*
X342069Y570337D01*
X341875Y570466D01*
X341690Y570586D01*
X341496Y570688D01*
X341301Y570771D01*
X341116Y570836D01*
X340932Y570891D01*
X340765Y570938D01*
X340608Y570965D01*
X340469Y570993D01*
X340349Y571002D01*
X340257Y571012D01*
X340183Y571021D01*
X340118D01*
X339924Y571012D01*
X339748Y570993D01*
X339572Y570965D01*
X339406Y570928D01*
X339258Y570882D01*
X339110Y570836D01*
X338981Y570780D01*
X338851Y570734D01*
X338750Y570679D01*
X338648Y570623D01*
X338565Y570577D01*
X338500Y570531D01*
X338445Y570494D01*
X338398Y570466D01*
X338380Y570448D01*
X338371Y570438D01*
X338241Y570327D01*
X338121Y570207D01*
X338010Y570078D01*
X337918Y569948D01*
X337834Y569819D01*
X337751Y569689D01*
X337622Y569440D01*
X337575Y569329D01*
X337529Y569218D01*
X337492Y569125D01*
X337464Y569042D01*
X337446Y568968D01*
X337427Y568922D01*
X337418Y568885D01*
Y568876D01*
X334857Y569486D01*
X334940Y569763D01*
X335042Y570032D01*
X335144Y570272D01*
X335246Y570503D01*
X335356Y570706D01*
X335467Y570901D01*
X335578Y571076D01*
X335680Y571233D01*
X335782Y571372D01*
X335874Y571492D01*
X335957Y571603D01*
X336031Y571686D01*
X336087Y571751D01*
X336133Y571797D01*
X336161Y571825D01*
X336170Y571834D01*
X336457Y572084D01*
X336753Y572297D01*
X337067Y572482D01*
X337381Y572639D01*
X337705Y572777D01*
X338019Y572888D01*
X338334Y572981D01*
X338629Y573055D01*
X338907Y573110D01*
X339166Y573157D01*
X339388Y573184D01*
X339591Y573212D01*
X339674D01*
X339757Y573221D01*
X339822D01*
X339878Y573231D01*
X339979D01*
X340229Y573221D01*
D02*
G37*
G36*
X273836Y569680D02*
X274160Y569643D01*
X274465Y569578D01*
X274752Y569495D01*
X275020Y569394D01*
X275269Y569283D01*
X275501Y569162D01*
X275713Y569042D01*
X275898Y568922D01*
X276064Y568802D01*
X276212Y568691D01*
X276333Y568589D01*
X276425Y568506D01*
X276490Y568441D01*
X276527Y568404D01*
X276545Y568386D01*
X276758Y568127D01*
X276943Y567859D01*
X277100Y567572D01*
X277239Y567276D01*
X277359Y566971D01*
X277451Y566675D01*
X277535Y566380D01*
X277599Y566093D01*
X277645Y565825D01*
X277682Y565575D01*
X277710Y565353D01*
X277729Y565159D01*
X277738Y565076D01*
Y565002D01*
Y564937D01*
X277747Y564882D01*
Y564835D01*
Y564808D01*
Y564789D01*
Y564780D01*
X277738Y564429D01*
X277710Y564087D01*
X277664Y563763D01*
X277599Y563467D01*
X277535Y563181D01*
X277461Y562922D01*
X277377Y562681D01*
X277285Y562459D01*
X277202Y562256D01*
X277118Y562080D01*
X277045Y561932D01*
X276971Y561812D01*
X276915Y561710D01*
X276869Y561637D01*
X276841Y561600D01*
X276832Y561581D01*
X276601Y561304D01*
X276342Y561063D01*
X276074Y560851D01*
X275787Y560675D01*
X275491Y560518D01*
X275195Y560398D01*
X274900Y560287D01*
X274613Y560203D01*
X274336Y560139D01*
X274077Y560093D01*
X273855Y560056D01*
X273651Y560037D01*
X273559Y560028D01*
X273485Y560019D01*
X273420D01*
X273356Y560009D01*
X273254D01*
X272976Y560019D01*
X272708Y560037D01*
X272449Y560074D01*
X272209Y560120D01*
X271987Y560166D01*
X271775Y560231D01*
X271590Y560296D01*
X271414Y560361D01*
X271257Y560425D01*
X271109Y560481D01*
X270998Y560546D01*
X270896Y560592D01*
X270813Y560638D01*
X270758Y560675D01*
X270721Y560693D01*
X270711Y560703D01*
X270526Y560841D01*
X270351Y560989D01*
X270194Y561156D01*
X270046Y561322D01*
X269916Y561488D01*
X269787Y561664D01*
X269676Y561831D01*
X269583Y561997D01*
X269491Y562145D01*
X269417Y562293D01*
X269352Y562422D01*
X269306Y562533D01*
X269260Y562626D01*
X269232Y562700D01*
X269223Y562737D01*
X269214Y562755D01*
X271654Y563162D01*
X271738Y562912D01*
X271830Y562709D01*
X271932Y562533D01*
X272033Y562395D01*
X272117Y562284D01*
X272191Y562210D01*
X272237Y562164D01*
X272246Y562145D01*
X272255D01*
X272412Y562043D01*
X272570Y561969D01*
X272736Y561914D01*
X272884Y561877D01*
X273023Y561858D01*
X273124Y561849D01*
X273171Y561840D01*
X273226D01*
X273383Y561849D01*
X273531Y561868D01*
X273670Y561895D01*
X273809Y561932D01*
X274049Y562034D01*
X274160Y562080D01*
X274252Y562145D01*
X274345Y562201D01*
X274419Y562247D01*
X274493Y562302D01*
X274548Y562348D01*
X274594Y562385D01*
X274622Y562413D01*
X274641Y562432D01*
X274650Y562441D01*
X274752Y562561D01*
X274835Y562691D01*
X274909Y562829D01*
X274983Y562968D01*
X275038Y563106D01*
X275084Y563245D01*
X275149Y563523D01*
X275177Y563652D01*
X275195Y563763D01*
X275214Y563874D01*
X275223Y563966D01*
Y564040D01*
X275232Y564096D01*
Y564133D01*
Y564142D01*
X269084D01*
X269093Y564650D01*
X269121Y565131D01*
X269177Y565575D01*
X269241Y565982D01*
X269334Y566361D01*
X269426Y566703D01*
X269537Y567017D01*
X269648Y567295D01*
X269759Y567535D01*
X269861Y567748D01*
X269962Y567924D01*
X270055Y568071D01*
X270129Y568182D01*
X270184Y568266D01*
X270231Y568312D01*
X270240Y568330D01*
X270471Y568571D01*
X270721Y568783D01*
X270979Y568968D01*
X271248Y569125D01*
X271525Y569255D01*
X271793Y569366D01*
X272061Y569458D01*
X272311Y569532D01*
X272551Y569588D01*
X272782Y569625D01*
X272976Y569662D01*
X273152Y569680D01*
X273300Y569689D01*
X273356D01*
X273402Y569699D01*
X273494D01*
X273836Y569680D01*
D02*
G37*
G36*
X405078Y560222D02*
X402498D01*
Y565048D01*
X400501D01*
X400196Y565057D01*
X399919Y565067D01*
X399660Y565076D01*
X399419Y565085D01*
X399197Y565104D01*
X399003Y565122D01*
X398828Y565141D01*
X398661Y565150D01*
X398532Y565168D01*
X398411Y565187D01*
X398319Y565196D01*
X398236Y565205D01*
X398190Y565215D01*
X398153Y565224D01*
X398143D01*
X397884Y565289D01*
X397644Y565381D01*
X397422Y565483D01*
X397219Y565584D01*
X397126Y565631D01*
X397043Y565677D01*
X396978Y565723D01*
X396914Y565760D01*
X396867Y565788D01*
X396830Y565816D01*
X396812Y565825D01*
X396803Y565834D01*
X396572Y566019D01*
X396359Y566222D01*
X396174Y566435D01*
X396017Y566638D01*
X395887Y566814D01*
X395841Y566897D01*
X395795Y566962D01*
X395767Y567017D01*
X395740Y567054D01*
X395730Y567082D01*
X395721Y567091D01*
X395647Y567248D01*
X395573Y567406D01*
X395471Y567739D01*
X395388Y568071D01*
X395360Y568238D01*
X395342Y568386D01*
X395323Y568534D01*
X395305Y568663D01*
X395296Y568783D01*
Y568885D01*
X395286Y568968D01*
Y569024D01*
Y569070D01*
Y569079D01*
X395296Y569356D01*
X395314Y569625D01*
X395351Y569874D01*
X395407Y570115D01*
X395462Y570337D01*
X395527Y570540D01*
X395592Y570725D01*
X395656Y570891D01*
X395730Y571049D01*
X395795Y571178D01*
X395860Y571298D01*
X395915Y571391D01*
X395961Y571465D01*
X395998Y571520D01*
X396026Y571557D01*
X396035Y571566D01*
X396174Y571742D01*
X396322Y571899D01*
X396479Y572047D01*
X396636Y572177D01*
X396794Y572287D01*
X396941Y572389D01*
X397089Y572482D01*
X397228Y572556D01*
X397367Y572630D01*
X397487Y572685D01*
X397598Y572731D01*
X397690Y572768D01*
X397764Y572787D01*
X397829Y572805D01*
X397866Y572824D01*
X397875D01*
X397949Y572842D01*
X398023Y572861D01*
X398208Y572888D01*
X398421Y572916D01*
X398652Y572935D01*
X398901Y572953D01*
X399160Y572972D01*
X399678Y572990D01*
X399928Y572999D01*
X400159Y573009D01*
X400372D01*
X400566Y573018D01*
X405078D01*
Y560222D01*
D02*
G37*
G36*
X393095D02*
X384090D01*
Y562385D01*
X390516D01*
Y572907D01*
X393095D01*
Y560222D01*
D02*
G37*
G36*
X383545D02*
X380808D01*
X379754Y563125D01*
X374632D01*
X373522Y560222D01*
X370712D01*
X375834Y573018D01*
X378580D01*
X383545Y560222D01*
D02*
G37*
G36*
X369325D02*
X364332D01*
X364138Y560231D01*
X363768D01*
X363602Y560240D01*
X363445D01*
X363158Y560250D01*
X362908D01*
X362687Y560259D01*
X362492Y560268D01*
X362326Y560277D01*
X362197D01*
X362086Y560287D01*
X362002Y560296D01*
X361938D01*
X361891Y560305D01*
X361864D01*
X361494Y560361D01*
X361318Y560398D01*
X361152Y560444D01*
X361004Y560490D01*
X360856Y560546D01*
X360727Y560592D01*
X360606Y560647D01*
X360495Y560693D01*
X360403Y560749D01*
X360320Y560786D01*
X360255Y560832D01*
X360200Y560860D01*
X360153Y560888D01*
X360135Y560897D01*
X360126Y560906D01*
X359876Y561110D01*
X359654Y561322D01*
X359469Y561544D01*
X359303Y561757D01*
X359182Y561942D01*
X359127Y562025D01*
X359090Y562090D01*
X359062Y562145D01*
X359035Y562191D01*
X359016Y562219D01*
Y562228D01*
X358942Y562385D01*
X358877Y562542D01*
X358785Y562848D01*
X358711Y563134D01*
X358683Y563264D01*
X358655Y563393D01*
X358646Y563504D01*
X358628Y563615D01*
X358619Y563698D01*
Y563781D01*
X358609Y563846D01*
Y563892D01*
Y563920D01*
Y563929D01*
X358619Y564133D01*
X358637Y564327D01*
X358665Y564521D01*
X358711Y564697D01*
X358757Y564872D01*
X358803Y565030D01*
X358868Y565177D01*
X358924Y565316D01*
X358979Y565436D01*
X359035Y565547D01*
X359090Y565640D01*
X359136Y565714D01*
X359182Y565779D01*
X359210Y565825D01*
X359229Y565853D01*
X359238Y565862D01*
X359358Y566010D01*
X359497Y566148D01*
X359636Y566278D01*
X359783Y566389D01*
X359931Y566490D01*
X360079Y566592D01*
X360227Y566675D01*
X360366Y566749D01*
X360505Y566814D01*
X360634Y566870D01*
X360745Y566916D01*
X360837Y566953D01*
X360921Y566980D01*
X360976Y566999D01*
X361022Y567017D01*
X361032D01*
X360736Y567175D01*
X360477Y567350D01*
X360255Y567544D01*
X360163Y567637D01*
X360070Y567720D01*
X359996Y567812D01*
X359922Y567887D01*
X359867Y567961D01*
X359811Y568025D01*
X359774Y568071D01*
X359746Y568108D01*
X359737Y568136D01*
X359728Y568145D01*
X359645Y568284D01*
X359562Y568432D01*
X359497Y568580D01*
X359441Y568719D01*
X359358Y568996D01*
X359303Y569246D01*
X359275Y569366D01*
X359266Y569468D01*
X359256Y569560D01*
X359247Y569643D01*
X359238Y569708D01*
Y569754D01*
Y569782D01*
Y569791D01*
Y569948D01*
X359256Y570096D01*
X359303Y570374D01*
X359367Y570632D01*
X359395Y570743D01*
X359432Y570854D01*
X359469Y570947D01*
X359506Y571039D01*
X359543Y571113D01*
X359571Y571169D01*
X359599Y571224D01*
X359617Y571261D01*
X359626Y571280D01*
X359636Y571289D01*
X359793Y571529D01*
X359950Y571733D01*
X360116Y571918D01*
X360273Y572075D01*
X360412Y572195D01*
X360514Y572278D01*
X360560Y572315D01*
X360588Y572334D01*
X360606Y572352D01*
X360616D01*
X360847Y572491D01*
X361078Y572611D01*
X361300Y572704D01*
X361503Y572777D01*
X361605Y572805D01*
X361688Y572824D01*
X361762Y572842D01*
X361827Y572861D01*
X361882Y572870D01*
X361919Y572879D01*
X361947Y572888D01*
X361956D01*
X362104Y572907D01*
X362261Y572935D01*
X362437Y572953D01*
X362622Y572962D01*
X362992Y572990D01*
X363362Y572999D01*
X363537Y573009D01*
X363694D01*
X363833Y573018D01*
X369325D01*
Y560222D01*
D02*
G37*
G36*
X350556D02*
X347977D01*
Y573018D01*
X350556D01*
Y560222D01*
D02*
G37*
G36*
X332611D02*
X327498D01*
X327248Y560231D01*
X327017Y560250D01*
X326795Y560268D01*
X326592Y560287D01*
X326398Y560305D01*
X326231Y560333D01*
X326074Y560361D01*
X325935Y560379D01*
X325815Y560407D01*
X325704Y560425D01*
X325621Y560453D01*
X325556Y560462D01*
X325501Y560481D01*
X325473Y560490D01*
X325464D01*
X325251Y560564D01*
X325057Y560638D01*
X324872Y560721D01*
X324696Y560804D01*
X324539Y560888D01*
X324391Y560971D01*
X324253Y561054D01*
X324132Y561137D01*
X324021Y561211D01*
X323929Y561285D01*
X323846Y561341D01*
X323772Y561396D01*
X323726Y561442D01*
X323679Y561479D01*
X323661Y561498D01*
X323652Y561507D01*
X323485Y561674D01*
X323337Y561858D01*
X323199Y562043D01*
X323060Y562228D01*
X322940Y562422D01*
X322829Y562607D01*
X322727Y562792D01*
X322635Y562968D01*
X322551Y563134D01*
X322477Y563282D01*
X322422Y563421D01*
X322376Y563541D01*
X322329Y563633D01*
X322302Y563708D01*
X322293Y563754D01*
X322283Y563772D01*
X322209Y563994D01*
X322154Y564216D01*
X322052Y564678D01*
X321978Y565131D01*
X321960Y565353D01*
X321932Y565557D01*
X321923Y565751D01*
X321904Y565926D01*
X321895Y566093D01*
Y566222D01*
X321886Y566333D01*
Y566416D01*
Y566472D01*
Y566490D01*
Y566823D01*
X321904Y567138D01*
X321923Y567443D01*
X321950Y567720D01*
X321987Y567988D01*
X322024Y568238D01*
X322061Y568469D01*
X322098Y568682D01*
X322135Y568867D01*
X322172Y569033D01*
X322209Y569172D01*
X322246Y569292D01*
X322274Y569394D01*
X322293Y569458D01*
X322302Y569505D01*
X322311Y569514D01*
X322394Y569736D01*
X322487Y569958D01*
X322579Y570161D01*
X322681Y570355D01*
X322783Y570540D01*
X322884Y570706D01*
X322977Y570864D01*
X323078Y571012D01*
X323171Y571141D01*
X323254Y571252D01*
X323328Y571354D01*
X323402Y571437D01*
X323457Y571502D01*
X323494Y571548D01*
X323522Y571576D01*
X323531Y571585D01*
X323689Y571742D01*
X323846Y571881D01*
X324012Y572010D01*
X324169Y572130D01*
X324336Y572232D01*
X324493Y572334D01*
X324650Y572417D01*
X324798Y572500D01*
X324937Y572565D01*
X325066Y572620D01*
X325177Y572667D01*
X325279Y572704D01*
X325353Y572731D01*
X325418Y572750D01*
X325454Y572768D01*
X325464D01*
X325630Y572814D01*
X325806Y572851D01*
X326000Y572888D01*
X326194Y572916D01*
X326601Y572953D01*
X326795Y572972D01*
X326989Y572990D01*
X327174Y572999D01*
X327341Y573009D01*
X327498D01*
X327636Y573018D01*
X332611D01*
Y560222D01*
D02*
G37*
G36*
X313824D02*
X311244D01*
Y573018D01*
X313824D01*
Y560222D01*
D02*
G37*
G36*
X303829Y569680D02*
X304153Y569634D01*
X304458Y569551D01*
X304744Y569449D01*
X305012Y569338D01*
X305271Y569199D01*
X305502Y569061D01*
X305706Y568913D01*
X305900Y568765D01*
X306066Y568626D01*
X306205Y568488D01*
X306325Y568377D01*
X306427Y568275D01*
X306492Y568192D01*
X306529Y568145D01*
X306547Y568127D01*
Y569495D01*
X308822D01*
Y560222D01*
X306372D01*
Y564410D01*
Y564688D01*
X306362Y564946D01*
X306353Y565187D01*
X306344Y565399D01*
X306325Y565594D01*
X306316Y565769D01*
X306298Y565917D01*
X306279Y566056D01*
X306261Y566176D01*
X306242Y566278D01*
X306233Y566361D01*
X306214Y566426D01*
X306205Y566472D01*
X306196Y566509D01*
X306187Y566527D01*
Y566537D01*
X306103Y566740D01*
X306002Y566925D01*
X305882Y567091D01*
X305771Y567221D01*
X305660Y567332D01*
X305576Y567406D01*
X305539Y567434D01*
X305512Y567452D01*
X305502Y567470D01*
X305493D01*
X305299Y567591D01*
X305096Y567674D01*
X304902Y567739D01*
X304726Y567775D01*
X304569Y567803D01*
X304504Y567812D01*
X304449D01*
X304402Y567822D01*
X304338D01*
X304162Y567812D01*
X303995Y567785D01*
X303848Y567739D01*
X303727Y567702D01*
X303626Y567655D01*
X303552Y567609D01*
X303505Y567581D01*
X303487Y567572D01*
X303367Y567470D01*
X303256Y567369D01*
X303173Y567248D01*
X303099Y567138D01*
X303043Y567045D01*
X303006Y566962D01*
X302988Y566907D01*
X302978Y566897D01*
Y566888D01*
X302951Y566796D01*
X302923Y566675D01*
X302904Y566546D01*
X302886Y566398D01*
X302868Y566241D01*
X302849Y566074D01*
X302831Y565751D01*
X302821Y565594D01*
Y565446D01*
Y565307D01*
X302812Y565187D01*
Y565085D01*
Y565011D01*
Y564965D01*
Y564946D01*
Y560222D01*
X300362D01*
Y565973D01*
Y566167D01*
X300371Y566352D01*
Y566527D01*
X300380Y566685D01*
X300390Y566833D01*
X300408Y566971D01*
X300417Y567091D01*
X300427Y567202D01*
X300445Y567304D01*
X300454Y567387D01*
X300464Y567461D01*
X300482Y567526D01*
X300491Y567572D01*
Y567600D01*
X300501Y567618D01*
Y567628D01*
X300565Y567840D01*
X300639Y568034D01*
X300713Y568201D01*
X300797Y568358D01*
X300870Y568478D01*
X300935Y568571D01*
X300954Y568608D01*
X300972Y568635D01*
X300991Y568645D01*
Y568654D01*
X301129Y568820D01*
X301296Y568959D01*
X301462Y569088D01*
X301629Y569199D01*
X301777Y569283D01*
X301841Y569320D01*
X301897Y569347D01*
X301943Y569375D01*
X301980Y569394D01*
X301998Y569403D01*
X302008D01*
X302267Y569505D01*
X302516Y569578D01*
X302766Y569625D01*
X302997Y569662D01*
X303099Y569671D01*
X303191Y569680D01*
X303274Y569689D01*
X303348Y569699D01*
X303487D01*
X303829Y569680D01*
D02*
G37*
G36*
X297875Y560222D02*
X295425D01*
Y573018D01*
X297875D01*
Y560222D01*
D02*
G37*
G36*
X292910D02*
X290460D01*
Y569495D01*
X292910D01*
Y560222D01*
D02*
G37*
G36*
X282980Y569680D02*
X283304Y569634D01*
X283609Y569551D01*
X283895Y569449D01*
X284164Y569338D01*
X284422Y569199D01*
X284654Y569061D01*
X284857Y568913D01*
X285051Y568765D01*
X285218Y568626D01*
X285356Y568488D01*
X285476Y568377D01*
X285578Y568275D01*
X285643Y568192D01*
X285680Y568145D01*
X285698Y568127D01*
Y569495D01*
X287973D01*
Y560222D01*
X285523D01*
Y564410D01*
Y564688D01*
X285513Y564946D01*
X285504Y565187D01*
X285495Y565399D01*
X285476Y565594D01*
X285467Y565769D01*
X285449Y565917D01*
X285430Y566056D01*
X285412Y566176D01*
X285393Y566278D01*
X285384Y566361D01*
X285366Y566426D01*
X285356Y566472D01*
X285347Y566509D01*
X285338Y566527D01*
Y566537D01*
X285255Y566740D01*
X285153Y566925D01*
X285033Y567091D01*
X284922Y567221D01*
X284811Y567332D01*
X284728Y567406D01*
X284691Y567434D01*
X284663Y567452D01*
X284654Y567470D01*
X284644D01*
X284450Y567591D01*
X284247Y567674D01*
X284053Y567739D01*
X283877Y567775D01*
X283720Y567803D01*
X283655Y567812D01*
X283600D01*
X283553Y567822D01*
X283489D01*
X283313Y567812D01*
X283147Y567785D01*
X282999Y567739D01*
X282878Y567702D01*
X282777Y567655D01*
X282703Y567609D01*
X282657Y567581D01*
X282638Y567572D01*
X282518Y567470D01*
X282407Y567369D01*
X282324Y567248D01*
X282250Y567138D01*
X282194Y567045D01*
X282157Y566962D01*
X282139Y566907D01*
X282130Y566897D01*
Y566888D01*
X282102Y566796D01*
X282074Y566675D01*
X282056Y566546D01*
X282037Y566398D01*
X282019Y566241D01*
X282000Y566074D01*
X281982Y565751D01*
X281972Y565594D01*
Y565446D01*
Y565307D01*
X281963Y565187D01*
Y565085D01*
Y565011D01*
Y564965D01*
Y564946D01*
Y560222D01*
X279513D01*
Y565973D01*
Y566167D01*
X279522Y566352D01*
Y566527D01*
X279532Y566685D01*
X279541Y566833D01*
X279559Y566971D01*
X279569Y567091D01*
X279578Y567202D01*
X279596Y567304D01*
X279606Y567387D01*
X279615Y567461D01*
X279633Y567526D01*
X279643Y567572D01*
Y567600D01*
X279652Y567618D01*
Y567628D01*
X279716Y567840D01*
X279790Y568034D01*
X279864Y568201D01*
X279948Y568358D01*
X280022Y568478D01*
X280086Y568571D01*
X280105Y568608D01*
X280123Y568635D01*
X280142Y568645D01*
Y568654D01*
X280280Y568820D01*
X280447Y568959D01*
X280613Y569088D01*
X280780Y569199D01*
X280928Y569283D01*
X280992Y569320D01*
X281048Y569347D01*
X281094Y569375D01*
X281131Y569394D01*
X281150Y569403D01*
X281159D01*
X281418Y569505D01*
X281667Y569578D01*
X281917Y569625D01*
X282148Y569662D01*
X282250Y569671D01*
X282342Y569680D01*
X282425Y569689D01*
X282499Y569699D01*
X282638D01*
X282980Y569680D01*
D02*
G37*
%LPC*%
G36*
X220433Y571030D02*
X220359D01*
X220201Y571021D01*
X220044Y570984D01*
X219915Y570938D01*
X219795Y570891D01*
X219702Y570836D01*
X219628Y570790D01*
X219591Y570753D01*
X219573Y570743D01*
X219508Y570688D01*
X219443Y570614D01*
X219332Y570448D01*
X219231Y570263D01*
X219147Y570069D01*
X219083Y569893D01*
X219055Y569819D01*
X219027Y569754D01*
X219018Y569699D01*
X219000Y569652D01*
X218990Y569625D01*
Y569615D01*
X218953Y569440D01*
X218916Y569246D01*
X218879Y569015D01*
X218861Y568774D01*
X218833Y568524D01*
X218815Y568266D01*
X218796Y568007D01*
X218787Y567757D01*
X218778Y567507D01*
X218768Y567285D01*
Y567073D01*
X218759Y566888D01*
Y566740D01*
Y566675D01*
Y566629D01*
Y566583D01*
Y566555D01*
Y566537D01*
Y566527D01*
Y566121D01*
X218768Y565742D01*
X218787Y565390D01*
X218796Y565076D01*
X218815Y564789D01*
X218842Y564521D01*
X218861Y564290D01*
X218889Y564087D01*
X218916Y563902D01*
X218935Y563745D01*
X218953Y563615D01*
X218981Y563513D01*
X218990Y563430D01*
X219009Y563375D01*
X219018Y563338D01*
Y563328D01*
X219055Y563199D01*
X219101Y563079D01*
X219138Y562968D01*
X219184Y562866D01*
X219231Y562774D01*
X219277Y562691D01*
X219360Y562542D01*
X219443Y562441D01*
X219508Y562367D01*
X219545Y562330D01*
X219564Y562311D01*
X219702Y562219D01*
X219832Y562154D01*
X219970Y562099D01*
X220091Y562071D01*
X220201Y562052D01*
X220285Y562043D01*
X220340Y562034D01*
X220359D01*
X220516Y562043D01*
X220673Y562080D01*
X220802Y562127D01*
X220923Y562173D01*
X221015Y562228D01*
X221089Y562265D01*
X221135Y562302D01*
X221154Y562311D01*
X221218Y562367D01*
X221274Y562441D01*
X221385Y562607D01*
X221487Y562792D01*
X221570Y562977D01*
X221635Y563153D01*
X221662Y563227D01*
X221681Y563291D01*
X221699Y563347D01*
X221718Y563393D01*
X221727Y563421D01*
Y563430D01*
X221764Y563606D01*
X221801Y563809D01*
X221829Y564031D01*
X221856Y564272D01*
X221875Y564521D01*
X221893Y564780D01*
X221912Y565039D01*
X221921Y565298D01*
X221930Y565538D01*
X221940Y565769D01*
Y565982D01*
X221949Y566158D01*
Y566315D01*
Y566380D01*
Y566426D01*
Y566472D01*
Y566500D01*
Y566518D01*
Y566527D01*
Y566934D01*
X221940Y567313D01*
X221921Y567655D01*
X221912Y567979D01*
X221893Y568266D01*
X221866Y568524D01*
X221847Y568765D01*
X221819Y568968D01*
X221801Y569153D01*
X221782Y569310D01*
X221755Y569440D01*
X221736Y569542D01*
X221718Y569625D01*
X221709Y569680D01*
X221699Y569717D01*
Y569726D01*
X221662Y569856D01*
X221616Y569976D01*
X221579Y570096D01*
X221533Y570198D01*
X221487Y570290D01*
X221440Y570374D01*
X221357Y570512D01*
X221274Y570614D01*
X221209Y570688D01*
X221172Y570734D01*
X221154Y570743D01*
X221015Y570836D01*
X220876Y570910D01*
X220747Y570956D01*
X220627Y570993D01*
X220516Y571012D01*
X220433Y571030D01*
D02*
G37*
G36*
X273420Y567822D02*
X273346D01*
X273208Y567812D01*
X273078Y567794D01*
X272949Y567766D01*
X272829Y567739D01*
X272616Y567646D01*
X272431Y567544D01*
X272348Y567489D01*
X272274Y567434D01*
X272218Y567387D01*
X272163Y567350D01*
X272126Y567313D01*
X272098Y567285D01*
X272080Y567267D01*
X272070Y567258D01*
X271978Y567147D01*
X271895Y567027D01*
X271821Y566907D01*
X271765Y566768D01*
X271664Y566500D01*
X271599Y566241D01*
X271571Y566121D01*
X271553Y566010D01*
X271534Y565908D01*
X271525Y565816D01*
Y565742D01*
X271516Y565686D01*
Y565649D01*
Y565640D01*
X275195D01*
Y565825D01*
X275177Y566000D01*
X275149Y566158D01*
X275121Y566315D01*
X275075Y566453D01*
X275038Y566583D01*
X274992Y566703D01*
X274937Y566814D01*
X274890Y566907D01*
X274844Y566990D01*
X274798Y567064D01*
X274761Y567119D01*
X274724Y567165D01*
X274696Y567202D01*
X274687Y567221D01*
X274678Y567230D01*
X274576Y567332D01*
X274465Y567424D01*
X274363Y567507D01*
X274243Y567572D01*
X274132Y567628D01*
X274021Y567674D01*
X273818Y567748D01*
X273716Y567775D01*
X273633Y567794D01*
X273550Y567803D01*
X273476Y567812D01*
X273420Y567822D01*
D02*
G37*
G36*
X402498Y570854D02*
X400778D01*
X400566Y570845D01*
X400381Y570836D01*
X400205D01*
X400057Y570827D01*
X399928Y570817D01*
X399808Y570808D01*
X399706Y570799D01*
X399623Y570790D01*
X399549Y570780D01*
X399493D01*
X399456Y570771D01*
X399419Y570762D01*
X399401D01*
X399179Y570706D01*
X398975Y570623D01*
X398800Y570531D01*
X398643Y570438D01*
X398522Y570337D01*
X398439Y570263D01*
X398384Y570207D01*
X398365Y570198D01*
Y570189D01*
X398291Y570105D01*
X398227Y570013D01*
X398125Y569819D01*
X398051Y569625D01*
X398005Y569440D01*
X397968Y569283D01*
X397958Y569209D01*
Y569153D01*
X397949Y569098D01*
Y569061D01*
Y569042D01*
Y569033D01*
X397958Y568829D01*
X397995Y568635D01*
X398042Y568469D01*
X398097Y568321D01*
X398153Y568201D01*
X398199Y568108D01*
X398217Y568081D01*
X398236Y568053D01*
X398245Y568044D01*
Y568034D01*
X398365Y567887D01*
X398495Y567757D01*
X398633Y567646D01*
X398763Y567563D01*
X398883Y567489D01*
X398975Y567443D01*
X399012Y567424D01*
X399031Y567415D01*
X399049Y567406D01*
X399059D01*
X399170Y567369D01*
X399290Y567341D01*
X399438Y567313D01*
X399595Y567295D01*
X399928Y567258D01*
X400270Y567239D01*
X400427Y567230D01*
X400584Y567221D01*
X400723D01*
X400843Y567212D01*
X402498D01*
Y570854D01*
D02*
G37*
G36*
X377239Y570032D02*
X375464Y565289D01*
X378968D01*
X377239Y570032D01*
D02*
G37*
G36*
X366745Y570891D02*
X364388D01*
X364157Y570882D01*
X363944D01*
X363768Y570873D01*
X363482D01*
X363371Y570864D01*
X363278D01*
X363204Y570854D01*
X363149D01*
X363103Y570845D01*
X363056D01*
X362825Y570799D01*
X362631Y570743D01*
X362465Y570669D01*
X362326Y570586D01*
X362224Y570512D01*
X362150Y570448D01*
X362104Y570410D01*
X362086Y570392D01*
X361975Y570244D01*
X361891Y570087D01*
X361836Y569930D01*
X361790Y569773D01*
X361771Y569634D01*
X361762Y569532D01*
X361753Y569486D01*
Y569458D01*
Y569440D01*
Y569431D01*
X361771Y569209D01*
X361817Y569015D01*
X361873Y568839D01*
X361947Y568700D01*
X362021Y568589D01*
X362076Y568497D01*
X362122Y568451D01*
X362141Y568432D01*
X362298Y568302D01*
X362465Y568201D01*
X362631Y568118D01*
X362798Y568062D01*
X362945Y568016D01*
X363010Y567997D01*
X363066Y567988D01*
X363112Y567979D01*
X363149Y567970D01*
X363176D01*
X363260Y567961D01*
X363362D01*
X363491Y567951D01*
X363630D01*
X363778Y567942D01*
X364249D01*
X364406Y567933D01*
X366745D01*
Y570891D01*
D02*
G37*
G36*
Y565806D02*
X364342D01*
X364046Y565797D01*
X363787Y565788D01*
X363556Y565779D01*
X363343Y565760D01*
X363158Y565751D01*
X362992Y565732D01*
X362844Y565714D01*
X362724Y565695D01*
X362622Y565677D01*
X362539Y565668D01*
X362474Y565649D01*
X362418Y565640D01*
X362391Y565631D01*
X362372Y565621D01*
X362363D01*
X362178Y565547D01*
X362012Y565455D01*
X361873Y565353D01*
X361762Y565261D01*
X361670Y565168D01*
X361614Y565094D01*
X361568Y565048D01*
X361559Y565039D01*
Y565030D01*
X361466Y564872D01*
X361392Y564706D01*
X361346Y564549D01*
X361309Y564392D01*
X361290Y564262D01*
X361272Y564151D01*
Y564114D01*
Y564087D01*
Y564068D01*
Y564059D01*
X361290Y563818D01*
X361327Y563596D01*
X361392Y563412D01*
X361457Y563254D01*
X361522Y563134D01*
X361586Y563042D01*
X361623Y562986D01*
X361642Y562977D01*
Y562968D01*
X361790Y562829D01*
X361938Y562718D01*
X362095Y562626D01*
X362243Y562561D01*
X362372Y562515D01*
X362483Y562478D01*
X362520Y562469D01*
X362548D01*
X362566Y562459D01*
X362576D01*
X362659Y562450D01*
X362761Y562432D01*
X362881Y562422D01*
X363010Y562413D01*
X363158D01*
X363306Y562404D01*
X363602Y562395D01*
X363750D01*
X363889Y562385D01*
X366745D01*
Y565806D01*
D02*
G37*
G36*
X330031Y570854D02*
X328589D01*
X328330Y570845D01*
X328089D01*
X327877Y570836D01*
X327683Y570827D01*
X327507Y570817D01*
X327350Y570799D01*
X327220Y570790D01*
X327100Y570780D01*
X327008Y570762D01*
X326925Y570753D01*
X326860Y570743D01*
X326814Y570734D01*
X326777D01*
X326758Y570725D01*
X326749D01*
X326490Y570651D01*
X326250Y570568D01*
X326046Y570466D01*
X325871Y570364D01*
X325732Y570272D01*
X325676Y570235D01*
X325630Y570198D01*
X325593Y570170D01*
X325565Y570142D01*
X325556Y570133D01*
X325547Y570124D01*
X325381Y569939D01*
X325233Y569745D01*
X325112Y569542D01*
X325001Y569338D01*
X324927Y569162D01*
X324891Y569079D01*
X324863Y569015D01*
X324844Y568959D01*
X324826Y568922D01*
X324817Y568894D01*
Y568885D01*
X324770Y568728D01*
X324724Y568561D01*
X324696Y568377D01*
X324659Y568192D01*
X324613Y567812D01*
X324595Y567628D01*
X324585Y567452D01*
X324567Y567276D01*
X324558Y567119D01*
Y566980D01*
X324548Y566851D01*
Y566749D01*
Y566675D01*
Y566629D01*
Y566611D01*
Y566343D01*
X324558Y566084D01*
X324576Y565843D01*
X324585Y565621D01*
X324613Y565409D01*
X324632Y565224D01*
X324659Y565048D01*
X324678Y564891D01*
X324706Y564743D01*
X324733Y564623D01*
X324752Y564512D01*
X324770Y564429D01*
X324789Y564364D01*
X324807Y564308D01*
X324817Y564281D01*
Y564272D01*
X324863Y564114D01*
X324918Y563976D01*
X324974Y563837D01*
X325029Y563717D01*
X325085Y563606D01*
X325140Y563504D01*
X325196Y563412D01*
X325251Y563328D01*
X325297Y563254D01*
X325344Y563199D01*
X325390Y563144D01*
X325418Y563106D01*
X325454Y563069D01*
X325473Y563051D01*
X325482Y563042D01*
X325491Y563033D01*
X325658Y562903D01*
X325834Y562792D01*
X326000Y562700D01*
X326166Y562635D01*
X326314Y562579D01*
X326379Y562552D01*
X326435Y562533D01*
X326471Y562524D01*
X326508Y562515D01*
X326527Y562506D01*
X326536D01*
X326629Y562487D01*
X326740Y562469D01*
X326980Y562441D01*
X327239Y562413D01*
X327498Y562404D01*
X327618Y562395D01*
X327729D01*
X327831Y562385D01*
X330031D01*
Y570854D01*
D02*
G37*
%LPD*%
M02*
