M48
;Layer_Color=9474304
;FILE_FORMAT=2:5
INCH,LZ
;TYPE=PLATED
T01F00S00C0.03543
T02F00S00C0.03937
T03F00S00C0.04000
T04F00S00C0.06299
;TYPE=NON_PLATED
T05F00S00C0.12795
%
T01
X0095866Y0176476
Y0186476
Y0196476
X0105866Y0201476
Y0191476
Y0181476
X0142165Y0186476
Y0196476
X0152165Y0201476
Y0191476
Y0181476
X0142165Y0176476
T02
X0109252Y0128937
X0126969
Y0154528
X0109252
T03
X014748Y0129921
X015748
X016748
X017748
X018748
X019748
T04
X0051181Y0129921
X007874
T05
X0177165Y0168976
Y0208976
X0070866
Y0168976
M30
